<ttFont>
<head>
    <!-- Most of this table will be recalculated by the compiler -->
    <tableVersion value="1.0"/>
    <fontRevision value="1.013"/>
    <checkSumAdjustment value="0x20018044"/>
    <magicNumber value="0x5f0f3cf5"/>
    <flags value="00000000 00000011"/>
    <unitsPerEm value="1000"/>
    <created value="Tue Apr  9 18:55:28 2019"/>
    <modified value="Tue Apr  9 18:55:29 2019"/>
    <xMin value="-299"/>
    <yMin value="-263"/>
    <xMax value="791"/>
    <yMax value="1028"/>
    <macStyle value="00000000 00000010"/>
    <lowestRecPPEM value="6"/>
    <fontDirectionHint value="2"/>
    <indexToLocFormat value="0"/>
    <glyphDataFormat value="0"/>
  </head>
    <TTGlyph name=".notdef" xMin="50" yMin="-250" xMax="450" yMax="750">
      <contour>
        <pt x="50" y="-250" on="1"/>
        <pt x="450" y="-250" on="1"/>
        <pt x="450" y="750" on="1"/>
        <pt x="50" y="750" on="1"/>
      </contour>
      <contour>
        <pt x="100" y="-200" on="1"/>
        <pt x="100" y="700" on="1"/>
        <pt x="400" y="700" on="1"/>
        <pt x="400" y="-200" on="1"/>
      </contour>
    </TTGlyph>
    <TTGlyph name="A" xMin="-37" yMin="0" xMax="507" yMax="707">
      <contour>
        <pt x="47" y="0" on="1"/>
        <pt x="-24" y="0" on="1"/>
        <pt x="-37" y="0" on="0"/>
        <pt x="-31" y="14" on="1"/>
        <pt x="73" y="214" on="0"/>
        <pt x="256" y="563" on="0"/>
        <pt x="335" y="707" on="1"/>
        <pt x="471" y="707" on="1"/>
        <pt x="478" y="707" on="0"/>
        <pt x="479" y="705" on="1"/>
        <pt x="482" y="702" on="0"/>
        <pt x="483" y="694" on="1"/>
        <pt x="490" y="534" on="0"/>
        <pt x="501" y="185" on="0"/>
        <pt x="507" y="0" on="1"/>
        <pt x="436" y="0" on="1"/>
        <pt x="431" y="0" on="0"/>
        <pt x="428" y="3" on="1"/>
        <pt x="427" y="5" on="0"/>
        <pt x="426" y="9" on="0"/>
        <pt x="425" y="16" on="1"/>
        <pt x="424" y="67" on="0"/>
        <pt x="421" y="163" on="0"/>
        <pt x="420" y="208" on="1"/>
        <pt x="154" y="208" on="1"/>
        <pt x="129" y="161" on="0"/>
        <pt x="76" y="57" on="0"/>
      </contour>
      <contour>
        <pt x="398" y="627" on="1"/>
        <pt x="377" y="627" on="1"/>
        <pt x="332" y="546" on="0"/>
        <pt x="243" y="379" on="0"/>
        <pt x="192" y="282" on="1"/>
        <pt x="417" y="282" on="1"/>
        <pt x="414" y="373" on="0"/>
        <pt x="407" y="541" on="0"/>
        <pt x="403" y="623" on="1"/>
        <pt x="403" y="627" on="0"/>
      </contour>
    </TTGlyph>
    <TTGlyph name="AE" xMin="-57" yMin="0" xMax="687" yMax="700">
      <contour>
        <pt x="25" y="0" on="1"/>
        <pt x="-48" y="0" on="1"/>
        <pt x="-51" y="0" on="0"/>
        <pt x="-57" y="6" on="0"/>
        <pt x="-53" y="13" on="1"/>
        <pt x="36" y="185" on="0"/>
        <pt x="212" y="528" on="0"/>
        <pt x="300" y="700" on="1"/>
        <pt x="678" y="700" on="1"/>
        <pt x="682" y="700" on="0"/>
        <pt x="685" y="697" on="1"/>
        <pt x="687" y="693" on="0"/>
        <pt x="686" y="689" on="1"/>
        <pt x="682" y="673" on="0"/>
        <pt x="674" y="641" on="0"/>
        <pt x="670" y="624" on="1"/>
        <pt x="443" y="624" on="1"/>
        <pt x="433" y="565" on="0"/>
        <pt x="415" y="446" on="0"/>
        <pt x="405" y="387" on="1"/>
        <pt x="559" y="387" on="1"/>
        <pt x="570" y="387" on="0"/>
        <pt x="568" y="376" on="1"/>
        <pt x="564" y="360" on="0"/>
        <pt x="557" y="330" on="0"/>
        <pt x="552" y="313" on="1"/>
        <pt x="393" y="313" on="1"/>
        <pt x="384" y="254" on="0"/>
        <pt x="365" y="135" on="0"/>
        <pt x="355" y="76" on="1"/>
        <pt x="522" y="76" on="1"/>
        <pt x="532" y="76" on="0"/>
        <pt x="530" y="65" on="1"/>
        <pt x="526" y="48" on="0"/>
        <pt x="518" y="17" on="0"/>
        <pt x="514" y="0" on="1"/>
        <pt x="274" y="0" on="1"/>
        <pt x="264" y="0" on="0"/>
        <pt x="265" y="8" on="1"/>
        <pt x="272" y="52" on="0"/>
        <pt x="286" y="141" on="0"/>
        <pt x="293" y="185" on="1"/>
        <pt x="119" y="185" on="1"/>
        <pt x="72" y="93" on="0"/>
      </contour>
      <contour>
        <pt x="357" y="624" on="1"/>
        <pt x="344" y="624" on="1"/>
        <pt x="251" y="443" on="0"/>
        <pt x="158" y="260" on="1"/>
        <pt x="305" y="260" on="1"/>
        <pt x="320" y="348" on="0"/>
        <pt x="349" y="526" on="0"/>
        <pt x="363" y="614" on="1"/>
        <pt x="364" y="621" on="0"/>
        <pt x="361" y="624" on="0"/>
      </contour>
    </TTGlyph>
    <TTGlyph name="AEacute" xMin="-57" yMin="0" xMax="700" yMax="947">
      <contour>
        <pt x="513" y="775" on="1"/>
        <pt x="447" y="775" on="1"/>
        <pt x="486" y="820" on="0"/>
        <pt x="558" y="901" on="0"/>
        <pt x="598" y="947" on="1"/>
        <pt x="692" y="947" on="1"/>
        <pt x="698" y="947" on="0"/>
        <pt x="700" y="938" on="0"/>
        <pt x="695" y="933" on="1"/>
        <pt x="671" y="911" on="0"/>
        <pt x="635" y="878" on="0"/>
        <pt x="602" y="847" on="0"/>
        <pt x="561" y="809" on="0"/>
        <pt x="531" y="782" on="1"/>
        <pt x="529" y="780" on="0"/>
        <pt x="519" y="775" on="0"/>
      </contour>
      <contour>
        <pt x="25" y="0" on="1"/>
        <pt x="-48" y="0" on="1"/>
        <pt x="-51" y="0" on="0"/>
        <pt x="-57" y="6" on="0"/>
        <pt x="-53" y="13" on="1"/>
        <pt x="36" y="185" on="0"/>
        <pt x="212" y="528" on="0"/>
        <pt x="300" y="700" on="1"/>
        <pt x="678" y="700" on="1"/>
        <pt x="682" y="700" on="0"/>
        <pt x="685" y="697" on="1"/>
        <pt x="687" y="693" on="0"/>
        <pt x="686" y="689" on="1"/>
        <pt x="682" y="673" on="0"/>
        <pt x="674" y="641" on="0"/>
        <pt x="670" y="624" on="1"/>
        <pt x="443" y="624" on="1"/>
        <pt x="433" y="565" on="0"/>
        <pt x="415" y="446" on="0"/>
        <pt x="405" y="387" on="1"/>
        <pt x="559" y="387" on="1"/>
        <pt x="570" y="387" on="0"/>
        <pt x="568" y="376" on="1"/>
        <pt x="564" y="360" on="0"/>
        <pt x="557" y="330" on="0"/>
        <pt x="552" y="313" on="1"/>
        <pt x="393" y="313" on="1"/>
        <pt x="384" y="254" on="0"/>
        <pt x="365" y="135" on="0"/>
        <pt x="355" y="76" on="1"/>
        <pt x="522" y="76" on="1"/>
        <pt x="532" y="76" on="0"/>
        <pt x="530" y="65" on="1"/>
        <pt x="526" y="48" on="0"/>
        <pt x="518" y="17" on="0"/>
        <pt x="514" y="0" on="1"/>
        <pt x="274" y="0" on="1"/>
        <pt x="264" y="0" on="0"/>
        <pt x="265" y="8" on="1"/>
        <pt x="272" y="52" on="0"/>
        <pt x="286" y="141" on="0"/>
        <pt x="293" y="185" on="1"/>
        <pt x="119" y="185" on="1"/>
        <pt x="72" y="93" on="0"/>
      </contour>
      <contour>
        <pt x="357" y="624" on="1"/>
        <pt x="344" y="624" on="1"/>
        <pt x="251" y="443" on="0"/>
        <pt x="158" y="260" on="1"/>
        <pt x="305" y="260" on="1"/>
        <pt x="320" y="348" on="0"/>
        <pt x="349" y="526" on="0"/>
        <pt x="363" y="614" on="1"/>
        <pt x="364" y="621" on="0"/>
        <pt x="361" y="624" on="0"/>
      </contour>
    </TTGlyph>
    <TTGlyph name="Aacute" xMin="-35" yMin="0" xMax="641" yMax="947">
      <contour>
        <pt x="454" y="775" on="1"/>
        <pt x="387" y="775" on="1"/>
        <pt x="427" y="820" on="0"/>
        <pt x="498" y="901" on="0"/>
        <pt x="539" y="947" on="1"/>
        <pt x="633" y="947" on="1"/>
        <pt x="639" y="947" on="0"/>
        <pt x="641" y="938" on="0"/>
        <pt x="636" y="933" on="1"/>
        <pt x="612" y="911" on="0"/>
        <pt x="576" y="878" on="0"/>
        <pt x="542" y="847" on="0"/>
        <pt x="501" y="809" on="0"/>
        <pt x="472" y="782" on="1"/>
        <pt x="469" y="780" on="0"/>
        <pt x="460" y="775" on="0"/>
      </contour>
      <contour>
        <pt x="45" y="0" on="1"/>
        <pt x="-27" y="0" on="1"/>
        <pt x="-31" y="0" on="0"/>
        <pt x="-35" y="7" on="0"/>
        <pt x="-31" y="14" on="1"/>
        <pt x="73" y="214" on="0"/>
        <pt x="256" y="563" on="0"/>
        <pt x="335" y="707" on="1"/>
        <pt x="474" y="707" on="1"/>
        <pt x="478" y="707" on="0"/>
        <pt x="481" y="704" on="1"/>
        <pt x="483" y="700" on="0"/>
        <pt x="483" y="696" on="1"/>
        <pt x="490" y="535" on="0"/>
        <pt x="502" y="185" on="0"/>
        <pt x="507" y="0" on="1"/>
        <pt x="432" y="0" on="1"/>
        <pt x="428" y="0" on="0"/>
        <pt x="425" y="3" on="1"/>
        <pt x="424" y="5" on="0"/>
        <pt x="423" y="8" on="0"/>
        <pt x="422" y="16" on="1"/>
        <pt x="421" y="66" on="0"/>
        <pt x="419" y="160" on="0"/>
        <pt x="418" y="205" on="1"/>
        <pt x="150" y="205" on="1"/>
        <pt x="126" y="158" on="0"/>
        <pt x="73" y="56" on="0"/>
      </contour>
      <contour>
        <pt x="396" y="627" on="1"/>
        <pt x="376" y="627" on="1"/>
        <pt x="331" y="546" on="0"/>
        <pt x="241" y="379" on="0"/>
        <pt x="190" y="282" on="1"/>
        <pt x="415" y="282" on="1"/>
        <pt x="412" y="373" on="0"/>
        <pt x="405" y="541" on="0"/>
        <pt x="401" y="623" on="1"/>
        <pt x="401" y="627" on="0"/>
      </contour>
    </TTGlyph>
    <TTGlyph name="Abreve" xMin="-35" yMin="0" xMax="652" yMax="939">
      <contour>
        <pt x="354" y="939" on="1"/>
        <pt x="364" y="899" on="0"/>
        <pt x="408" y="868" on="0"/>
        <pt x="451" y="868" on="1"/>
        <pt x="494" y="868" on="0"/>
        <pt x="552" y="899" on="0"/>
        <pt x="583" y="939" on="1"/>
        <pt x="635" y="939" on="1"/>
        <pt x="652" y="939" on="0"/>
        <pt x="641" y="918" on="1"/>
        <pt x="614" y="866" on="0"/>
        <pt x="508" y="797" on="0"/>
        <pt x="446" y="797" on="1"/>
        <pt x="420" y="797" on="1"/>
        <pt x="358" y="797" on="0"/>
        <pt x="286" y="866" on="0"/>
        <pt x="285" y="918" on="1"/>
        <pt x="285" y="939" on="0"/>
        <pt x="302" y="939" on="1"/>
      </contour>
      <contour>
        <pt x="45" y="0" on="1"/>
        <pt x="-27" y="0" on="1"/>
        <pt x="-31" y="0" on="0"/>
        <pt x="-35" y="7" on="0"/>
        <pt x="-31" y="14" on="1"/>
        <pt x="73" y="214" on="0"/>
        <pt x="256" y="563" on="0"/>
        <pt x="335" y="707" on="1"/>
        <pt x="474" y="707" on="1"/>
        <pt x="478" y="707" on="0"/>
        <pt x="481" y="704" on="1"/>
        <pt x="483" y="700" on="0"/>
        <pt x="483" y="696" on="1"/>
        <pt x="490" y="535" on="0"/>
        <pt x="502" y="185" on="0"/>
        <pt x="507" y="0" on="1"/>
        <pt x="432" y="0" on="1"/>
        <pt x="428" y="0" on="0"/>
        <pt x="425" y="3" on="1"/>
        <pt x="424" y="5" on="0"/>
        <pt x="423" y="8" on="0"/>
        <pt x="422" y="16" on="1"/>
        <pt x="421" y="66" on="0"/>
        <pt x="419" y="160" on="0"/>
        <pt x="418" y="205" on="1"/>
        <pt x="150" y="205" on="1"/>
        <pt x="126" y="158" on="0"/>
        <pt x="73" y="56" on="0"/>
      </contour>
      <contour>
        <pt x="396" y="627" on="1"/>
        <pt x="376" y="627" on="1"/>
        <pt x="331" y="546" on="0"/>
        <pt x="241" y="379" on="0"/>
        <pt x="190" y="282" on="1"/>
        <pt x="415" y="282" on="1"/>
        <pt x="412" y="373" on="0"/>
        <pt x="405" y="541" on="0"/>
        <pt x="401" y="623" on="1"/>
        <pt x="401" y="627" on="0"/>
      </contour>
    </TTGlyph>
    <TTGlyph name="Acircumflex" xMin="-35" yMin="0" xMax="653" yMax="945">
      <contour>
        <pt x="291" y="776" on="1"/>
        <pt x="223" y="776" on="1"/>
        <pt x="211" y="776" on="0"/>
        <pt x="213" y="783" on="1"/>
        <pt x="214" y="787" on="0"/>
        <pt x="224" y="796" on="0"/>
        <pt x="242" y="809" on="1"/>
        <pt x="257" y="820" on="0"/>
        <pt x="307" y="857" on="0"/>
        <pt x="364" y="899" on="0"/>
        <pt x="413" y="935" on="0"/>
        <pt x="426" y="945" on="1"/>
        <pt x="499" y="945" on="1"/>
        <pt x="507" y="945" on="0"/>
        <pt x="517" y="938" on="0"/>
        <pt x="528" y="925" on="1"/>
        <pt x="537" y="915" on="0"/>
        <pt x="581" y="862" on="0"/>
        <pt x="633" y="800" on="0"/>
        <pt x="653" y="776" on="1"/>
        <pt x="579" y="776" on="1"/>
        <pt x="568" y="776" on="0"/>
        <pt x="558" y="780" on="0"/>
        <pt x="551" y="786" on="1"/>
        <pt x="539" y="798" on="0"/>
        <pt x="486" y="850" on="0"/>
        <pt x="454" y="883" on="1"/>
        <pt x="406" y="851" on="0"/>
        <pt x="327" y="800" on="0"/>
      </contour>
      <contour>
        <pt x="45" y="0" on="1"/>
        <pt x="-27" y="0" on="1"/>
        <pt x="-31" y="0" on="0"/>
        <pt x="-35" y="7" on="0"/>
        <pt x="-31" y="14" on="1"/>
        <pt x="73" y="214" on="0"/>
        <pt x="256" y="563" on="0"/>
        <pt x="335" y="707" on="1"/>
        <pt x="474" y="707" on="1"/>
        <pt x="478" y="707" on="0"/>
        <pt x="481" y="704" on="1"/>
        <pt x="483" y="700" on="0"/>
        <pt x="483" y="696" on="1"/>
        <pt x="490" y="535" on="0"/>
        <pt x="502" y="185" on="0"/>
        <pt x="507" y="0" on="1"/>
        <pt x="432" y="0" on="1"/>
        <pt x="428" y="0" on="0"/>
        <pt x="425" y="3" on="1"/>
        <pt x="424" y="5" on="0"/>
        <pt x="423" y="8" on="0"/>
        <pt x="422" y="16" on="1"/>
        <pt x="421" y="66" on="0"/>
        <pt x="419" y="160" on="0"/>
        <pt x="418" y="205" on="1"/>
        <pt x="150" y="205" on="1"/>
        <pt x="126" y="158" on="0"/>
        <pt x="73" y="56" on="0"/>
      </contour>
      <contour>
        <pt x="396" y="627" on="1"/>
        <pt x="376" y="627" on="1"/>
        <pt x="331" y="546" on="0"/>
        <pt x="241" y="379" on="0"/>
        <pt x="190" y="282" on="1"/>
        <pt x="415" y="282" on="1"/>
        <pt x="412" y="373" on="0"/>
        <pt x="405" y="541" on="0"/>
        <pt x="401" y="623" on="1"/>
        <pt x="401" y="627" on="0"/>
      </contour>
    </TTGlyph>
    <TTGlyph name="Adieresis" xMin="-35" yMin="0" xMax="614" yMax="903">
      <contour>
        <pt x="383" y="802" on="1"/>
        <pt x="290" y="802" on="1"/>
        <pt x="278" y="802" on="0"/>
        <pt x="282" y="813" on="1"/>
        <pt x="304" y="903" on="1"/>
        <pt x="397" y="903" on="1"/>
        <pt x="409" y="903" on="0"/>
        <pt x="405" y="892" on="1"/>
      </contour>
      <contour>
        <pt x="589" y="802" on="1"/>
        <pt x="496" y="802" on="1"/>
        <pt x="486" y="802" on="0"/>
        <pt x="488" y="813" on="1"/>
        <pt x="511" y="903" on="1"/>
        <pt x="603" y="903" on="1"/>
        <pt x="614" y="903" on="0"/>
        <pt x="612" y="892" on="1"/>
      </contour>
      <contour>
        <pt x="45" y="0" on="1"/>
        <pt x="-27" y="0" on="1"/>
        <pt x="-31" y="0" on="0"/>
        <pt x="-35" y="7" on="0"/>
        <pt x="-31" y="14" on="1"/>
        <pt x="73" y="214" on="0"/>
        <pt x="256" y="563" on="0"/>
        <pt x="335" y="707" on="1"/>
        <pt x="474" y="707" on="1"/>
        <pt x="478" y="707" on="0"/>
        <pt x="481" y="704" on="1"/>
        <pt x="483" y="700" on="0"/>
        <pt x="483" y="696" on="1"/>
        <pt x="490" y="535" on="0"/>
        <pt x="502" y="185" on="0"/>
        <pt x="507" y="0" on="1"/>
        <pt x="432" y="0" on="1"/>
        <pt x="428" y="0" on="0"/>
        <pt x="425" y="3" on="1"/>
        <pt x="424" y="5" on="0"/>
        <pt x="423" y="8" on="0"/>
        <pt x="422" y="16" on="1"/>
        <pt x="421" y="66" on="0"/>
        <pt x="419" y="160" on="0"/>
        <pt x="418" y="205" on="1"/>
        <pt x="150" y="205" on="1"/>
        <pt x="126" y="158" on="0"/>
        <pt x="73" y="56" on="0"/>
      </contour>
      <contour>
        <pt x="396" y="627" on="1"/>
        <pt x="376" y="627" on="1"/>
        <pt x="331" y="546" on="0"/>
        <pt x="241" y="379" on="0"/>
        <pt x="190" y="282" on="1"/>
        <pt x="415" y="282" on="1"/>
        <pt x="412" y="373" on="0"/>
        <pt x="405" y="541" on="0"/>
        <pt x="401" y="623" on="1"/>
        <pt x="401" y="627" on="0"/>
      </contour>
    </TTGlyph>
    <TTGlyph name="Adotbelow" xMin="-35" yMin="-204" xMax="507" yMax="707">
      <contour>
        <pt x="45" y="0" on="1"/>
        <pt x="-27" y="0" on="1"/>
        <pt x="-31" y="0" on="0"/>
        <pt x="-35" y="7" on="0"/>
        <pt x="-31" y="14" on="1"/>
        <pt x="73" y="214" on="0"/>
        <pt x="256" y="563" on="0"/>
        <pt x="335" y="707" on="1"/>
        <pt x="474" y="707" on="1"/>
        <pt x="478" y="707" on="0"/>
        <pt x="481" y="704" on="1"/>
        <pt x="483" y="700" on="0"/>
        <pt x="483" y="696" on="1"/>
        <pt x="490" y="535" on="0"/>
        <pt x="502" y="185" on="0"/>
        <pt x="507" y="0" on="1"/>
        <pt x="432" y="0" on="1"/>
        <pt x="428" y="0" on="0"/>
        <pt x="425" y="3" on="1"/>
        <pt x="424" y="5" on="0"/>
        <pt x="423" y="8" on="0"/>
        <pt x="422" y="16" on="1"/>
        <pt x="421" y="66" on="0"/>
        <pt x="419" y="160" on="0"/>
        <pt x="418" y="205" on="1"/>
        <pt x="150" y="205" on="1"/>
        <pt x="126" y="158" on="0"/>
        <pt x="73" y="56" on="0"/>
      </contour>
      <contour>
        <pt x="396" y="627" on="1"/>
        <pt x="376" y="627" on="1"/>
        <pt x="331" y="546" on="0"/>
        <pt x="241" y="379" on="0"/>
        <pt x="190" y="282" on="1"/>
        <pt x="415" y="282" on="1"/>
        <pt x="412" y="373" on="0"/>
        <pt x="405" y="541" on="0"/>
        <pt x="401" y="623" on="1"/>
        <pt x="401" y="627" on="0"/>
      </contour>
      <contour>
        <pt x="238" y="-204" on="1"/>
        <pt x="138" y="-204" on="1"/>
        <pt x="126" y="-204" on="0"/>
        <pt x="130" y="-193" on="1"/>
        <pt x="153" y="-102" on="1"/>
        <pt x="253" y="-102" on="1"/>
        <pt x="265" y="-102" on="0"/>
        <pt x="261" y="-113" on="1"/>
      </contour>
    </TTGlyph>
    <TTGlyph name="Agrave" xMin="-35" yMin="0" xMax="507" yMax="948">
      <contour>
        <pt x="468" y="776" on="1"/>
        <pt x="402" y="776" on="1"/>
        <pt x="391" y="776" on="0"/>
        <pt x="387" y="783" on="1"/>
        <pt x="366" y="819" on="0"/>
        <pt x="339" y="864" on="0"/>
        <pt x="316" y="904" on="0"/>
        <pt x="298" y="933" on="1"/>
        <pt x="295" y="938" on="0"/>
        <pt x="303" y="948" on="0"/>
        <pt x="309" y="948" on="1"/>
        <pt x="402" y="948" on="1"/>
        <pt x="420" y="902" on="0"/>
        <pt x="451" y="821" on="0"/>
      </contour>
      <contour>
        <pt x="45" y="0" on="1"/>
        <pt x="-27" y="0" on="1"/>
        <pt x="-31" y="0" on="0"/>
        <pt x="-35" y="7" on="0"/>
        <pt x="-31" y="14" on="1"/>
        <pt x="73" y="214" on="0"/>
        <pt x="256" y="563" on="0"/>
        <pt x="335" y="707" on="1"/>
        <pt x="474" y="707" on="1"/>
        <pt x="478" y="707" on="0"/>
        <pt x="481" y="704" on="1"/>
        <pt x="483" y="700" on="0"/>
        <pt x="483" y="696" on="1"/>
        <pt x="490" y="535" on="0"/>
        <pt x="502" y="185" on="0"/>
        <pt x="507" y="0" on="1"/>
        <pt x="432" y="0" on="1"/>
        <pt x="428" y="0" on="0"/>
        <pt x="425" y="3" on="1"/>
        <pt x="424" y="5" on="0"/>
        <pt x="423" y="8" on="0"/>
        <pt x="422" y="16" on="1"/>
        <pt x="421" y="66" on="0"/>
        <pt x="419" y="160" on="0"/>
        <pt x="418" y="205" on="1"/>
        <pt x="150" y="205" on="1"/>
        <pt x="126" y="158" on="0"/>
        <pt x="73" y="56" on="0"/>
      </contour>
      <contour>
        <pt x="396" y="627" on="1"/>
        <pt x="376" y="627" on="1"/>
        <pt x="331" y="546" on="0"/>
        <pt x="241" y="379" on="0"/>
        <pt x="190" y="282" on="1"/>
        <pt x="415" y="282" on="1"/>
        <pt x="412" y="373" on="0"/>
        <pt x="405" y="541" on="0"/>
        <pt x="401" y="623" on="1"/>
        <pt x="401" y="627" on="0"/>
      </contour>
    </TTGlyph>
    <TTGlyph name="Amacron" xMin="-35" yMin="0" xMax="631" yMax="881">
      <contour>
        <pt x="278" y="881" on="1"/>
        <pt x="619" y="881" on="1"/>
        <pt x="631" y="881" on="0"/>
        <pt x="627" y="870" on="1"/>
        <pt x="623" y="854" on="0"/>
        <pt x="616" y="824" on="0"/>
        <pt x="612" y="808" on="1"/>
        <pt x="271" y="808" on="1"/>
        <pt x="259" y="808" on="0"/>
        <pt x="263" y="819" on="1"/>
        <pt x="267" y="835" on="0"/>
        <pt x="274" y="865" on="0"/>
      </contour>
      <contour>
        <pt x="45" y="0" on="1"/>
        <pt x="-27" y="0" on="1"/>
        <pt x="-31" y="0" on="0"/>
        <pt x="-35" y="7" on="0"/>
        <pt x="-31" y="14" on="1"/>
        <pt x="73" y="214" on="0"/>
        <pt x="256" y="563" on="0"/>
        <pt x="335" y="707" on="1"/>
        <pt x="474" y="707" on="1"/>
        <pt x="478" y="707" on="0"/>
        <pt x="481" y="704" on="1"/>
        <pt x="483" y="700" on="0"/>
        <pt x="483" y="696" on="1"/>
        <pt x="490" y="535" on="0"/>
        <pt x="502" y="185" on="0"/>
        <pt x="507" y="0" on="1"/>
        <pt x="432" y="0" on="1"/>
        <pt x="428" y="0" on="0"/>
        <pt x="425" y="3" on="1"/>
        <pt x="424" y="5" on="0"/>
        <pt x="423" y="8" on="0"/>
        <pt x="422" y="16" on="1"/>
        <pt x="421" y="66" on="0"/>
        <pt x="419" y="160" on="0"/>
        <pt x="418" y="205" on="1"/>
        <pt x="150" y="205" on="1"/>
        <pt x="126" y="158" on="0"/>
        <pt x="73" y="56" on="0"/>
      </contour>
      <contour>
        <pt x="396" y="627" on="1"/>
        <pt x="376" y="627" on="1"/>
        <pt x="331" y="546" on="0"/>
        <pt x="241" y="379" on="0"/>
        <pt x="190" y="282" on="1"/>
        <pt x="415" y="282" on="1"/>
        <pt x="412" y="373" on="0"/>
        <pt x="405" y="541" on="0"/>
        <pt x="401" y="623" on="1"/>
        <pt x="401" y="627" on="0"/>
      </contour>
    </TTGlyph>
    <TTGlyph name="Aogonek" xMin="-35" yMin="-251" xMax="507" yMax="707">
      <contour>
        <pt x="45" y="0" on="1"/>
        <pt x="-27" y="0" on="1"/>
        <pt x="-31" y="0" on="0"/>
        <pt x="-35" y="7" on="0"/>
        <pt x="-31" y="14" on="1"/>
        <pt x="73" y="214" on="0"/>
        <pt x="256" y="563" on="0"/>
        <pt x="335" y="707" on="1"/>
        <pt x="474" y="707" on="1"/>
        <pt x="478" y="707" on="0"/>
        <pt x="481" y="704" on="1"/>
        <pt x="483" y="700" on="0"/>
        <pt x="483" y="696" on="1"/>
        <pt x="490" y="535" on="0"/>
        <pt x="502" y="185" on="0"/>
        <pt x="507" y="0" on="1"/>
        <pt x="506" y="0" on="1"/>
        <pt x="506" y="-1" on="1"/>
        <pt x="505" y="-5" on="0"/>
        <pt x="500" y="-10" on="0"/>
        <pt x="492" y="-12" on="1"/>
        <pt x="416" y="-28" on="0"/>
        <pt x="346" y="-86" on="0"/>
        <pt x="338" y="-118" on="1"/>
        <pt x="331" y="-146" on="0"/>
        <pt x="358" y="-173" on="0"/>
        <pt x="383" y="-173" on="1"/>
        <pt x="419" y="-173" on="0"/>
        <pt x="450" y="-153" on="1"/>
        <pt x="465" y="-153" on="1"/>
        <pt x="462" y="-164" on="0"/>
        <pt x="455" y="-191" on="0"/>
        <pt x="449" y="-217" on="1"/>
        <pt x="446" y="-229" on="0"/>
        <pt x="394" y="-251" on="0"/>
        <pt x="359" y="-251" on="1"/>
        <pt x="298" y="-251" on="0"/>
        <pt x="244" y="-190" on="0"/>
        <pt x="257" y="-137" on="1"/>
        <pt x="267" y="-96" on="0"/>
        <pt x="319" y="-35" on="0"/>
        <pt x="387" y="5" on="0"/>
        <pt x="422" y="15" on="1"/>
        <pt x="422" y="16" on="1"/>
        <pt x="421" y="66" on="0"/>
        <pt x="419" y="160" on="0"/>
        <pt x="418" y="205" on="1"/>
        <pt x="150" y="205" on="1"/>
        <pt x="126" y="158" on="0"/>
        <pt x="73" y="56" on="0"/>
      </contour>
      <contour>
        <pt x="396" y="627" on="1"/>
        <pt x="376" y="627" on="1"/>
        <pt x="331" y="546" on="0"/>
        <pt x="241" y="379" on="0"/>
        <pt x="190" y="282" on="1"/>
        <pt x="415" y="282" on="1"/>
        <pt x="412" y="373" on="0"/>
        <pt x="405" y="541" on="0"/>
        <pt x="401" y="623" on="1"/>
        <pt x="401" y="627" on="0"/>
      </contour>
    </TTGlyph>
    <TTGlyph name="Aring" xMin="-35" yMin="0" xMax="594" yMax="897">
      <contour>
        <pt x="45" y="0" on="1"/>
        <pt x="-27" y="0" on="1"/>
        <pt x="-31" y="0" on="0"/>
        <pt x="-35" y="7" on="0"/>
        <pt x="-31" y="14" on="1"/>
        <pt x="66" y="201" on="0"/>
        <pt x="240" y="532" on="0"/>
        <pt x="316" y="671" on="1"/>
        <pt x="257" y="699" on="0"/>
        <pt x="274" y="763" on="1"/>
        <pt x="280" y="789" on="1"/>
        <pt x="292" y="839" on="0"/>
        <pt x="388" y="897" on="0"/>
        <pt x="458" y="897" on="1"/>
        <pt x="528" y="897" on="0"/>
        <pt x="594" y="839" on="0"/>
        <pt x="581" y="789" on="1"/>
        <pt x="575" y="763" on="1"/>
        <pt x="567" y="731" on="0"/>
        <pt x="519" y="683" on="0"/>
        <pt x="484" y="670" on="1"/>
        <pt x="490" y="514" on="0"/>
        <pt x="502" y="178" on="0"/>
        <pt x="507" y="0" on="1"/>
        <pt x="432" y="0" on="1"/>
        <pt x="428" y="0" on="0"/>
        <pt x="425" y="3" on="1"/>
        <pt x="424" y="5" on="0"/>
        <pt x="423" y="8" on="0"/>
        <pt x="422" y="16" on="1"/>
        <pt x="421" y="66" on="0"/>
        <pt x="419" y="160" on="0"/>
        <pt x="418" y="205" on="1"/>
        <pt x="150" y="205" on="1"/>
        <pt x="126" y="158" on="0"/>
        <pt x="73" y="56" on="0"/>
      </contour>
      <contour>
        <pt x="346" y="766" on="1"/>
        <pt x="341" y="742" on="0"/>
        <pt x="375" y="715" on="0"/>
        <pt x="412" y="715" on="1"/>
        <pt x="450" y="715" on="0"/>
        <pt x="498" y="742" on="0"/>
        <pt x="504" y="766" on="1"/>
        <pt x="509" y="787" on="1"/>
        <pt x="515" y="811" on="0"/>
        <pt x="481" y="839" on="0"/>
        <pt x="443" y="839" on="1"/>
        <pt x="406" y="839" on="0"/>
        <pt x="358" y="811" on="0"/>
        <pt x="352" y="787" on="1"/>
      </contour>
      <contour>
        <pt x="396" y="627" on="1"/>
        <pt x="376" y="627" on="1"/>
        <pt x="331" y="546" on="0"/>
        <pt x="241" y="379" on="0"/>
        <pt x="190" y="282" on="1"/>
        <pt x="415" y="282" on="1"/>
        <pt x="412" y="373" on="0"/>
        <pt x="405" y="541" on="0"/>
        <pt x="401" y="623" on="1"/>
        <pt x="401" y="627" on="0"/>
      </contour>
    </TTGlyph>
    <TTGlyph name="Aringacute" xMin="-35" yMin="0" xMax="664" yMax="1028">
      <contour>
        <pt x="45" y="0" on="1"/>
        <pt x="-27" y="0" on="1"/>
        <pt x="-31" y="0" on="0"/>
        <pt x="-35" y="7" on="0"/>
        <pt x="-31" y="14" on="1"/>
        <pt x="66" y="201" on="0"/>
        <pt x="240" y="532" on="0"/>
        <pt x="316" y="671" on="1"/>
        <pt x="257" y="699" on="0"/>
        <pt x="274" y="763" on="1"/>
        <pt x="280" y="789" on="1"/>
        <pt x="292" y="836" on="0"/>
        <pt x="381" y="894" on="0"/>
        <pt x="447" y="897" on="1"/>
        <pt x="475" y="929" on="0"/>
        <pt x="531" y="992" on="0"/>
        <pt x="562" y="1028" on="1"/>
        <pt x="656" y="1028" on="1"/>
        <pt x="662" y="1028" on="0"/>
        <pt x="664" y="1018" on="0"/>
        <pt x="659" y="1013" on="1"/>
        <pt x="631" y="987" on="0"/>
        <pt x="592" y="951" on="0"/>
        <pt x="552" y="914" on="0"/>
        <pt x="523" y="888" on="1"/>
        <pt x="560" y="876" on="0"/>
        <pt x="590" y="825" on="0"/>
        <pt x="581" y="789" on="1"/>
        <pt x="575" y="763" on="1"/>
        <pt x="567" y="731" on="0"/>
        <pt x="519" y="683" on="0"/>
        <pt x="484" y="670" on="1"/>
        <pt x="490" y="514" on="0"/>
        <pt x="502" y="178" on="0"/>
        <pt x="507" y="0" on="1"/>
        <pt x="432" y="0" on="1"/>
        <pt x="428" y="0" on="0"/>
        <pt x="425" y="3" on="1"/>
        <pt x="424" y="5" on="0"/>
        <pt x="423" y="8" on="0"/>
        <pt x="422" y="16" on="1"/>
        <pt x="421" y="66" on="0"/>
        <pt x="419" y="160" on="0"/>
        <pt x="418" y="205" on="1"/>
        <pt x="150" y="205" on="1"/>
        <pt x="126" y="158" on="0"/>
        <pt x="73" y="56" on="0"/>
      </contour>
      <contour>
        <pt x="346" y="766" on="1"/>
        <pt x="341" y="742" on="0"/>
        <pt x="375" y="715" on="0"/>
        <pt x="412" y="715" on="1"/>
        <pt x="450" y="715" on="0"/>
        <pt x="498" y="742" on="0"/>
        <pt x="504" y="766" on="1"/>
        <pt x="509" y="787" on="1"/>
        <pt x="515" y="811" on="0"/>
        <pt x="481" y="839" on="0"/>
        <pt x="443" y="839" on="1"/>
        <pt x="406" y="839" on="0"/>
        <pt x="358" y="811" on="0"/>
        <pt x="352" y="787" on="1"/>
      </contour>
      <contour>
        <pt x="396" y="627" on="1"/>
        <pt x="376" y="627" on="1"/>
        <pt x="331" y="546" on="0"/>
        <pt x="241" y="379" on="0"/>
        <pt x="190" y="282" on="1"/>
        <pt x="415" y="282" on="1"/>
        <pt x="412" y="373" on="0"/>
        <pt x="405" y="541" on="0"/>
        <pt x="401" y="623" on="1"/>
        <pt x="401" y="627" on="0"/>
      </contour>
    </TTGlyph>
    <TTGlyph name="Atilde" xMin="-35" yMin="0" xMax="648" yMax="928">
      <contour>
        <pt x="543" y="866" on="1"/>
        <pt x="569" y="866" on="0"/>
        <pt x="609" y="888" on="0"/>
        <pt x="634" y="911" on="1"/>
        <pt x="648" y="911" on="1"/>
        <pt x="644" y="896" on="0"/>
        <pt x="635" y="859" on="0"/>
        <pt x="631" y="845" on="1"/>
        <pt x="630" y="840" on="0"/>
        <pt x="627" y="832" on="0"/>
        <pt x="620" y="827" on="1"/>
        <pt x="601" y="811" on="0"/>
        <pt x="555" y="790" on="0"/>
        <pt x="523" y="790" on="1"/>
        <pt x="495" y="790" on="0"/>
        <pt x="452" y="809" on="0"/>
        <pt x="415" y="833" on="0"/>
        <pt x="377" y="852" on="0"/>
        <pt x="354" y="852" on="1"/>
        <pt x="329" y="852" on="0"/>
        <pt x="288" y="831" on="0"/>
        <pt x="263" y="808" on="1"/>
        <pt x="249" y="808" on="1"/>
        <pt x="253" y="823" on="0"/>
        <pt x="262" y="860" on="0"/>
        <pt x="266" y="874" on="1"/>
        <pt x="267" y="878" on="0"/>
        <pt x="270" y="886" on="0"/>
        <pt x="277" y="891" on="1"/>
        <pt x="297" y="908" on="0"/>
        <pt x="343" y="928" on="0"/>
        <pt x="374" y="928" on="1"/>
        <pt x="402" y="928" on="0"/>
        <pt x="445" y="909" on="0"/>
        <pt x="483" y="885" on="0"/>
        <pt x="521" y="866" on="0"/>
      </contour>
      <contour>
        <pt x="45" y="0" on="1"/>
        <pt x="-27" y="0" on="1"/>
        <pt x="-31" y="0" on="0"/>
        <pt x="-35" y="7" on="0"/>
        <pt x="-31" y="14" on="1"/>
        <pt x="73" y="214" on="0"/>
        <pt x="256" y="563" on="0"/>
        <pt x="335" y="707" on="1"/>
        <pt x="474" y="707" on="1"/>
        <pt x="478" y="707" on="0"/>
        <pt x="481" y="704" on="1"/>
        <pt x="483" y="700" on="0"/>
        <pt x="483" y="696" on="1"/>
        <pt x="490" y="535" on="0"/>
        <pt x="502" y="185" on="0"/>
        <pt x="507" y="0" on="1"/>
        <pt x="432" y="0" on="1"/>
        <pt x="428" y="0" on="0"/>
        <pt x="425" y="3" on="1"/>
        <pt x="424" y="5" on="0"/>
        <pt x="423" y="8" on="0"/>
        <pt x="422" y="16" on="1"/>
        <pt x="421" y="66" on="0"/>
        <pt x="419" y="160" on="0"/>
        <pt x="418" y="205" on="1"/>
        <pt x="150" y="205" on="1"/>
        <pt x="126" y="158" on="0"/>
        <pt x="73" y="56" on="0"/>
      </contour>
      <contour>
        <pt x="396" y="627" on="1"/>
        <pt x="376" y="627" on="1"/>
        <pt x="331" y="546" on="0"/>
        <pt x="241" y="379" on="0"/>
        <pt x="190" y="282" on="1"/>
        <pt x="415" y="282" on="1"/>
        <pt x="412" y="373" on="0"/>
        <pt x="405" y="541" on="0"/>
        <pt x="401" y="623" on="1"/>
        <pt x="401" y="627" on="0"/>
      </contour>
    </TTGlyph>
    <TTGlyph name="B" xMin="26" yMin="0" xMax="594" yMax="700">
      <contour>
        <pt x="506" y="168" on="1"/>
        <pt x="483" y="78" on="0"/>
        <pt x="354" y="0" on="0"/>
        <pt x="265" y="0" on="1"/>
        <pt x="37" y="0" on="1"/>
        <pt x="26" y="0" on="0"/>
        <pt x="29" y="11" on="1"/>
        <pt x="29" y="13" on="0"/>
        <pt x="30" y="14" on="1"/>
        <pt x="182" y="626" on="1"/>
        <pt x="131" y="626" on="1"/>
        <pt x="127" y="626" on="0"/>
        <pt x="124" y="629" on="1"/>
        <pt x="121" y="632" on="0"/>
        <pt x="123" y="637" on="1"/>
        <pt x="128" y="654" on="0"/>
        <pt x="135" y="686" on="0"/>
        <pt x="138" y="700" on="1"/>
        <pt x="415" y="700" on="1"/>
        <pt x="415" y="700" on="0"/>
        <pt x="416" y="700" on="1"/>
        <pt x="490" y="700" on="0"/>
        <pt x="571" y="654" on="0"/>
        <pt x="594" y="576" on="0"/>
        <pt x="583" y="529" on="1"/>
        <pt x="577" y="503" on="1"/>
        <pt x="547" y="385" on="0"/>
        <pt x="426" y="354" on="1"/>
        <pt x="483" y="335" on="0"/>
        <pt x="527" y="254" on="0"/>
        <pt x="513" y="198" on="1"/>
      </contour>
      <contour>
        <pt x="400" y="626" on="1"/>
        <pt x="265" y="626" on="1"/>
        <pt x="205" y="386" on="1"/>
        <pt x="317" y="386" on="1"/>
        <pt x="377" y="386" on="0"/>
        <pt x="447" y="413" on="0"/>
        <pt x="484" y="462" on="0"/>
        <pt x="492" y="495" on="1"/>
        <pt x="499" y="526" on="1"/>
        <pt x="511" y="573" on="0"/>
        <pt x="468" y="626" on="0"/>
      </contour>
      <contour>
        <pt x="301" y="324" on="1"/>
        <pt x="190" y="324" on="1"/>
        <pt x="127" y="74" on="1"/>
        <pt x="266" y="74" on="1"/>
        <pt x="335" y="74" on="0"/>
        <pt x="411" y="122" on="0"/>
        <pt x="424" y="174" on="1"/>
        <pt x="433" y="209" on="1"/>
        <pt x="441" y="239" on="0"/>
        <pt x="426" y="291" on="0"/>
        <pt x="364" y="324" on="0"/>
      </contour>
    </TTGlyph>
    <TTGlyph name="C" xMin="33" yMin="-20" xMax="625" yMax="720">
      <contour>
        <pt x="277" y="-20" on="1"/>
        <pt x="145" y="-20" on="0"/>
        <pt x="33" y="128" on="0"/>
        <pt x="65" y="257" on="1"/>
        <pt x="114" y="456" on="1"/>
        <pt x="149" y="592" on="0"/>
        <pt x="309" y="720" on="0"/>
        <pt x="431" y="720" on="1"/>
        <pt x="505" y="720" on="0"/>
        <pt x="602" y="682" on="0"/>
        <pt x="621" y="657" on="1"/>
        <pt x="625" y="651" on="0"/>
        <pt x="623" y="638" on="1"/>
        <pt x="585" y="487" on="1"/>
        <pt x="518" y="487" on="1"/>
        <pt x="512" y="487" on="0"/>
        <pt x="511" y="489" on="1"/>
        <pt x="508" y="492" on="0"/>
        <pt x="510" y="498" on="1"/>
        <pt x="540" y="618" on="1"/>
        <pt x="521" y="631" on="0"/>
        <pt x="466" y="646" on="0"/>
        <pt x="425" y="646" on="1"/>
        <pt x="335" y="646" on="0"/>
        <pt x="225" y="552" on="0"/>
        <pt x="199" y="447" on="1"/>
        <pt x="150" y="252" on="1"/>
        <pt x="126" y="158" on="0"/>
        <pt x="197" y="56" on="0"/>
        <pt x="287" y="56" on="1"/>
        <pt x="345" y="56" on="0"/>
        <pt x="433" y="88" on="0"/>
        <pt x="482" y="119" on="1"/>
        <pt x="497" y="119" on="1"/>
        <pt x="493" y="102" on="0"/>
        <pt x="483" y="65" on="0"/>
        <pt x="479" y="48" on="1"/>
        <pt x="477" y="41" on="0"/>
        <pt x="473" y="38" on="1"/>
        <pt x="441" y="12" on="0"/>
        <pt x="339" y="-20" on="0"/>
      </contour>
    </TTGlyph>
    <TTGlyph name="Cacute" xMin="32" yMin="-20" xMax="665" yMax="947">
      <contour>
        <pt x="478" y="775" on="1"/>
        <pt x="411" y="775" on="1"/>
        <pt x="451" y="820" on="0"/>
        <pt x="522" y="901" on="0"/>
        <pt x="563" y="947" on="1"/>
        <pt x="657" y="947" on="1"/>
        <pt x="663" y="947" on="0"/>
        <pt x="665" y="938" on="0"/>
        <pt x="660" y="933" on="1"/>
        <pt x="636" y="911" on="0"/>
        <pt x="600" y="878" on="0"/>
        <pt x="566" y="847" on="0"/>
        <pt x="525" y="809" on="0"/>
        <pt x="496" y="782" on="1"/>
        <pt x="493" y="780" on="0"/>
        <pt x="484" y="775" on="0"/>
      </contour>
      <contour>
        <pt x="258" y="-20" on="1"/>
        <pt x="132" y="-20" on="0"/>
        <pt x="32" y="124" on="0"/>
        <pt x="63" y="248" on="1"/>
        <pt x="111" y="439" on="1"/>
        <pt x="144" y="573" on="0"/>
        <pt x="318" y="720" on="0"/>
        <pt x="448" y="720" on="1"/>
        <pt x="518" y="720" on="0"/>
        <pt x="602" y="684" on="0"/>
        <pt x="622" y="657" on="1"/>
        <pt x="627" y="651" on="0"/>
        <pt x="623" y="638" on="1"/>
        <pt x="623" y="637" on="0"/>
        <pt x="622" y="636" on="1"/>
        <pt x="585" y="487" on="1"/>
        <pt x="518" y="487" on="1"/>
        <pt x="513" y="487" on="0"/>
        <pt x="511" y="490" on="1"/>
        <pt x="508" y="493" on="0"/>
        <pt x="510" y="498" on="1"/>
        <pt x="539" y="615" on="1"/>
        <pt x="521" y="628" on="0"/>
        <pt x="468" y="643" on="0"/>
        <pt x="428" y="643" on="1"/>
        <pt x="337" y="643" on="0"/>
        <pt x="223" y="544" on="0"/>
        <pt x="197" y="440" on="1"/>
        <pt x="151" y="256" on="1"/>
        <pt x="151" y="256" on="1"/>
        <pt x="127" y="161" on="0"/>
        <pt x="196" y="59" on="0"/>
        <pt x="278" y="59" on="1"/>
        <pt x="336" y="59" on="0"/>
        <pt x="432" y="87" on="0"/>
        <pt x="481" y="118" on="1"/>
        <pt x="496" y="118" on="1"/>
        <pt x="492" y="100" on="0"/>
        <pt x="483" y="64" on="0"/>
        <pt x="478" y="47" on="1"/>
        <pt x="476" y="41" on="0"/>
        <pt x="473" y="39" on="1"/>
        <pt x="441" y="13" on="0"/>
        <pt x="325" y="-20" on="0"/>
      </contour>
    </TTGlyph>
    <TTGlyph name="Ccaron" xMin="32" yMin="-20" xMax="710" yMax="945">
      <contour>
        <pt x="268" y="945" on="1"/>
        <pt x="342" y="945" on="1"/>
        <pt x="353" y="945" on="0"/>
        <pt x="364" y="941" on="0"/>
        <pt x="370" y="934" on="1"/>
        <pt x="383" y="923" on="0"/>
        <pt x="435" y="870" on="0"/>
        <pt x="468" y="838" on="1"/>
        <pt x="515" y="869" on="0"/>
        <pt x="595" y="921" on="0"/>
        <pt x="630" y="945" on="1"/>
        <pt x="698" y="945" on="1"/>
        <pt x="710" y="945" on="0"/>
        <pt x="708" y="938" on="1"/>
        <pt x="707" y="934" on="0"/>
        <pt x="698" y="926" on="0"/>
        <pt x="679" y="912" on="1"/>
        <pt x="664" y="901" on="0"/>
        <pt x="614" y="864" on="0"/>
        <pt x="557" y="822" on="0"/>
        <pt x="509" y="786" on="0"/>
        <pt x="495" y="776" on="1"/>
        <pt x="422" y="776" on="1"/>
        <pt x="415" y="776" on="0"/>
        <pt x="405" y="783" on="0"/>
        <pt x="393" y="796" on="1"/>
        <pt x="385" y="806" on="0"/>
        <pt x="341" y="859" on="0"/>
        <pt x="289" y="921" on="0"/>
      </contour>
      <contour>
        <pt x="258" y="-20" on="1"/>
        <pt x="132" y="-20" on="0"/>
        <pt x="32" y="124" on="0"/>
        <pt x="63" y="248" on="1"/>
        <pt x="111" y="439" on="1"/>
        <pt x="144" y="573" on="0"/>
        <pt x="318" y="720" on="0"/>
        <pt x="448" y="720" on="1"/>
        <pt x="518" y="720" on="0"/>
        <pt x="602" y="684" on="0"/>
        <pt x="622" y="657" on="1"/>
        <pt x="627" y="651" on="0"/>
        <pt x="623" y="638" on="1"/>
        <pt x="623" y="637" on="0"/>
        <pt x="622" y="636" on="1"/>
        <pt x="585" y="487" on="1"/>
        <pt x="518" y="487" on="1"/>
        <pt x="513" y="487" on="0"/>
        <pt x="511" y="490" on="1"/>
        <pt x="508" y="493" on="0"/>
        <pt x="510" y="498" on="1"/>
        <pt x="539" y="615" on="1"/>
        <pt x="521" y="628" on="0"/>
        <pt x="468" y="643" on="0"/>
        <pt x="428" y="643" on="1"/>
        <pt x="337" y="643" on="0"/>
        <pt x="223" y="544" on="0"/>
        <pt x="197" y="440" on="1"/>
        <pt x="151" y="256" on="1"/>
        <pt x="151" y="256" on="1"/>
        <pt x="127" y="161" on="0"/>
        <pt x="196" y="59" on="0"/>
        <pt x="278" y="59" on="1"/>
        <pt x="336" y="59" on="0"/>
        <pt x="432" y="87" on="0"/>
        <pt x="481" y="118" on="1"/>
        <pt x="496" y="118" on="1"/>
        <pt x="492" y="100" on="0"/>
        <pt x="483" y="64" on="0"/>
        <pt x="478" y="47" on="1"/>
        <pt x="476" y="41" on="0"/>
        <pt x="473" y="39" on="1"/>
        <pt x="441" y="13" on="0"/>
        <pt x="325" y="-20" on="0"/>
      </contour>
    </TTGlyph>
    <TTGlyph name="Ccedilla" xMin="34" yMin="-229" xMax="627" yMax="720">
      <contour>
        <pt x="337" y="-120" on="1"/>
        <pt x="325" y="-166" on="0"/>
        <pt x="243" y="-229" on="0"/>
        <pt x="178" y="-229" on="1"/>
        <pt x="135" y="-229" on="0"/>
        <pt x="102" y="-208" on="0"/>
        <pt x="104" y="-201" on="1"/>
        <pt x="108" y="-184" on="0"/>
        <pt x="116" y="-153" on="0"/>
        <pt x="119" y="-141" on="1"/>
        <pt x="131" y="-141" on="1"/>
        <pt x="141" y="-150" on="0"/>
        <pt x="166" y="-160" on="0"/>
        <pt x="191" y="-160" on="1"/>
        <pt x="222" y="-160" on="0"/>
        <pt x="264" y="-133" on="0"/>
        <pt x="270" y="-111" on="1"/>
        <pt x="275" y="-89" on="0"/>
        <pt x="254" y="-67" on="0"/>
        <pt x="213" y="-67" on="1"/>
        <pt x="208" y="-67" on="0"/>
        <pt x="205" y="-59" on="0"/>
        <pt x="208" y="-54" on="1"/>
        <pt x="213" y="-44" on="0"/>
        <pt x="222" y="-27" on="0"/>
        <pt x="226" y="-19" on="1"/>
        <pt x="118" y="-9" on="0"/>
        <pt x="34" y="132" on="0"/>
        <pt x="63" y="248" on="1"/>
        <pt x="111" y="439" on="1"/>
        <pt x="144" y="573" on="0"/>
        <pt x="318" y="720" on="0"/>
        <pt x="448" y="720" on="1"/>
        <pt x="518" y="720" on="0"/>
        <pt x="602" y="684" on="0"/>
        <pt x="622" y="657" on="1"/>
        <pt x="627" y="651" on="0"/>
        <pt x="623" y="638" on="1"/>
        <pt x="623" y="637" on="0"/>
        <pt x="622" y="636" on="1"/>
        <pt x="585" y="487" on="1"/>
        <pt x="518" y="487" on="1"/>
        <pt x="513" y="487" on="0"/>
        <pt x="511" y="490" on="1"/>
        <pt x="508" y="493" on="0"/>
        <pt x="510" y="498" on="1"/>
        <pt x="539" y="615" on="1"/>
        <pt x="521" y="628" on="0"/>
        <pt x="468" y="643" on="0"/>
        <pt x="428" y="643" on="1"/>
        <pt x="337" y="643" on="0"/>
        <pt x="223" y="544" on="0"/>
        <pt x="197" y="440" on="1"/>
        <pt x="151" y="256" on="1"/>
        <pt x="151" y="256" on="1"/>
        <pt x="127" y="161" on="0"/>
        <pt x="196" y="59" on="0"/>
        <pt x="278" y="59" on="1"/>
        <pt x="336" y="59" on="0"/>
        <pt x="432" y="87" on="0"/>
        <pt x="481" y="118" on="1"/>
        <pt x="496" y="118" on="1"/>
        <pt x="492" y="100" on="0"/>
        <pt x="483" y="64" on="0"/>
        <pt x="478" y="47" on="1"/>
        <pt x="476" y="41" on="0"/>
        <pt x="473" y="39" on="1"/>
        <pt x="443" y="15" on="0"/>
        <pt x="338" y="-17" on="0"/>
        <pt x="277" y="-20" on="1"/>
        <pt x="275" y="-24" on="0"/>
        <pt x="273" y="-29" on="1"/>
        <pt x="311" y="-33" on="0"/>
        <pt x="347" y="-80" on="0"/>
      </contour>
    </TTGlyph>
    <TTGlyph name="Ccircumflex" xMin="32" yMin="-20" xMax="677" yMax="945">
      <contour>
        <pt x="316" y="776" on="1"/>
        <pt x="247" y="776" on="1"/>
        <pt x="235" y="776" on="0"/>
        <pt x="237" y="783" on="1"/>
        <pt x="238" y="787" on="0"/>
        <pt x="248" y="796" on="0"/>
        <pt x="266" y="809" on="1"/>
        <pt x="281" y="820" on="0"/>
        <pt x="331" y="857" on="0"/>
        <pt x="388" y="899" on="0"/>
        <pt x="437" y="935" on="0"/>
        <pt x="451" y="945" on="1"/>
        <pt x="523" y="945" on="1"/>
        <pt x="531" y="945" on="0"/>
        <pt x="541" y="938" on="0"/>
        <pt x="552" y="925" on="1"/>
        <pt x="561" y="915" on="0"/>
        <pt x="605" y="862" on="0"/>
        <pt x="657" y="800" on="0"/>
        <pt x="677" y="776" on="1"/>
        <pt x="603" y="776" on="1"/>
        <pt x="592" y="776" on="0"/>
        <pt x="582" y="780" on="0"/>
        <pt x="575" y="786" on="1"/>
        <pt x="563" y="798" on="0"/>
        <pt x="510" y="850" on="0"/>
        <pt x="478" y="883" on="1"/>
        <pt x="430" y="851" on="0"/>
        <pt x="351" y="800" on="0"/>
      </contour>
      <contour>
        <pt x="258" y="-20" on="1"/>
        <pt x="132" y="-20" on="0"/>
        <pt x="32" y="124" on="0"/>
        <pt x="63" y="248" on="1"/>
        <pt x="111" y="439" on="1"/>
        <pt x="144" y="573" on="0"/>
        <pt x="318" y="720" on="0"/>
        <pt x="448" y="720" on="1"/>
        <pt x="518" y="720" on="0"/>
        <pt x="602" y="684" on="0"/>
        <pt x="622" y="657" on="1"/>
        <pt x="627" y="651" on="0"/>
        <pt x="623" y="638" on="1"/>
        <pt x="623" y="637" on="0"/>
        <pt x="622" y="636" on="1"/>
        <pt x="585" y="487" on="1"/>
        <pt x="518" y="487" on="1"/>
        <pt x="513" y="487" on="0"/>
        <pt x="511" y="490" on="1"/>
        <pt x="508" y="493" on="0"/>
        <pt x="510" y="498" on="1"/>
        <pt x="539" y="615" on="1"/>
        <pt x="521" y="628" on="0"/>
        <pt x="468" y="643" on="0"/>
        <pt x="428" y="643" on="1"/>
        <pt x="337" y="643" on="0"/>
        <pt x="223" y="544" on="0"/>
        <pt x="197" y="440" on="1"/>
        <pt x="151" y="256" on="1"/>
        <pt x="151" y="256" on="1"/>
        <pt x="127" y="161" on="0"/>
        <pt x="196" y="59" on="0"/>
        <pt x="278" y="59" on="1"/>
        <pt x="336" y="59" on="0"/>
        <pt x="432" y="87" on="0"/>
        <pt x="481" y="118" on="1"/>
        <pt x="496" y="118" on="1"/>
        <pt x="492" y="100" on="0"/>
        <pt x="483" y="64" on="0"/>
        <pt x="478" y="47" on="1"/>
        <pt x="476" y="41" on="0"/>
        <pt x="473" y="39" on="1"/>
        <pt x="441" y="13" on="0"/>
        <pt x="325" y="-20" on="0"/>
      </contour>
    </TTGlyph>
    <TTGlyph name="Cdotaccent" xMin="32" yMin="-20" xMax="627" yMax="903">
      <contour>
        <pt x="514" y="801" on="1"/>
        <pt x="414" y="801" on="1"/>
        <pt x="403" y="801" on="0"/>
        <pt x="405" y="812" on="1"/>
        <pt x="428" y="903" on="1"/>
        <pt x="528" y="903" on="1"/>
        <pt x="539" y="903" on="0"/>
        <pt x="537" y="892" on="1"/>
      </contour>
      <contour>
        <pt x="258" y="-20" on="1"/>
        <pt x="132" y="-20" on="0"/>
        <pt x="32" y="124" on="0"/>
        <pt x="63" y="248" on="1"/>
        <pt x="111" y="439" on="1"/>
        <pt x="144" y="573" on="0"/>
        <pt x="318" y="720" on="0"/>
        <pt x="448" y="720" on="1"/>
        <pt x="518" y="720" on="0"/>
        <pt x="602" y="684" on="0"/>
        <pt x="622" y="657" on="1"/>
        <pt x="627" y="651" on="0"/>
        <pt x="623" y="638" on="1"/>
        <pt x="623" y="637" on="0"/>
        <pt x="622" y="636" on="1"/>
        <pt x="585" y="487" on="1"/>
        <pt x="518" y="487" on="1"/>
        <pt x="513" y="487" on="0"/>
        <pt x="511" y="490" on="1"/>
        <pt x="508" y="493" on="0"/>
        <pt x="510" y="498" on="1"/>
        <pt x="539" y="615" on="1"/>
        <pt x="521" y="628" on="0"/>
        <pt x="468" y="643" on="0"/>
        <pt x="428" y="643" on="1"/>
        <pt x="337" y="643" on="0"/>
        <pt x="223" y="544" on="0"/>
        <pt x="197" y="440" on="1"/>
        <pt x="151" y="256" on="1"/>
        <pt x="151" y="256" on="1"/>
        <pt x="127" y="161" on="0"/>
        <pt x="196" y="59" on="0"/>
        <pt x="278" y="59" on="1"/>
        <pt x="336" y="59" on="0"/>
        <pt x="432" y="87" on="0"/>
        <pt x="481" y="118" on="1"/>
        <pt x="496" y="118" on="1"/>
        <pt x="492" y="100" on="0"/>
        <pt x="483" y="64" on="0"/>
        <pt x="478" y="47" on="1"/>
        <pt x="476" y="41" on="0"/>
        <pt x="473" y="39" on="1"/>
        <pt x="441" y="13" on="0"/>
        <pt x="325" y="-20" on="0"/>
      </contour>
    </TTGlyph>
    <TTGlyph name="D" xMin="26" yMin="0" xMax="597" yMax="700">
      <contour>
        <pt x="526" y="226" on="1"/>
        <pt x="498" y="114" on="0"/>
        <pt x="345" y="0" on="0"/>
        <pt x="217" y="0" on="1"/>
        <pt x="37" y="0" on="1"/>
        <pt x="26" y="0" on="0"/>
        <pt x="29" y="9" on="1"/>
        <pt x="29" y="10" on="0"/>
        <pt x="29" y="11" on="1"/>
        <pt x="30" y="17" on="0"/>
        <pt x="32" y="22" on="1"/>
        <pt x="182" y="626" on="1"/>
        <pt x="134" y="626" on="1"/>
        <pt x="130" y="626" on="0"/>
        <pt x="127" y="629" on="1"/>
        <pt x="124" y="632" on="0"/>
        <pt x="126" y="637" on="1"/>
        <pt x="131" y="654" on="0"/>
        <pt x="138" y="684" on="0"/>
        <pt x="142" y="700" on="1"/>
        <pt x="385" y="700" on="1"/>
        <pt x="386" y="700" on="0"/>
        <pt x="386" y="700" on="1"/>
        <pt x="386" y="700" on="0"/>
        <pt x="386" y="700" on="1"/>
        <pt x="438" y="700" on="0"/>
        <pt x="525" y="672" on="0"/>
        <pt x="581" y="610" on="0"/>
        <pt x="597" y="509" on="0"/>
        <pt x="579" y="436" on="1"/>
      </contour>
      <contour>
        <pt x="367" y="626" on="1"/>
        <pt x="267" y="626" on="1"/>
        <pt x="129" y="74" on="1"/>
        <pt x="230" y="74" on="1"/>
        <pt x="316" y="74" on="0"/>
        <pt x="423" y="150" on="0"/>
        <pt x="444" y="231" on="1"/>
        <pt x="497" y="444" on="1"/>
        <pt x="522" y="539" on="0"/>
        <pt x="459" y="626" on="0"/>
      </contour>
    </TTGlyph>
    <TTGlyph name="Dcaron" xMin="27" yMin="0" xMax="671" yMax="945">
      <contour>
        <pt x="228" y="945" on="1"/>
        <pt x="303" y="945" on="1"/>
        <pt x="314" y="945" on="0"/>
        <pt x="324" y="941" on="0"/>
        <pt x="330" y="934" on="1"/>
        <pt x="343" y="923" on="0"/>
        <pt x="396" y="870" on="0"/>
        <pt x="428" y="838" on="1"/>
        <pt x="476" y="869" on="0"/>
        <pt x="555" y="921" on="0"/>
        <pt x="590" y="945" on="1"/>
        <pt x="659" y="945" on="1"/>
        <pt x="671" y="945" on="0"/>
        <pt x="669" y="938" on="1"/>
        <pt x="668" y="934" on="0"/>
        <pt x="658" y="926" on="0"/>
        <pt x="639" y="912" on="1"/>
        <pt x="624" y="901" on="0"/>
        <pt x="574" y="864" on="0"/>
        <pt x="518" y="822" on="0"/>
        <pt x="469" y="786" on="0"/>
        <pt x="455" y="776" on="1"/>
        <pt x="382" y="776" on="1"/>
        <pt x="375" y="776" on="0"/>
        <pt x="365" y="783" on="0"/>
        <pt x="353" y="796" on="1"/>
        <pt x="345" y="806" on="0"/>
        <pt x="301" y="859" on="0"/>
        <pt x="249" y="921" on="0"/>
      </contour>
      <contour>
        <pt x="531" y="244" on="1"/>
        <pt x="503" y="129" on="0"/>
        <pt x="336" y="0" on="0"/>
        <pt x="217" y="0" on="1"/>
        <pt x="37" y="0" on="1"/>
        <pt x="33" y="0" on="0"/>
        <pt x="27" y="6" on="0"/>
        <pt x="29" y="9" on="1"/>
        <pt x="29" y="10" on="0"/>
        <pt x="29" y="11" on="1"/>
        <pt x="29" y="12" on="0"/>
        <pt x="30" y="13" on="1"/>
        <pt x="182" y="623" on="1"/>
        <pt x="134" y="623" on="1"/>
        <pt x="129" y="623" on="0"/>
        <pt x="126" y="626" on="1"/>
        <pt x="125" y="628" on="0"/>
        <pt x="125" y="634" on="1"/>
        <pt x="130" y="652" on="0"/>
        <pt x="138" y="683" on="0"/>
        <pt x="142" y="700" on="1"/>
        <pt x="385" y="700" on="1"/>
        <pt x="459" y="700" on="0"/>
        <pt x="566" y="656" on="0"/>
        <pt x="607" y="548" on="0"/>
        <pt x="583" y="452" on="1"/>
      </contour>
      <contour>
        <pt x="366" y="623" on="1"/>
        <pt x="266" y="623" on="1"/>
        <pt x="129" y="77" on="1"/>
        <pt x="231" y="77" on="1"/>
        <pt x="317" y="77" on="0"/>
        <pt x="428" y="165" on="0"/>
        <pt x="448" y="246" on="1"/>
        <pt x="499" y="453" on="1"/>
        <pt x="522" y="543" on="0"/>
        <pt x="459" y="623" on="0"/>
      </contour>
    </TTGlyph>
    <TTGlyph name="Dcroat" xMin="27" yMin="0" xMax="607" yMax="700">
      <contour>
        <pt x="52" y="389" on="1"/>
        <pt x="124" y="389" on="1"/>
        <pt x="182" y="623" on="1"/>
        <pt x="134" y="623" on="1"/>
        <pt x="129" y="623" on="0"/>
        <pt x="126" y="626" on="1"/>
        <pt x="125" y="628" on="0"/>
        <pt x="125" y="634" on="1"/>
        <pt x="130" y="652" on="0"/>
        <pt x="138" y="683" on="0"/>
        <pt x="142" y="700" on="1"/>
        <pt x="385" y="700" on="1"/>
        <pt x="459" y="700" on="0"/>
        <pt x="566" y="656" on="0"/>
        <pt x="607" y="548" on="0"/>
        <pt x="583" y="452" on="1"/>
        <pt x="531" y="244" on="1"/>
        <pt x="503" y="129" on="0"/>
        <pt x="336" y="0" on="0"/>
        <pt x="217" y="0" on="1"/>
        <pt x="37" y="0" on="1"/>
        <pt x="33" y="0" on="0"/>
        <pt x="27" y="6" on="0"/>
        <pt x="29" y="9" on="1"/>
        <pt x="29" y="10" on="0"/>
        <pt x="29" y="11" on="1"/>
        <pt x="29" y="12" on="0"/>
        <pt x="30" y="13" on="1"/>
        <pt x="108" y="325" on="1"/>
        <pt x="47" y="325" on="1"/>
        <pt x="36" y="325" on="0"/>
        <pt x="39" y="336" on="1"/>
        <pt x="42" y="350" on="0"/>
        <pt x="49" y="376" on="0"/>
      </contour>
      <contour>
        <pt x="372" y="325" on="1"/>
        <pt x="191" y="325" on="1"/>
        <pt x="129" y="77" on="1"/>
        <pt x="231" y="77" on="1"/>
        <pt x="317" y="77" on="0"/>
        <pt x="428" y="165" on="0"/>
        <pt x="448" y="246" on="1"/>
        <pt x="499" y="453" on="1"/>
        <pt x="522" y="543" on="0"/>
        <pt x="459" y="623" on="0"/>
        <pt x="366" y="623" on="1"/>
        <pt x="266" y="623" on="1"/>
        <pt x="207" y="389" on="1"/>
        <pt x="377" y="389" on="1"/>
        <pt x="389" y="389" on="0"/>
        <pt x="385" y="378" on="1"/>
        <pt x="382" y="365" on="0"/>
        <pt x="376" y="339" on="0"/>
      </contour>
    </TTGlyph>
    <TTGlyph name="E" xMin="25" yMin="0" xMax="641" yMax="700">
      <contour>
        <pt x="44" y="74" on="1"/>
        <pt x="182" y="626" on="1"/>
        <pt x="132" y="626" on="1"/>
        <pt x="127" y="626" on="0"/>
        <pt x="124" y="629" on="1"/>
        <pt x="121" y="632" on="0"/>
        <pt x="123" y="637" on="1"/>
        <pt x="128" y="654" on="0"/>
        <pt x="134" y="684" on="0"/>
        <pt x="138" y="700" on="1"/>
        <pt x="631" y="700" on="1"/>
        <pt x="636" y="700" on="0"/>
        <pt x="638" y="698" on="1"/>
        <pt x="641" y="695" on="0"/>
        <pt x="639" y="689" on="1"/>
        <pt x="635" y="673" on="0"/>
        <pt x="628" y="643" on="0"/>
        <pt x="623" y="626" on="1"/>
        <pt x="267" y="626" on="1"/>
        <pt x="208" y="392" on="1"/>
        <pt x="501" y="392" on="1"/>
        <pt x="507" y="392" on="0"/>
        <pt x="508" y="389" on="1"/>
        <pt x="511" y="386" on="0"/>
        <pt x="509" y="381" on="1"/>
        <pt x="505" y="365" on="0"/>
        <pt x="497" y="334" on="0"/>
        <pt x="494" y="320" on="1"/>
        <pt x="190" y="320" on="1"/>
        <pt x="129" y="74" on="1"/>
        <pt x="474" y="74" on="1"/>
        <pt x="485" y="74" on="0"/>
        <pt x="483" y="63" on="1"/>
        <pt x="478" y="45" on="0"/>
        <pt x="471" y="17" on="0"/>
        <pt x="467" y="0" on="1"/>
        <pt x="37" y="0" on="1"/>
        <pt x="25" y="0" on="0"/>
        <pt x="29" y="11" on="1"/>
      </contour>
    </TTGlyph>
    <TTGlyph name="Eacute" xMin="25" yMin="0" xMax="641" yMax="947">
      <contour>
        <pt x="454" y="775" on="1"/>
        <pt x="387" y="775" on="1"/>
        <pt x="427" y="820" on="0"/>
        <pt x="498" y="901" on="0"/>
        <pt x="539" y="947" on="1"/>
        <pt x="633" y="947" on="1"/>
        <pt x="639" y="947" on="0"/>
        <pt x="641" y="938" on="0"/>
        <pt x="636" y="933" on="1"/>
        <pt x="612" y="911" on="0"/>
        <pt x="576" y="878" on="0"/>
        <pt x="542" y="847" on="0"/>
        <pt x="501" y="809" on="0"/>
        <pt x="472" y="782" on="1"/>
        <pt x="469" y="780" on="0"/>
        <pt x="460" y="775" on="0"/>
      </contour>
      <contour>
        <pt x="45" y="77" on="1"/>
        <pt x="182" y="623" on="1"/>
        <pt x="131" y="623" on="1"/>
        <pt x="126" y="623" on="0"/>
        <pt x="123" y="626" on="1"/>
        <pt x="122" y="628" on="0"/>
        <pt x="122" y="634" on="1"/>
        <pt x="127" y="652" on="0"/>
        <pt x="135" y="683" on="0"/>
        <pt x="139" y="700" on="1"/>
        <pt x="631" y="700" on="1"/>
        <pt x="637" y="700" on="0"/>
        <pt x="638" y="697" on="1"/>
        <pt x="641" y="694" on="0"/>
        <pt x="639" y="689" on="1"/>
        <pt x="635" y="672" on="0"/>
        <pt x="628" y="641" on="0"/>
        <pt x="623" y="623" on="1"/>
        <pt x="266" y="623" on="1"/>
        <pt x="209" y="392" on="1"/>
        <pt x="501" y="392" on="1"/>
        <pt x="505" y="392" on="0"/>
        <pt x="508" y="389" on="1"/>
        <pt x="510" y="385" on="0"/>
        <pt x="509" y="381" on="1"/>
        <pt x="505" y="363" on="0"/>
        <pt x="497" y="333" on="0"/>
        <pt x="493" y="317" on="1"/>
        <pt x="190" y="317" on="1"/>
        <pt x="130" y="77" on="1"/>
        <pt x="475" y="77" on="1"/>
        <pt x="487" y="77" on="0"/>
        <pt x="483" y="66" on="1"/>
        <pt x="479" y="48" on="0"/>
        <pt x="472" y="17" on="0"/>
        <pt x="467" y="0" on="1"/>
        <pt x="37" y="0" on="1"/>
        <pt x="25" y="0" on="0"/>
        <pt x="29" y="11" on="1"/>
      </contour>
    </TTGlyph>
    <TTGlyph name="Ebreve" xMin="25" yMin="0" xMax="652" yMax="939">
      <contour>
        <pt x="354" y="939" on="1"/>
        <pt x="364" y="899" on="0"/>
        <pt x="408" y="868" on="0"/>
        <pt x="451" y="868" on="1"/>
        <pt x="494" y="868" on="0"/>
        <pt x="552" y="899" on="0"/>
        <pt x="583" y="939" on="1"/>
        <pt x="635" y="939" on="1"/>
        <pt x="652" y="939" on="0"/>
        <pt x="641" y="918" on="1"/>
        <pt x="614" y="866" on="0"/>
        <pt x="508" y="797" on="0"/>
        <pt x="446" y="797" on="1"/>
        <pt x="420" y="797" on="1"/>
        <pt x="358" y="797" on="0"/>
        <pt x="286" y="866" on="0"/>
        <pt x="285" y="918" on="1"/>
        <pt x="285" y="939" on="0"/>
        <pt x="302" y="939" on="1"/>
      </contour>
      <contour>
        <pt x="45" y="77" on="1"/>
        <pt x="182" y="623" on="1"/>
        <pt x="131" y="623" on="1"/>
        <pt x="126" y="623" on="0"/>
        <pt x="123" y="626" on="1"/>
        <pt x="122" y="628" on="0"/>
        <pt x="122" y="634" on="1"/>
        <pt x="127" y="652" on="0"/>
        <pt x="135" y="683" on="0"/>
        <pt x="139" y="700" on="1"/>
        <pt x="631" y="700" on="1"/>
        <pt x="637" y="700" on="0"/>
        <pt x="638" y="697" on="1"/>
        <pt x="641" y="694" on="0"/>
        <pt x="639" y="689" on="1"/>
        <pt x="635" y="672" on="0"/>
        <pt x="628" y="641" on="0"/>
        <pt x="623" y="623" on="1"/>
        <pt x="266" y="623" on="1"/>
        <pt x="209" y="392" on="1"/>
        <pt x="501" y="392" on="1"/>
        <pt x="505" y="392" on="0"/>
        <pt x="508" y="389" on="1"/>
        <pt x="510" y="385" on="0"/>
        <pt x="509" y="381" on="1"/>
        <pt x="505" y="363" on="0"/>
        <pt x="497" y="333" on="0"/>
        <pt x="493" y="317" on="1"/>
        <pt x="190" y="317" on="1"/>
        <pt x="130" y="77" on="1"/>
        <pt x="475" y="77" on="1"/>
        <pt x="487" y="77" on="0"/>
        <pt x="483" y="66" on="1"/>
        <pt x="479" y="48" on="0"/>
        <pt x="472" y="17" on="0"/>
        <pt x="467" y="0" on="1"/>
        <pt x="37" y="0" on="1"/>
        <pt x="25" y="0" on="0"/>
        <pt x="29" y="11" on="1"/>
      </contour>
    </TTGlyph>
    <TTGlyph name="Ecaron" xMin="25" yMin="0" xMax="686" yMax="945">
      <contour>
        <pt x="244" y="945" on="1"/>
        <pt x="318" y="945" on="1"/>
        <pt x="329" y="945" on="0"/>
        <pt x="340" y="941" on="0"/>
        <pt x="346" y="934" on="1"/>
        <pt x="359" y="923" on="0"/>
        <pt x="411" y="870" on="0"/>
        <pt x="444" y="838" on="1"/>
        <pt x="491" y="869" on="0"/>
        <pt x="570" y="921" on="0"/>
        <pt x="606" y="945" on="1"/>
        <pt x="674" y="945" on="1"/>
        <pt x="686" y="945" on="0"/>
        <pt x="684" y="938" on="1"/>
        <pt x="683" y="934" on="0"/>
        <pt x="674" y="926" on="0"/>
        <pt x="655" y="912" on="1"/>
        <pt x="640" y="901" on="0"/>
        <pt x="590" y="864" on="0"/>
        <pt x="533" y="822" on="0"/>
        <pt x="485" y="786" on="0"/>
        <pt x="471" y="776" on="1"/>
        <pt x="398" y="776" on="1"/>
        <pt x="391" y="776" on="0"/>
        <pt x="381" y="783" on="0"/>
        <pt x="369" y="796" on="1"/>
        <pt x="361" y="806" on="0"/>
        <pt x="317" y="859" on="0"/>
        <pt x="264" y="921" on="0"/>
      </contour>
      <contour>
        <pt x="45" y="77" on="1"/>
        <pt x="182" y="623" on="1"/>
        <pt x="131" y="623" on="1"/>
        <pt x="126" y="623" on="0"/>
        <pt x="123" y="626" on="1"/>
        <pt x="122" y="628" on="0"/>
        <pt x="122" y="634" on="1"/>
        <pt x="127" y="652" on="0"/>
        <pt x="135" y="683" on="0"/>
        <pt x="139" y="700" on="1"/>
        <pt x="631" y="700" on="1"/>
        <pt x="637" y="700" on="0"/>
        <pt x="638" y="697" on="1"/>
        <pt x="641" y="694" on="0"/>
        <pt x="639" y="689" on="1"/>
        <pt x="635" y="672" on="0"/>
        <pt x="628" y="641" on="0"/>
        <pt x="623" y="623" on="1"/>
        <pt x="266" y="623" on="1"/>
        <pt x="209" y="392" on="1"/>
        <pt x="501" y="392" on="1"/>
        <pt x="505" y="392" on="0"/>
        <pt x="508" y="389" on="1"/>
        <pt x="510" y="385" on="0"/>
        <pt x="509" y="381" on="1"/>
        <pt x="505" y="363" on="0"/>
        <pt x="497" y="333" on="0"/>
        <pt x="493" y="317" on="1"/>
        <pt x="190" y="317" on="1"/>
        <pt x="130" y="77" on="1"/>
        <pt x="475" y="77" on="1"/>
        <pt x="487" y="77" on="0"/>
        <pt x="483" y="66" on="1"/>
        <pt x="479" y="48" on="0"/>
        <pt x="472" y="17" on="0"/>
        <pt x="467" y="0" on="1"/>
        <pt x="37" y="0" on="1"/>
        <pt x="25" y="0" on="0"/>
        <pt x="29" y="11" on="1"/>
      </contour>
    </TTGlyph>
    <TTGlyph name="Ecircumflex" xMin="25" yMin="0" xMax="653" yMax="945">
      <contour>
        <pt x="291" y="776" on="1"/>
        <pt x="223" y="776" on="1"/>
        <pt x="211" y="776" on="0"/>
        <pt x="213" y="783" on="1"/>
        <pt x="214" y="787" on="0"/>
        <pt x="224" y="796" on="0"/>
        <pt x="242" y="809" on="1"/>
        <pt x="257" y="820" on="0"/>
        <pt x="307" y="857" on="0"/>
        <pt x="364" y="899" on="0"/>
        <pt x="413" y="935" on="0"/>
        <pt x="426" y="945" on="1"/>
        <pt x="499" y="945" on="1"/>
        <pt x="507" y="945" on="0"/>
        <pt x="517" y="938" on="0"/>
        <pt x="528" y="925" on="1"/>
        <pt x="537" y="915" on="0"/>
        <pt x="581" y="862" on="0"/>
        <pt x="633" y="800" on="0"/>
        <pt x="653" y="776" on="1"/>
        <pt x="579" y="776" on="1"/>
        <pt x="568" y="776" on="0"/>
        <pt x="558" y="780" on="0"/>
        <pt x="551" y="786" on="1"/>
        <pt x="539" y="798" on="0"/>
        <pt x="486" y="850" on="0"/>
        <pt x="454" y="883" on="1"/>
        <pt x="406" y="851" on="0"/>
        <pt x="327" y="800" on="0"/>
      </contour>
      <contour>
        <pt x="45" y="77" on="1"/>
        <pt x="182" y="623" on="1"/>
        <pt x="131" y="623" on="1"/>
        <pt x="126" y="623" on="0"/>
        <pt x="123" y="626" on="1"/>
        <pt x="122" y="628" on="0"/>
        <pt x="122" y="634" on="1"/>
        <pt x="127" y="652" on="0"/>
        <pt x="135" y="683" on="0"/>
        <pt x="139" y="700" on="1"/>
        <pt x="631" y="700" on="1"/>
        <pt x="637" y="700" on="0"/>
        <pt x="638" y="697" on="1"/>
        <pt x="641" y="694" on="0"/>
        <pt x="639" y="689" on="1"/>
        <pt x="635" y="672" on="0"/>
        <pt x="628" y="641" on="0"/>
        <pt x="623" y="623" on="1"/>
        <pt x="266" y="623" on="1"/>
        <pt x="209" y="392" on="1"/>
        <pt x="501" y="392" on="1"/>
        <pt x="505" y="392" on="0"/>
        <pt x="508" y="389" on="1"/>
        <pt x="510" y="385" on="0"/>
        <pt x="509" y="381" on="1"/>
        <pt x="505" y="363" on="0"/>
        <pt x="497" y="333" on="0"/>
        <pt x="493" y="317" on="1"/>
        <pt x="190" y="317" on="1"/>
        <pt x="130" y="77" on="1"/>
        <pt x="475" y="77" on="1"/>
        <pt x="487" y="77" on="0"/>
        <pt x="483" y="66" on="1"/>
        <pt x="479" y="48" on="0"/>
        <pt x="472" y="17" on="0"/>
        <pt x="467" y="0" on="1"/>
        <pt x="37" y="0" on="1"/>
        <pt x="25" y="0" on="0"/>
        <pt x="29" y="11" on="1"/>
      </contour>
    </TTGlyph>
    <TTGlyph name="Edieresis" xMin="25" yMin="0" xMax="641" yMax="903">
      <contour>
        <pt x="383" y="802" on="1"/>
        <pt x="290" y="802" on="1"/>
        <pt x="278" y="802" on="0"/>
        <pt x="282" y="813" on="1"/>
        <pt x="304" y="903" on="1"/>
        <pt x="397" y="903" on="1"/>
        <pt x="409" y="903" on="0"/>
        <pt x="405" y="892" on="1"/>
      </contour>
      <contour>
        <pt x="589" y="802" on="1"/>
        <pt x="496" y="802" on="1"/>
        <pt x="486" y="802" on="0"/>
        <pt x="488" y="813" on="1"/>
        <pt x="511" y="903" on="1"/>
        <pt x="603" y="903" on="1"/>
        <pt x="614" y="903" on="0"/>
        <pt x="612" y="892" on="1"/>
      </contour>
      <contour>
        <pt x="45" y="77" on="1"/>
        <pt x="182" y="623" on="1"/>
        <pt x="131" y="623" on="1"/>
        <pt x="126" y="623" on="0"/>
        <pt x="123" y="626" on="1"/>
        <pt x="122" y="628" on="0"/>
        <pt x="122" y="634" on="1"/>
        <pt x="127" y="652" on="0"/>
        <pt x="135" y="683" on="0"/>
        <pt x="139" y="700" on="1"/>
        <pt x="631" y="700" on="1"/>
        <pt x="637" y="700" on="0"/>
        <pt x="638" y="697" on="1"/>
        <pt x="641" y="694" on="0"/>
        <pt x="639" y="689" on="1"/>
        <pt x="635" y="672" on="0"/>
        <pt x="628" y="641" on="0"/>
        <pt x="623" y="623" on="1"/>
        <pt x="266" y="623" on="1"/>
        <pt x="209" y="392" on="1"/>
        <pt x="501" y="392" on="1"/>
        <pt x="505" y="392" on="0"/>
        <pt x="508" y="389" on="1"/>
        <pt x="510" y="385" on="0"/>
        <pt x="509" y="381" on="1"/>
        <pt x="505" y="363" on="0"/>
        <pt x="497" y="333" on="0"/>
        <pt x="493" y="317" on="1"/>
        <pt x="190" y="317" on="1"/>
        <pt x="130" y="77" on="1"/>
        <pt x="475" y="77" on="1"/>
        <pt x="487" y="77" on="0"/>
        <pt x="483" y="66" on="1"/>
        <pt x="479" y="48" on="0"/>
        <pt x="472" y="17" on="0"/>
        <pt x="467" y="0" on="1"/>
        <pt x="37" y="0" on="1"/>
        <pt x="25" y="0" on="0"/>
        <pt x="29" y="11" on="1"/>
      </contour>
    </TTGlyph>
    <TTGlyph name="Edotaccent" xMin="25" yMin="0" xMax="641" yMax="903">
      <contour>
        <pt x="490" y="801" on="1"/>
        <pt x="389" y="801" on="1"/>
        <pt x="379" y="801" on="0"/>
        <pt x="381" y="812" on="1"/>
        <pt x="404" y="903" on="1"/>
        <pt x="504" y="903" on="1"/>
        <pt x="516" y="903" on="0"/>
        <pt x="512" y="892" on="1"/>
      </contour>
      <contour>
        <pt x="45" y="77" on="1"/>
        <pt x="182" y="623" on="1"/>
        <pt x="131" y="623" on="1"/>
        <pt x="126" y="623" on="0"/>
        <pt x="123" y="626" on="1"/>
        <pt x="122" y="628" on="0"/>
        <pt x="122" y="634" on="1"/>
        <pt x="127" y="652" on="0"/>
        <pt x="135" y="683" on="0"/>
        <pt x="139" y="700" on="1"/>
        <pt x="631" y="700" on="1"/>
        <pt x="637" y="700" on="0"/>
        <pt x="638" y="697" on="1"/>
        <pt x="641" y="694" on="0"/>
        <pt x="639" y="689" on="1"/>
        <pt x="635" y="672" on="0"/>
        <pt x="628" y="641" on="0"/>
        <pt x="623" y="623" on="1"/>
        <pt x="266" y="623" on="1"/>
        <pt x="209" y="392" on="1"/>
        <pt x="501" y="392" on="1"/>
        <pt x="505" y="392" on="0"/>
        <pt x="508" y="389" on="1"/>
        <pt x="510" y="385" on="0"/>
        <pt x="509" y="381" on="1"/>
        <pt x="505" y="363" on="0"/>
        <pt x="497" y="333" on="0"/>
        <pt x="493" y="317" on="1"/>
        <pt x="190" y="317" on="1"/>
        <pt x="130" y="77" on="1"/>
        <pt x="475" y="77" on="1"/>
        <pt x="487" y="77" on="0"/>
        <pt x="483" y="66" on="1"/>
        <pt x="479" y="48" on="0"/>
        <pt x="472" y="17" on="0"/>
        <pt x="467" y="0" on="1"/>
        <pt x="37" y="0" on="1"/>
        <pt x="25" y="0" on="0"/>
        <pt x="29" y="11" on="1"/>
      </contour>
    </TTGlyph>
    <TTGlyph name="Edotbelow" xMin="25" yMin="-204" xMax="641" yMax="700">
      <contour>
        <pt x="45" y="77" on="1"/>
        <pt x="182" y="623" on="1"/>
        <pt x="131" y="623" on="1"/>
        <pt x="126" y="623" on="0"/>
        <pt x="123" y="626" on="1"/>
        <pt x="122" y="628" on="0"/>
        <pt x="122" y="634" on="1"/>
        <pt x="127" y="652" on="0"/>
        <pt x="135" y="683" on="0"/>
        <pt x="139" y="700" on="1"/>
        <pt x="631" y="700" on="1"/>
        <pt x="637" y="700" on="0"/>
        <pt x="638" y="697" on="1"/>
        <pt x="641" y="694" on="0"/>
        <pt x="639" y="689" on="1"/>
        <pt x="635" y="672" on="0"/>
        <pt x="628" y="641" on="0"/>
        <pt x="623" y="623" on="1"/>
        <pt x="266" y="623" on="1"/>
        <pt x="209" y="392" on="1"/>
        <pt x="501" y="392" on="1"/>
        <pt x="505" y="392" on="0"/>
        <pt x="508" y="389" on="1"/>
        <pt x="510" y="385" on="0"/>
        <pt x="509" y="381" on="1"/>
        <pt x="505" y="363" on="0"/>
        <pt x="497" y="333" on="0"/>
        <pt x="493" y="317" on="1"/>
        <pt x="190" y="317" on="1"/>
        <pt x="130" y="77" on="1"/>
        <pt x="475" y="77" on="1"/>
        <pt x="487" y="77" on="0"/>
        <pt x="483" y="66" on="1"/>
        <pt x="479" y="48" on="0"/>
        <pt x="472" y="17" on="0"/>
        <pt x="467" y="0" on="1"/>
        <pt x="37" y="0" on="1"/>
        <pt x="25" y="0" on="0"/>
        <pt x="29" y="11" on="1"/>
      </contour>
      <contour>
        <pt x="258" y="-204" on="1"/>
        <pt x="158" y="-204" on="1"/>
        <pt x="146" y="-204" on="0"/>
        <pt x="150" y="-193" on="1"/>
        <pt x="173" y="-102" on="1"/>
        <pt x="273" y="-102" on="1"/>
        <pt x="285" y="-102" on="0"/>
        <pt x="281" y="-113" on="1"/>
      </contour>
    </TTGlyph>
    <TTGlyph name="Egrave" xMin="25" yMin="0" xMax="641" yMax="948">
      <contour>
        <pt x="468" y="776" on="1"/>
        <pt x="402" y="776" on="1"/>
        <pt x="391" y="776" on="0"/>
        <pt x="387" y="783" on="1"/>
        <pt x="366" y="819" on="0"/>
        <pt x="339" y="864" on="0"/>
        <pt x="316" y="904" on="0"/>
        <pt x="298" y="933" on="1"/>
        <pt x="295" y="938" on="0"/>
        <pt x="303" y="948" on="0"/>
        <pt x="309" y="948" on="1"/>
        <pt x="402" y="948" on="1"/>
        <pt x="420" y="902" on="0"/>
        <pt x="451" y="821" on="0"/>
      </contour>
      <contour>
        <pt x="45" y="77" on="1"/>
        <pt x="182" y="623" on="1"/>
        <pt x="131" y="623" on="1"/>
        <pt x="126" y="623" on="0"/>
        <pt x="123" y="626" on="1"/>
        <pt x="122" y="628" on="0"/>
        <pt x="122" y="634" on="1"/>
        <pt x="127" y="652" on="0"/>
        <pt x="135" y="683" on="0"/>
        <pt x="139" y="700" on="1"/>
        <pt x="631" y="700" on="1"/>
        <pt x="637" y="700" on="0"/>
        <pt x="638" y="697" on="1"/>
        <pt x="641" y="694" on="0"/>
        <pt x="639" y="689" on="1"/>
        <pt x="635" y="672" on="0"/>
        <pt x="628" y="641" on="0"/>
        <pt x="623" y="623" on="1"/>
        <pt x="266" y="623" on="1"/>
        <pt x="209" y="392" on="1"/>
        <pt x="501" y="392" on="1"/>
        <pt x="505" y="392" on="0"/>
        <pt x="508" y="389" on="1"/>
        <pt x="510" y="385" on="0"/>
        <pt x="509" y="381" on="1"/>
        <pt x="505" y="363" on="0"/>
        <pt x="497" y="333" on="0"/>
        <pt x="493" y="317" on="1"/>
        <pt x="190" y="317" on="1"/>
        <pt x="130" y="77" on="1"/>
        <pt x="475" y="77" on="1"/>
        <pt x="487" y="77" on="0"/>
        <pt x="483" y="66" on="1"/>
        <pt x="479" y="48" on="0"/>
        <pt x="472" y="17" on="0"/>
        <pt x="467" y="0" on="1"/>
        <pt x="37" y="0" on="1"/>
        <pt x="25" y="0" on="0"/>
        <pt x="29" y="11" on="1"/>
      </contour>
    </TTGlyph>
    <TTGlyph name="Emacron" xMin="25" yMin="0" xMax="641" yMax="881">
      <contour>
        <pt x="278" y="881" on="1"/>
        <pt x="619" y="881" on="1"/>
        <pt x="631" y="881" on="0"/>
        <pt x="627" y="870" on="1"/>
        <pt x="623" y="854" on="0"/>
        <pt x="616" y="824" on="0"/>
        <pt x="612" y="808" on="1"/>
        <pt x="271" y="808" on="1"/>
        <pt x="259" y="808" on="0"/>
        <pt x="263" y="819" on="1"/>
        <pt x="267" y="835" on="0"/>
        <pt x="274" y="865" on="0"/>
      </contour>
      <contour>
        <pt x="45" y="77" on="1"/>
        <pt x="182" y="623" on="1"/>
        <pt x="131" y="623" on="1"/>
        <pt x="126" y="623" on="0"/>
        <pt x="123" y="626" on="1"/>
        <pt x="122" y="628" on="0"/>
        <pt x="122" y="634" on="1"/>
        <pt x="127" y="652" on="0"/>
        <pt x="135" y="683" on="0"/>
        <pt x="139" y="700" on="1"/>
        <pt x="631" y="700" on="1"/>
        <pt x="637" y="700" on="0"/>
        <pt x="638" y="697" on="1"/>
        <pt x="641" y="694" on="0"/>
        <pt x="639" y="689" on="1"/>
        <pt x="635" y="672" on="0"/>
        <pt x="628" y="641" on="0"/>
        <pt x="623" y="623" on="1"/>
        <pt x="266" y="623" on="1"/>
        <pt x="209" y="392" on="1"/>
        <pt x="501" y="392" on="1"/>
        <pt x="505" y="392" on="0"/>
        <pt x="508" y="389" on="1"/>
        <pt x="510" y="385" on="0"/>
        <pt x="509" y="381" on="1"/>
        <pt x="505" y="363" on="0"/>
        <pt x="497" y="333" on="0"/>
        <pt x="493" y="317" on="1"/>
        <pt x="190" y="317" on="1"/>
        <pt x="130" y="77" on="1"/>
        <pt x="475" y="77" on="1"/>
        <pt x="487" y="77" on="0"/>
        <pt x="483" y="66" on="1"/>
        <pt x="479" y="48" on="0"/>
        <pt x="472" y="17" on="0"/>
        <pt x="467" y="0" on="1"/>
        <pt x="37" y="0" on="1"/>
        <pt x="25" y="0" on="0"/>
        <pt x="29" y="11" on="1"/>
      </contour>
    </TTGlyph>
    <TTGlyph name="Eng" xMin="8" yMin="-250" xMax="633" yMax="700">
      <contour>
        <pt x="90" y="0" on="1"/>
        <pt x="20" y="0" on="1"/>
        <pt x="8" y="0" on="0"/>
        <pt x="12" y="11" on="1"/>
        <pt x="149" y="560" on="1"/>
        <pt x="158" y="595" on="0"/>
        <pt x="175" y="665" on="0"/>
        <pt x="184" y="700" on="1"/>
        <pt x="273" y="700" on="1"/>
        <pt x="285" y="700" on="0"/>
        <pt x="287" y="690" on="1"/>
        <pt x="318" y="555" on="0"/>
        <pt x="382" y="282" on="0"/>
        <pt x="415" y="146" on="1"/>
        <pt x="417" y="159" on="0"/>
        <pt x="418" y="161" on="1"/>
        <pt x="552" y="700" on="1"/>
        <pt x="623" y="700" on="1"/>
        <pt x="633" y="700" on="0"/>
        <pt x="631" y="689" on="1"/>
        <pt x="459" y="0" on="1"/>
        <pt x="429" y="-120" on="0"/>
        <pt x="285" y="-250" on="0"/>
        <pt x="173" y="-250" on="1"/>
        <pt x="127" y="-250" on="0"/>
        <pt x="55" y="-230" on="0"/>
        <pt x="47" y="-220" on="1"/>
        <pt x="44" y="-217" on="0"/>
        <pt x="46" y="-212" on="1"/>
        <pt x="50" y="-195" on="0"/>
        <pt x="59" y="-161" on="0"/>
        <pt x="63" y="-144" on="1"/>
        <pt x="77" y="-144" on="1"/>
        <pt x="101" y="-157" on="0"/>
        <pt x="155" y="-171" on="0"/>
        <pt x="192" y="-171" on="1"/>
        <pt x="264" y="-171" on="0"/>
        <pt x="356" y="-89" on="0"/>
        <pt x="380" y="0" on="1"/>
        <pt x="378" y="0" on="1"/>
        <pt x="369" y="0" on="0"/>
        <pt x="366" y="7" on="1"/>
        <pt x="332" y="149" on="0"/>
        <pt x="264" y="434" on="0"/>
        <pt x="231" y="576" on="1"/>
        <pt x="227" y="557" on="0"/>
        <pt x="222" y="529" on="0"/>
        <pt x="221" y="525" on="1"/>
      </contour>
    </TTGlyph>
    <TTGlyph name="Eogonek" xMin="25" yMin="-251" xMax="641" yMax="700">
      <contour>
        <pt x="45" y="77" on="1"/>
        <pt x="182" y="623" on="1"/>
        <pt x="131" y="623" on="1"/>
        <pt x="126" y="623" on="0"/>
        <pt x="123" y="626" on="1"/>
        <pt x="122" y="628" on="0"/>
        <pt x="122" y="634" on="1"/>
        <pt x="127" y="652" on="0"/>
        <pt x="135" y="683" on="0"/>
        <pt x="139" y="700" on="1"/>
        <pt x="631" y="700" on="1"/>
        <pt x="637" y="700" on="0"/>
        <pt x="638" y="697" on="1"/>
        <pt x="641" y="694" on="0"/>
        <pt x="639" y="689" on="1"/>
        <pt x="635" y="672" on="0"/>
        <pt x="628" y="641" on="0"/>
        <pt x="623" y="623" on="1"/>
        <pt x="266" y="623" on="1"/>
        <pt x="209" y="392" on="1"/>
        <pt x="501" y="392" on="1"/>
        <pt x="505" y="392" on="0"/>
        <pt x="508" y="389" on="1"/>
        <pt x="510" y="385" on="0"/>
        <pt x="509" y="381" on="1"/>
        <pt x="505" y="363" on="0"/>
        <pt x="497" y="333" on="0"/>
        <pt x="493" y="317" on="1"/>
        <pt x="190" y="317" on="1"/>
        <pt x="130" y="77" on="1"/>
        <pt x="475" y="77" on="1"/>
        <pt x="487" y="77" on="0"/>
        <pt x="483" y="66" on="1"/>
        <pt x="479" y="48" on="0"/>
        <pt x="472" y="17" on="0"/>
        <pt x="467" y="0" on="1"/>
        <pt x="466" y="0" on="1"/>
        <pt x="466" y="-1" on="1"/>
        <pt x="465" y="-8" on="0"/>
        <pt x="452" y="-12" on="1"/>
        <pt x="376" y="-28" on="0"/>
        <pt x="306" y="-86" on="0"/>
        <pt x="298" y="-118" on="1"/>
        <pt x="291" y="-146" on="0"/>
        <pt x="317" y="-173" on="0"/>
        <pt x="342" y="-173" on="1"/>
        <pt x="379" y="-173" on="0"/>
        <pt x="410" y="-153" on="1"/>
        <pt x="424" y="-153" on="1"/>
        <pt x="422" y="-164" on="0"/>
        <pt x="415" y="-191" on="0"/>
        <pt x="408" y="-217" on="1"/>
        <pt x="405" y="-229" on="0"/>
        <pt x="354" y="-251" on="0"/>
        <pt x="318" y="-251" on="1"/>
        <pt x="258" y="-251" on="0"/>
        <pt x="204" y="-190" on="0"/>
        <pt x="217" y="-137" on="1"/>
        <pt x="229" y="-87" on="0"/>
        <pt x="299" y="-19" on="0"/>
        <pt x="341" y="0" on="1"/>
        <pt x="37" y="0" on="1"/>
        <pt x="25" y="0" on="0"/>
        <pt x="29" y="11" on="1"/>
      </contour>
    </TTGlyph>
    <TTGlyph name="Eth" xMin="27" yMin="0" xMax="607" yMax="700">
      <contour>
        <pt x="52" y="389" on="1"/>
        <pt x="124" y="389" on="1"/>
        <pt x="182" y="623" on="1"/>
        <pt x="134" y="623" on="1"/>
        <pt x="129" y="623" on="0"/>
        <pt x="126" y="626" on="1"/>
        <pt x="125" y="628" on="0"/>
        <pt x="125" y="634" on="1"/>
        <pt x="130" y="652" on="0"/>
        <pt x="138" y="683" on="0"/>
        <pt x="142" y="700" on="1"/>
        <pt x="385" y="700" on="1"/>
        <pt x="459" y="700" on="0"/>
        <pt x="566" y="656" on="0"/>
        <pt x="607" y="548" on="0"/>
        <pt x="583" y="452" on="1"/>
        <pt x="531" y="244" on="1"/>
        <pt x="503" y="129" on="0"/>
        <pt x="336" y="0" on="0"/>
        <pt x="217" y="0" on="1"/>
        <pt x="37" y="0" on="1"/>
        <pt x="33" y="0" on="0"/>
        <pt x="27" y="6" on="0"/>
        <pt x="29" y="9" on="1"/>
        <pt x="29" y="10" on="0"/>
        <pt x="29" y="11" on="1"/>
        <pt x="29" y="12" on="0"/>
        <pt x="30" y="13" on="1"/>
        <pt x="108" y="325" on="1"/>
        <pt x="47" y="325" on="1"/>
        <pt x="36" y="325" on="0"/>
        <pt x="39" y="336" on="1"/>
        <pt x="42" y="350" on="0"/>
        <pt x="49" y="376" on="0"/>
      </contour>
      <contour>
        <pt x="372" y="325" on="1"/>
        <pt x="191" y="325" on="1"/>
        <pt x="129" y="77" on="1"/>
        <pt x="231" y="77" on="1"/>
        <pt x="317" y="77" on="0"/>
        <pt x="428" y="165" on="0"/>
        <pt x="448" y="246" on="1"/>
        <pt x="499" y="453" on="1"/>
        <pt x="522" y="543" on="0"/>
        <pt x="459" y="623" on="0"/>
        <pt x="366" y="623" on="1"/>
        <pt x="266" y="623" on="1"/>
        <pt x="207" y="389" on="1"/>
        <pt x="377" y="389" on="1"/>
        <pt x="389" y="389" on="0"/>
        <pt x="385" y="378" on="1"/>
        <pt x="382" y="365" on="0"/>
        <pt x="376" y="339" on="0"/>
      </contour>
    </TTGlyph>
    <TTGlyph name="Etilde" xMin="25" yMin="0" xMax="648" yMax="928">
      <contour>
        <pt x="543" y="866" on="1"/>
        <pt x="569" y="866" on="0"/>
        <pt x="609" y="888" on="0"/>
        <pt x="634" y="911" on="1"/>
        <pt x="648" y="911" on="1"/>
        <pt x="644" y="896" on="0"/>
        <pt x="635" y="859" on="0"/>
        <pt x="631" y="845" on="1"/>
        <pt x="630" y="840" on="0"/>
        <pt x="627" y="832" on="0"/>
        <pt x="620" y="827" on="1"/>
        <pt x="601" y="811" on="0"/>
        <pt x="555" y="790" on="0"/>
        <pt x="523" y="790" on="1"/>
        <pt x="495" y="790" on="0"/>
        <pt x="452" y="809" on="0"/>
        <pt x="415" y="833" on="0"/>
        <pt x="377" y="852" on="0"/>
        <pt x="354" y="852" on="1"/>
        <pt x="329" y="852" on="0"/>
        <pt x="288" y="831" on="0"/>
        <pt x="263" y="808" on="1"/>
        <pt x="249" y="808" on="1"/>
        <pt x="253" y="823" on="0"/>
        <pt x="262" y="860" on="0"/>
        <pt x="266" y="874" on="1"/>
        <pt x="267" y="878" on="0"/>
        <pt x="270" y="886" on="0"/>
        <pt x="277" y="891" on="1"/>
        <pt x="297" y="908" on="0"/>
        <pt x="343" y="928" on="0"/>
        <pt x="374" y="928" on="1"/>
        <pt x="402" y="928" on="0"/>
        <pt x="445" y="909" on="0"/>
        <pt x="483" y="885" on="0"/>
        <pt x="521" y="866" on="0"/>
      </contour>
      <contour>
        <pt x="45" y="77" on="1"/>
        <pt x="182" y="623" on="1"/>
        <pt x="131" y="623" on="1"/>
        <pt x="126" y="623" on="0"/>
        <pt x="123" y="626" on="1"/>
        <pt x="122" y="628" on="0"/>
        <pt x="122" y="634" on="1"/>
        <pt x="127" y="652" on="0"/>
        <pt x="135" y="683" on="0"/>
        <pt x="139" y="700" on="1"/>
        <pt x="631" y="700" on="1"/>
        <pt x="637" y="700" on="0"/>
        <pt x="638" y="697" on="1"/>
        <pt x="641" y="694" on="0"/>
        <pt x="639" y="689" on="1"/>
        <pt x="635" y="672" on="0"/>
        <pt x="628" y="641" on="0"/>
        <pt x="623" y="623" on="1"/>
        <pt x="266" y="623" on="1"/>
        <pt x="209" y="392" on="1"/>
        <pt x="501" y="392" on="1"/>
        <pt x="505" y="392" on="0"/>
        <pt x="508" y="389" on="1"/>
        <pt x="510" y="385" on="0"/>
        <pt x="509" y="381" on="1"/>
        <pt x="505" y="363" on="0"/>
        <pt x="497" y="333" on="0"/>
        <pt x="493" y="317" on="1"/>
        <pt x="190" y="317" on="1"/>
        <pt x="130" y="77" on="1"/>
        <pt x="475" y="77" on="1"/>
        <pt x="487" y="77" on="0"/>
        <pt x="483" y="66" on="1"/>
        <pt x="479" y="48" on="0"/>
        <pt x="472" y="17" on="0"/>
        <pt x="467" y="0" on="1"/>
        <pt x="37" y="0" on="1"/>
        <pt x="25" y="0" on="0"/>
        <pt x="29" y="11" on="1"/>
      </contour>
    </TTGlyph>
    <TTGlyph name="Euro" xMin="10" yMin="-20" xMax="625" yMax="720">
      <contour>
        <pt x="258" y="-20" on="1"/>
        <pt x="140" y="-20" on="0"/>
        <pt x="36" y="113" on="0"/>
        <pt x="58" y="225" on="1"/>
        <pt x="22" y="225" on="1"/>
        <pt x="10" y="225" on="0"/>
        <pt x="14" y="236" on="1"/>
        <pt x="17" y="250" on="0"/>
        <pt x="24" y="276" on="0"/>
        <pt x="27" y="289" on="1"/>
        <pt x="73" y="289" on="1"/>
        <pt x="100" y="394" on="1"/>
        <pt x="64" y="394" on="1"/>
        <pt x="53" y="394" on="0"/>
        <pt x="56" y="405" on="1"/>
        <pt x="59" y="419" on="0"/>
        <pt x="66" y="445" on="0"/>
        <pt x="69" y="458" on="1"/>
        <pt x="116" y="458" on="1"/>
        <pt x="152" y="583" on="0"/>
        <pt x="322" y="720" on="0"/>
        <pt x="448" y="720" on="1"/>
        <pt x="517" y="720" on="0"/>
        <pt x="601" y="685" on="0"/>
        <pt x="621" y="658" on="1"/>
        <pt x="624" y="654" on="0"/>
        <pt x="625" y="646" on="0"/>
        <pt x="623" y="637" on="1"/>
        <pt x="599" y="542" on="1"/>
        <pt x="532" y="542" on="1"/>
        <pt x="520" y="542" on="0"/>
        <pt x="524" y="553" on="1"/>
        <pt x="540" y="616" on="1"/>
        <pt x="521" y="630" on="0"/>
        <pt x="468" y="645" on="0"/>
        <pt x="428" y="645" on="1"/>
        <pt x="342" y="645" on="0"/>
        <pt x="229" y="554" on="0"/>
        <pt x="202" y="458" on="1"/>
        <pt x="413" y="458" on="1"/>
        <pt x="425" y="458" on="0"/>
        <pt x="421" y="447" on="1"/>
        <pt x="418" y="434" on="0"/>
        <pt x="412" y="408" on="0"/>
        <pt x="408" y="394" on="1"/>
        <pt x="185" y="394" on="1"/>
        <pt x="159" y="289" on="1"/>
        <pt x="371" y="289" on="1"/>
        <pt x="377" y="289" on="0"/>
        <pt x="378" y="286" on="1"/>
        <pt x="381" y="283" on="0"/>
        <pt x="379" y="278" on="1"/>
        <pt x="376" y="265" on="0"/>
        <pt x="369" y="239" on="0"/>
        <pt x="366" y="225" on="1"/>
        <pt x="145" y="225" on="1"/>
        <pt x="132" y="144" on="0"/>
        <pt x="202" y="58" on="0"/>
        <pt x="280" y="58" on="1"/>
        <pt x="336" y="58" on="0"/>
        <pt x="432" y="85" on="0"/>
        <pt x="481" y="116" on="1"/>
        <pt x="496" y="116" on="1"/>
        <pt x="478" y="47" on="1"/>
        <pt x="476" y="41" on="0"/>
        <pt x="473" y="39" on="1"/>
        <pt x="441" y="13" on="0"/>
        <pt x="325" y="-20" on="0"/>
      </contour>
    </TTGlyph>
    <TTGlyph name="F" xMin="48" yMin="0" xMax="641" yMax="700">
      <contour>
        <pt x="133" y="0" on="1"/>
        <pt x="60" y="0" on="1"/>
        <pt x="48" y="0" on="0"/>
        <pt x="52" y="11" on="1"/>
        <pt x="206" y="626" on="1"/>
        <pt x="155" y="626" on="1"/>
        <pt x="150" y="626" on="0"/>
        <pt x="148" y="629" on="1"/>
        <pt x="145" y="632" on="0"/>
        <pt x="147" y="637" on="1"/>
        <pt x="151" y="654" on="0"/>
        <pt x="158" y="684" on="0"/>
        <pt x="162" y="700" on="1"/>
        <pt x="631" y="700" on="1"/>
        <pt x="637" y="700" on="0"/>
        <pt x="638" y="697" on="1"/>
        <pt x="641" y="694" on="0"/>
        <pt x="639" y="689" on="1"/>
        <pt x="635" y="673" on="0"/>
        <pt x="628" y="643" on="0"/>
        <pt x="623" y="626" on="1"/>
        <pt x="290" y="626" on="1"/>
        <pt x="225" y="368" on="1"/>
        <pt x="501" y="368" on="1"/>
        <pt x="506" y="368" on="0"/>
        <pt x="508" y="366" on="1"/>
        <pt x="511" y="363" on="0"/>
        <pt x="509" y="356" on="1"/>
        <pt x="505" y="340" on="0"/>
        <pt x="498" y="312" on="0"/>
        <pt x="493" y="295" on="1"/>
        <pt x="207" y="295" on="1"/>
        <pt x="158" y="98" on="1"/>
        <pt x="152" y="74" on="0"/>
        <pt x="140" y="25" on="0"/>
      </contour>
    </TTGlyph>
    <TTGlyph name="G" xMin="43" yMin="-20" xMax="618" yMax="720">
      <contour>
        <pt x="263" y="53" on="1"/>
        <pt x="305" y="53" on="0"/>
        <pt x="367" y="78" on="0"/>
        <pt x="402" y="105" on="0"/>
        <pt x="402" y="106" on="1"/>
        <pt x="414" y="153" on="0"/>
        <pt x="435" y="239" on="0"/>
        <pt x="447" y="284" on="1"/>
        <pt x="333" y="284" on="1"/>
        <pt x="328" y="284" on="0"/>
        <pt x="326" y="287" on="1"/>
        <pt x="323" y="290" on="0"/>
        <pt x="325" y="295" on="1"/>
        <pt x="329" y="311" on="0"/>
        <pt x="335" y="340" on="0"/>
        <pt x="339" y="356" on="1"/>
        <pt x="576" y="356" on="1"/>
        <pt x="588" y="356" on="0"/>
        <pt x="584" y="345" on="1"/>
        <pt x="570" y="284" on="1"/>
        <pt x="527" y="284" on="1"/>
        <pt x="474" y="74" on="1"/>
        <pt x="472" y="67" on="0"/>
        <pt x="441" y="36" on="0"/>
        <pt x="385" y="3" on="0"/>
        <pt x="304" y="-20" on="0"/>
        <pt x="252" y="-20" on="1"/>
        <pt x="170" y="-20" on="0"/>
        <pt x="74" y="49" on="0"/>
        <pt x="43" y="167" on="0"/>
        <pt x="60" y="238" on="1"/>
        <pt x="118" y="466" on="1"/>
        <pt x="151" y="600" on="0"/>
        <pt x="297" y="720" on="0"/>
        <pt x="421" y="720" on="1"/>
        <pt x="489" y="720" on="0"/>
        <pt x="593" y="683" on="0"/>
        <pt x="613" y="657" on="1"/>
        <pt x="618" y="651" on="0"/>
        <pt x="614" y="638" on="1"/>
        <pt x="614" y="638" on="0"/>
        <pt x="614" y="638" on="1"/>
        <pt x="579" y="497" on="1"/>
        <pt x="512" y="497" on="1"/>
        <pt x="501" y="497" on="0"/>
        <pt x="503" y="508" on="1"/>
        <pt x="531" y="620" on="1"/>
        <pt x="487" y="647" on="0"/>
        <pt x="406" y="647" on="1"/>
        <pt x="319" y="647" on="0"/>
        <pt x="224" y="562" on="0"/>
        <pt x="199" y="464" on="1"/>
        <pt x="142" y="234" on="1"/>
        <pt x="121" y="150" on="0"/>
        <pt x="185" y="53" on="0"/>
      </contour>
    </TTGlyph>
    <TTGlyph name="Gbreve" xMin="29" yMin="-20" xMax="669" yMax="939">
      <contour>
        <pt x="371" y="939" on="1"/>
        <pt x="381" y="899" on="0"/>
        <pt x="424" y="868" on="0"/>
        <pt x="467" y="868" on="1"/>
        <pt x="511" y="868" on="0"/>
        <pt x="569" y="899" on="0"/>
        <pt x="600" y="939" on="1"/>
        <pt x="652" y="939" on="1"/>
        <pt x="669" y="939" on="0"/>
        <pt x="658" y="918" on="1"/>
        <pt x="631" y="866" on="0"/>
        <pt x="525" y="797" on="0"/>
        <pt x="463" y="797" on="1"/>
        <pt x="436" y="797" on="1"/>
        <pt x="375" y="797" on="0"/>
        <pt x="303" y="866" on="0"/>
        <pt x="302" y="918" on="1"/>
        <pt x="301" y="939" on="0"/>
        <pt x="319" y="939" on="1"/>
      </contour>
      <contour>
        <pt x="259" y="56" on="1"/>
        <pt x="301" y="56" on="0"/>
        <pt x="365" y="74" on="0"/>
        <pt x="402" y="94" on="0"/>
        <pt x="402" y="96" on="1"/>
        <pt x="414" y="142" on="0"/>
        <pt x="437" y="236" on="0"/>
        <pt x="448" y="283" on="1"/>
        <pt x="334" y="283" on="1"/>
        <pt x="330" y="283" on="0"/>
        <pt x="327" y="286" on="1"/>
        <pt x="325" y="290" on="0"/>
        <pt x="326" y="294" on="1"/>
        <pt x="331" y="310" on="0"/>
        <pt x="338" y="340" on="0"/>
        <pt x="342" y="356" on="1"/>
        <pt x="578" y="356" on="1"/>
        <pt x="589" y="356" on="0"/>
        <pt x="587" y="345" on="1"/>
        <pt x="571" y="283" on="1"/>
        <pt x="528" y="283" on="1"/>
        <pt x="474" y="68" on="1"/>
        <pt x="472" y="58" on="0"/>
        <pt x="414" y="16" on="0"/>
        <pt x="310" y="-20" on="0"/>
        <pt x="238" y="-20" on="1"/>
        <pt x="122" y="-20" on="0"/>
        <pt x="29" y="112" on="0"/>
        <pt x="56" y="222" on="1"/>
        <pt x="114" y="452" on="1"/>
        <pt x="148" y="586" on="0"/>
        <pt x="313" y="720" on="0"/>
        <pt x="439" y="720" on="1"/>
        <pt x="504" y="720" on="0"/>
        <pt x="595" y="683" on="0"/>
        <pt x="615" y="657" on="1"/>
        <pt x="620" y="651" on="0"/>
        <pt x="616" y="638" on="1"/>
        <pt x="616" y="637" on="0"/>
        <pt x="615" y="635" on="1"/>
        <pt x="581" y="497" on="1"/>
        <pt x="514" y="497" on="1"/>
        <pt x="503" y="497" on="0"/>
        <pt x="506" y="508" on="1"/>
        <pt x="533" y="616" on="1"/>
        <pt x="511" y="631" on="0"/>
        <pt x="455" y="644" on="0"/>
        <pt x="414" y="644" on="1"/>
        <pt x="327" y="644" on="0"/>
        <pt x="221" y="551" on="0"/>
        <pt x="197" y="453" on="1"/>
        <pt x="140" y="225" on="1"/>
        <pt x="119" y="142" on="0"/>
        <pt x="183" y="56" on="0"/>
      </contour>
    </TTGlyph>
    <TTGlyph name="Gcaron" xMin="29" yMin="-20" xMax="703" yMax="945">
      <contour>
        <pt x="261" y="945" on="1"/>
        <pt x="335" y="945" on="1"/>
        <pt x="346" y="945" on="0"/>
        <pt x="356" y="941" on="0"/>
        <pt x="363" y="934" on="1"/>
        <pt x="375" y="923" on="0"/>
        <pt x="428" y="870" on="0"/>
        <pt x="460" y="838" on="1"/>
        <pt x="508" y="869" on="0"/>
        <pt x="587" y="921" on="0"/>
        <pt x="622" y="945" on="1"/>
        <pt x="691" y="945" on="1"/>
        <pt x="703" y="945" on="0"/>
        <pt x="701" y="938" on="1"/>
        <pt x="700" y="934" on="0"/>
        <pt x="690" y="926" on="0"/>
        <pt x="672" y="912" on="1"/>
        <pt x="657" y="901" on="0"/>
        <pt x="607" y="864" on="0"/>
        <pt x="550" y="822" on="0"/>
        <pt x="501" y="786" on="0"/>
        <pt x="487" y="776" on="1"/>
        <pt x="415" y="776" on="1"/>
        <pt x="408" y="776" on="0"/>
        <pt x="397" y="783" on="0"/>
        <pt x="386" y="796" on="1"/>
        <pt x="378" y="806" on="0"/>
        <pt x="333" y="859" on="0"/>
        <pt x="281" y="921" on="0"/>
      </contour>
      <contour>
        <pt x="259" y="56" on="1"/>
        <pt x="301" y="56" on="0"/>
        <pt x="365" y="74" on="0"/>
        <pt x="402" y="94" on="0"/>
        <pt x="402" y="96" on="1"/>
        <pt x="414" y="142" on="0"/>
        <pt x="437" y="236" on="0"/>
        <pt x="448" y="283" on="1"/>
        <pt x="334" y="283" on="1"/>
        <pt x="330" y="283" on="0"/>
        <pt x="327" y="286" on="1"/>
        <pt x="325" y="290" on="0"/>
        <pt x="326" y="294" on="1"/>
        <pt x="331" y="310" on="0"/>
        <pt x="338" y="340" on="0"/>
        <pt x="342" y="356" on="1"/>
        <pt x="578" y="356" on="1"/>
        <pt x="589" y="356" on="0"/>
        <pt x="587" y="345" on="1"/>
        <pt x="571" y="283" on="1"/>
        <pt x="528" y="283" on="1"/>
        <pt x="474" y="68" on="1"/>
        <pt x="472" y="58" on="0"/>
        <pt x="414" y="16" on="0"/>
        <pt x="310" y="-20" on="0"/>
        <pt x="238" y="-20" on="1"/>
        <pt x="122" y="-20" on="0"/>
        <pt x="29" y="112" on="0"/>
        <pt x="56" y="222" on="1"/>
        <pt x="114" y="452" on="1"/>
        <pt x="148" y="586" on="0"/>
        <pt x="313" y="720" on="0"/>
        <pt x="439" y="720" on="1"/>
        <pt x="504" y="720" on="0"/>
        <pt x="595" y="683" on="0"/>
        <pt x="615" y="657" on="1"/>
        <pt x="620" y="651" on="0"/>
        <pt x="616" y="638" on="1"/>
        <pt x="616" y="637" on="0"/>
        <pt x="615" y="635" on="1"/>
        <pt x="581" y="497" on="1"/>
        <pt x="514" y="497" on="1"/>
        <pt x="503" y="497" on="0"/>
        <pt x="506" y="508" on="1"/>
        <pt x="533" y="616" on="1"/>
        <pt x="511" y="631" on="0"/>
        <pt x="455" y="644" on="0"/>
        <pt x="414" y="644" on="1"/>
        <pt x="327" y="644" on="0"/>
        <pt x="221" y="551" on="0"/>
        <pt x="197" y="453" on="1"/>
        <pt x="140" y="225" on="1"/>
        <pt x="119" y="142" on="0"/>
        <pt x="183" y="56" on="0"/>
      </contour>
    </TTGlyph>
    <TTGlyph name="Gcircumflex" xMin="29" yMin="-20" xMax="670" yMax="945">
      <contour>
        <pt x="308" y="776" on="1"/>
        <pt x="240" y="776" on="1"/>
        <pt x="228" y="776" on="0"/>
        <pt x="230" y="783" on="1"/>
        <pt x="231" y="787" on="0"/>
        <pt x="240" y="796" on="0"/>
        <pt x="259" y="809" on="1"/>
        <pt x="274" y="820" on="0"/>
        <pt x="324" y="857" on="0"/>
        <pt x="381" y="899" on="0"/>
        <pt x="430" y="935" on="0"/>
        <pt x="443" y="945" on="1"/>
        <pt x="516" y="945" on="1"/>
        <pt x="524" y="945" on="0"/>
        <pt x="533" y="938" on="0"/>
        <pt x="545" y="925" on="1"/>
        <pt x="553" y="915" on="0"/>
        <pt x="597" y="862" on="0"/>
        <pt x="650" y="800" on="0"/>
        <pt x="670" y="776" on="1"/>
        <pt x="596" y="776" on="1"/>
        <pt x="585" y="776" on="0"/>
        <pt x="574" y="780" on="0"/>
        <pt x="568" y="786" on="1"/>
        <pt x="555" y="798" on="0"/>
        <pt x="503" y="850" on="0"/>
        <pt x="470" y="882" on="1"/>
        <pt x="423" y="851" on="0"/>
        <pt x="343" y="800" on="0"/>
      </contour>
      <contour>
        <pt x="259" y="56" on="1"/>
        <pt x="301" y="56" on="0"/>
        <pt x="365" y="74" on="0"/>
        <pt x="402" y="94" on="0"/>
        <pt x="402" y="96" on="1"/>
        <pt x="414" y="142" on="0"/>
        <pt x="437" y="236" on="0"/>
        <pt x="448" y="283" on="1"/>
        <pt x="334" y="283" on="1"/>
        <pt x="330" y="283" on="0"/>
        <pt x="327" y="286" on="1"/>
        <pt x="325" y="290" on="0"/>
        <pt x="326" y="294" on="1"/>
        <pt x="331" y="310" on="0"/>
        <pt x="338" y="340" on="0"/>
        <pt x="342" y="356" on="1"/>
        <pt x="578" y="356" on="1"/>
        <pt x="589" y="356" on="0"/>
        <pt x="587" y="345" on="1"/>
        <pt x="571" y="283" on="1"/>
        <pt x="528" y="283" on="1"/>
        <pt x="474" y="68" on="1"/>
        <pt x="472" y="58" on="0"/>
        <pt x="414" y="16" on="0"/>
        <pt x="310" y="-20" on="0"/>
        <pt x="238" y="-20" on="1"/>
        <pt x="122" y="-20" on="0"/>
        <pt x="29" y="112" on="0"/>
        <pt x="56" y="222" on="1"/>
        <pt x="114" y="452" on="1"/>
        <pt x="148" y="586" on="0"/>
        <pt x="313" y="720" on="0"/>
        <pt x="439" y="720" on="1"/>
        <pt x="504" y="720" on="0"/>
        <pt x="595" y="683" on="0"/>
        <pt x="615" y="657" on="1"/>
        <pt x="620" y="651" on="0"/>
        <pt x="616" y="638" on="1"/>
        <pt x="616" y="637" on="0"/>
        <pt x="615" y="635" on="1"/>
        <pt x="581" y="497" on="1"/>
        <pt x="514" y="497" on="1"/>
        <pt x="503" y="497" on="0"/>
        <pt x="506" y="508" on="1"/>
        <pt x="533" y="616" on="1"/>
        <pt x="511" y="631" on="0"/>
        <pt x="455" y="644" on="0"/>
        <pt x="414" y="644" on="1"/>
        <pt x="327" y="644" on="0"/>
        <pt x="221" y="551" on="0"/>
        <pt x="197" y="453" on="1"/>
        <pt x="140" y="225" on="1"/>
        <pt x="119" y="142" on="0"/>
        <pt x="183" y="56" on="0"/>
      </contour>
    </TTGlyph>
    <TTGlyph name="Gcommaaccent" xMin="29" yMin="-239" xMax="620" yMax="720">
      <contour>
        <pt x="259" y="56" on="1"/>
        <pt x="301" y="56" on="0"/>
        <pt x="365" y="74" on="0"/>
        <pt x="402" y="94" on="0"/>
        <pt x="402" y="96" on="1"/>
        <pt x="414" y="142" on="0"/>
        <pt x="437" y="236" on="0"/>
        <pt x="448" y="283" on="1"/>
        <pt x="334" y="283" on="1"/>
        <pt x="330" y="283" on="0"/>
        <pt x="327" y="286" on="1"/>
        <pt x="325" y="290" on="0"/>
        <pt x="326" y="294" on="1"/>
        <pt x="331" y="310" on="0"/>
        <pt x="338" y="340" on="0"/>
        <pt x="342" y="356" on="1"/>
        <pt x="578" y="356" on="1"/>
        <pt x="589" y="356" on="0"/>
        <pt x="587" y="345" on="1"/>
        <pt x="571" y="283" on="1"/>
        <pt x="528" y="283" on="1"/>
        <pt x="474" y="68" on="1"/>
        <pt x="472" y="58" on="0"/>
        <pt x="414" y="16" on="0"/>
        <pt x="310" y="-20" on="0"/>
        <pt x="238" y="-20" on="1"/>
        <pt x="122" y="-20" on="0"/>
        <pt x="29" y="112" on="0"/>
        <pt x="56" y="222" on="1"/>
        <pt x="114" y="452" on="1"/>
        <pt x="148" y="586" on="0"/>
        <pt x="313" y="720" on="0"/>
        <pt x="439" y="720" on="1"/>
        <pt x="504" y="720" on="0"/>
        <pt x="595" y="683" on="0"/>
        <pt x="615" y="657" on="1"/>
        <pt x="620" y="651" on="0"/>
        <pt x="616" y="638" on="1"/>
        <pt x="616" y="637" on="0"/>
        <pt x="615" y="635" on="1"/>
        <pt x="581" y="497" on="1"/>
        <pt x="514" y="497" on="1"/>
        <pt x="503" y="497" on="0"/>
        <pt x="506" y="508" on="1"/>
        <pt x="533" y="616" on="1"/>
        <pt x="511" y="631" on="0"/>
        <pt x="455" y="644" on="0"/>
        <pt x="414" y="644" on="1"/>
        <pt x="327" y="644" on="0"/>
        <pt x="221" y="551" on="0"/>
        <pt x="197" y="453" on="1"/>
        <pt x="140" y="225" on="1"/>
        <pt x="119" y="142" on="0"/>
        <pt x="183" y="56" on="0"/>
      </contour>
      <contour>
        <pt x="180" y="-239" on="1"/>
        <pt x="122" y="-239" on="1"/>
        <pt x="144" y="-189" on="0"/>
        <pt x="179" y="-112" on="0"/>
        <pt x="199" y="-67" on="1"/>
        <pt x="283" y="-67" on="1"/>
        <pt x="289" y="-67" on="0"/>
        <pt x="294" y="-75" on="0"/>
        <pt x="290" y="-81" on="1"/>
        <pt x="272" y="-110" on="0"/>
        <pt x="245" y="-154" on="0"/>
        <pt x="217" y="-198" on="0"/>
        <pt x="198" y="-229" on="1"/>
        <pt x="195" y="-233" on="0"/>
        <pt x="187" y="-239" on="0"/>
      </contour>
    </TTGlyph>
    <TTGlyph name="Gdotaccent" xMin="29" yMin="-20" xMax="620" yMax="903">
      <contour>
        <pt x="506" y="801" on="1"/>
        <pt x="406" y="801" on="1"/>
        <pt x="394" y="801" on="0"/>
        <pt x="398" y="812" on="1"/>
        <pt x="421" y="903" on="1"/>
        <pt x="521" y="903" on="1"/>
        <pt x="533" y="903" on="0"/>
        <pt x="529" y="892" on="1"/>
      </contour>
      <contour>
        <pt x="259" y="56" on="1"/>
        <pt x="301" y="56" on="0"/>
        <pt x="365" y="74" on="0"/>
        <pt x="402" y="94" on="0"/>
        <pt x="402" y="96" on="1"/>
        <pt x="414" y="142" on="0"/>
        <pt x="437" y="236" on="0"/>
        <pt x="448" y="283" on="1"/>
        <pt x="334" y="283" on="1"/>
        <pt x="330" y="283" on="0"/>
        <pt x="327" y="286" on="1"/>
        <pt x="325" y="290" on="0"/>
        <pt x="326" y="294" on="1"/>
        <pt x="331" y="310" on="0"/>
        <pt x="338" y="340" on="0"/>
        <pt x="342" y="356" on="1"/>
        <pt x="578" y="356" on="1"/>
        <pt x="589" y="356" on="0"/>
        <pt x="587" y="345" on="1"/>
        <pt x="571" y="283" on="1"/>
        <pt x="528" y="283" on="1"/>
        <pt x="474" y="68" on="1"/>
        <pt x="472" y="58" on="0"/>
        <pt x="414" y="16" on="0"/>
        <pt x="310" y="-20" on="0"/>
        <pt x="238" y="-20" on="1"/>
        <pt x="122" y="-20" on="0"/>
        <pt x="29" y="112" on="0"/>
        <pt x="56" y="222" on="1"/>
        <pt x="114" y="452" on="1"/>
        <pt x="148" y="586" on="0"/>
        <pt x="313" y="720" on="0"/>
        <pt x="439" y="720" on="1"/>
        <pt x="504" y="720" on="0"/>
        <pt x="595" y="683" on="0"/>
        <pt x="615" y="657" on="1"/>
        <pt x="620" y="651" on="0"/>
        <pt x="616" y="638" on="1"/>
        <pt x="616" y="637" on="0"/>
        <pt x="615" y="635" on="1"/>
        <pt x="581" y="497" on="1"/>
        <pt x="514" y="497" on="1"/>
        <pt x="503" y="497" on="0"/>
        <pt x="506" y="508" on="1"/>
        <pt x="533" y="616" on="1"/>
        <pt x="511" y="631" on="0"/>
        <pt x="455" y="644" on="0"/>
        <pt x="414" y="644" on="1"/>
        <pt x="327" y="644" on="0"/>
        <pt x="221" y="551" on="0"/>
        <pt x="197" y="453" on="1"/>
        <pt x="140" y="225" on="1"/>
        <pt x="119" y="142" on="0"/>
        <pt x="183" y="56" on="0"/>
      </contour>
    </TTGlyph>
    <TTGlyph name="H" xMin="11" yMin="0" xMax="631" yMax="700">
      <contour>
        <pt x="455" y="0" on="1"/>
        <pt x="382" y="0" on="1"/>
        <pt x="377" y="0" on="0"/>
        <pt x="375" y="3" on="1"/>
        <pt x="372" y="6" on="0"/>
        <pt x="374" y="11" on="1"/>
        <pt x="451" y="319" on="1"/>
        <pt x="176" y="319" on="1"/>
        <pt x="96" y="0" on="1"/>
        <pt x="23" y="0" on="1"/>
        <pt x="11" y="0" on="0"/>
        <pt x="15" y="11" on="1"/>
        <pt x="161" y="598" on="1"/>
        <pt x="168" y="624" on="0"/>
        <pt x="180" y="675" on="0"/>
        <pt x="187" y="700" on="1"/>
        <pt x="260" y="700" on="1"/>
        <pt x="266" y="700" on="0"/>
        <pt x="267" y="697" on="1"/>
        <pt x="270" y="694" on="0"/>
        <pt x="268" y="689" on="1"/>
        <pt x="194" y="393" on="1"/>
        <pt x="469" y="393" on="1"/>
        <pt x="546" y="700" on="1"/>
        <pt x="619" y="700" on="1"/>
        <pt x="631" y="700" on="0"/>
        <pt x="627" y="689" on="1"/>
        <pt x="481" y="103" on="1"/>
        <pt x="474" y="77" on="0"/>
        <pt x="461" y="25" on="0"/>
      </contour>
    </TTGlyph>
    <TTGlyph name="Hbar" xMin="11" yMin="0" xMax="661" yMax="700">
      <contour>
        <pt x="455" y="0" on="1"/>
        <pt x="382" y="0" on="1"/>
        <pt x="377" y="0" on="0"/>
        <pt x="375" y="3" on="1"/>
        <pt x="372" y="6" on="0"/>
        <pt x="374" y="11" on="1"/>
        <pt x="450" y="316" on="1"/>
        <pt x="175" y="316" on="1"/>
        <pt x="96" y="0" on="1"/>
        <pt x="23" y="0" on="1"/>
        <pt x="11" y="0" on="0"/>
        <pt x="15" y="11" on="1"/>
        <pt x="142" y="519" on="1"/>
        <pt x="94" y="519" on="1"/>
        <pt x="83" y="519" on="0"/>
        <pt x="86" y="530" on="1"/>
        <pt x="90" y="544" on="0"/>
        <pt x="96" y="572" on="0"/>
        <pt x="100" y="586" on="1"/>
        <pt x="159" y="586" on="1"/>
        <pt x="162" y="598" on="1"/>
        <pt x="168" y="624" on="0"/>
        <pt x="180" y="675" on="0"/>
        <pt x="187" y="700" on="1"/>
        <pt x="260" y="700" on="1"/>
        <pt x="265" y="700" on="0"/>
        <pt x="268" y="697" on="1"/>
        <pt x="269" y="695" on="0"/>
        <pt x="269" y="689" on="1"/>
        <pt x="243" y="586" on="1"/>
        <pt x="518" y="586" on="1"/>
        <pt x="546" y="700" on="1"/>
        <pt x="619" y="700" on="1"/>
        <pt x="630" y="700" on="0"/>
        <pt x="628" y="689" on="1"/>
        <pt x="602" y="586" on="1"/>
        <pt x="649" y="586" on="1"/>
        <pt x="661" y="586" on="0"/>
        <pt x="657" y="575" on="1"/>
        <pt x="654" y="561" on="0"/>
        <pt x="647" y="533" on="0"/>
        <pt x="643" y="519" on="1"/>
        <pt x="585" y="519" on="1"/>
        <pt x="481" y="103" on="1"/>
        <pt x="474" y="77" on="0"/>
        <pt x="462" y="25" on="0"/>
      </contour>
      <contour>
        <pt x="195" y="393" on="1"/>
        <pt x="469" y="393" on="1"/>
        <pt x="501" y="519" on="1"/>
        <pt x="226" y="519" on="1"/>
      </contour>
    </TTGlyph>
    <TTGlyph name="Hcircumflex" xMin="11" yMin="0" xMax="653" yMax="945">
      <contour>
        <pt x="291" y="776" on="1"/>
        <pt x="223" y="776" on="1"/>
        <pt x="211" y="776" on="0"/>
        <pt x="213" y="783" on="1"/>
        <pt x="214" y="787" on="0"/>
        <pt x="224" y="796" on="0"/>
        <pt x="242" y="809" on="1"/>
        <pt x="257" y="820" on="0"/>
        <pt x="307" y="857" on="0"/>
        <pt x="364" y="899" on="0"/>
        <pt x="413" y="935" on="0"/>
        <pt x="426" y="945" on="1"/>
        <pt x="499" y="945" on="1"/>
        <pt x="507" y="945" on="0"/>
        <pt x="517" y="938" on="0"/>
        <pt x="528" y="925" on="1"/>
        <pt x="537" y="915" on="0"/>
        <pt x="581" y="862" on="0"/>
        <pt x="633" y="800" on="0"/>
        <pt x="653" y="776" on="1"/>
        <pt x="579" y="776" on="1"/>
        <pt x="568" y="776" on="0"/>
        <pt x="558" y="780" on="0"/>
        <pt x="551" y="786" on="1"/>
        <pt x="539" y="798" on="0"/>
        <pt x="486" y="850" on="0"/>
        <pt x="454" y="883" on="1"/>
        <pt x="406" y="851" on="0"/>
        <pt x="327" y="800" on="0"/>
      </contour>
      <contour>
        <pt x="455" y="0" on="1"/>
        <pt x="382" y="0" on="1"/>
        <pt x="377" y="0" on="0"/>
        <pt x="375" y="3" on="1"/>
        <pt x="372" y="6" on="0"/>
        <pt x="374" y="11" on="1"/>
        <pt x="450" y="316" on="1"/>
        <pt x="175" y="316" on="1"/>
        <pt x="96" y="0" on="1"/>
        <pt x="23" y="0" on="1"/>
        <pt x="11" y="0" on="0"/>
        <pt x="15" y="11" on="1"/>
        <pt x="162" y="598" on="1"/>
        <pt x="168" y="624" on="0"/>
        <pt x="180" y="675" on="0"/>
        <pt x="187" y="700" on="1"/>
        <pt x="260" y="700" on="1"/>
        <pt x="265" y="700" on="0"/>
        <pt x="268" y="697" on="1"/>
        <pt x="269" y="695" on="0"/>
        <pt x="269" y="689" on="1"/>
        <pt x="195" y="393" on="1"/>
        <pt x="469" y="393" on="1"/>
        <pt x="546" y="700" on="1"/>
        <pt x="619" y="700" on="1"/>
        <pt x="630" y="700" on="0"/>
        <pt x="628" y="689" on="1"/>
        <pt x="481" y="103" on="1"/>
        <pt x="474" y="77" on="0"/>
        <pt x="462" y="25" on="0"/>
      </contour>
    </TTGlyph>
    <TTGlyph name="I" xMin="18" yMin="0" xMax="626" yMax="700">
      <contour>
        <pt x="35" y="74" on="1"/>
        <pt x="210" y="74" on="1"/>
        <pt x="348" y="626" on="1"/>
        <pt x="185" y="626" on="1"/>
        <pt x="180" y="626" on="0"/>
        <pt x="178" y="629" on="1"/>
        <pt x="175" y="632" on="0"/>
        <pt x="177" y="637" on="1"/>
        <pt x="181" y="654" on="0"/>
        <pt x="188" y="684" on="0"/>
        <pt x="192" y="700" on="1"/>
        <pt x="614" y="700" on="1"/>
        <pt x="626" y="700" on="0"/>
        <pt x="622" y="689" on="1"/>
        <pt x="618" y="673" on="0"/>
        <pt x="611" y="643" on="0"/>
        <pt x="606" y="626" on="1"/>
        <pt x="432" y="626" on="1"/>
        <pt x="294" y="74" on="1"/>
        <pt x="457" y="74" on="1"/>
        <pt x="468" y="74" on="0"/>
        <pt x="466" y="63" on="1"/>
        <pt x="462" y="47" on="0"/>
        <pt x="454" y="17" on="0"/>
        <pt x="450" y="0" on="1"/>
        <pt x="28" y="0" on="1"/>
        <pt x="23" y="0" on="0"/>
        <pt x="21" y="3" on="1"/>
        <pt x="18" y="6" on="0"/>
        <pt x="20" y="11" on="1"/>
        <pt x="25" y="28" on="0"/>
        <pt x="31" y="58" on="0"/>
      </contour>
    </TTGlyph>
    <TTGlyph name="IJ" xMin="23" yMin="-162" xMax="642" yMax="700">
      <contour>
        <pt x="198" y="700" on="1"/>
        <pt x="271" y="700" on="1"/>
        <pt x="277" y="700" on="0"/>
        <pt x="278" y="697" on="1"/>
        <pt x="281" y="694" on="0"/>
        <pt x="279" y="689" on="1"/>
        <pt x="107" y="0" on="1"/>
        <pt x="34" y="0" on="1"/>
        <pt x="23" y="0" on="0"/>
        <pt x="25" y="11" on="1"/>
        <pt x="172" y="598" on="1"/>
        <pt x="179" y="624" on="0"/>
        <pt x="191" y="675" on="0"/>
      </contour>
      <contour>
        <pt x="268" y="-82" on="1"/>
        <pt x="316" y="-82" on="0"/>
        <pt x="373" y="-33" on="0"/>
        <pt x="386" y="19" on="1"/>
        <pt x="537" y="623" on="1"/>
        <pt x="376" y="623" on="1"/>
        <pt x="365" y="623" on="0"/>
        <pt x="368" y="634" on="1"/>
        <pt x="373" y="652" on="0"/>
        <pt x="381" y="683" on="0"/>
        <pt x="385" y="700" on="1"/>
        <pt x="631" y="700" on="1"/>
        <pt x="642" y="700" on="0"/>
        <pt x="639" y="689" on="1"/>
        <pt x="473" y="24" on="1"/>
        <pt x="452" y="-58" on="0"/>
        <pt x="346" y="-162" on="0"/>
        <pt x="260" y="-162" on="1"/>
        <pt x="254" y="-162" on="1"/>
        <pt x="220" y="-162" on="0"/>
        <pt x="162" y="-145" on="0"/>
        <pt x="153" y="-133" on="1"/>
        <pt x="151" y="-129" on="0"/>
        <pt x="152" y="-125" on="1"/>
        <pt x="157" y="-108" on="0"/>
        <pt x="165" y="-75" on="0"/>
        <pt x="169" y="-57" on="1"/>
        <pt x="184" y="-57" on="1"/>
        <pt x="202" y="-71" on="0"/>
        <pt x="243" y="-82" on="0"/>
      </contour>
    </TTGlyph>
    <TTGlyph name="IJacute" xMin="23" yMin="-162" xMax="791" yMax="948">
      <contour>
        <pt x="284" y="775" on="1"/>
        <pt x="217" y="775" on="1"/>
        <pt x="257" y="821" on="0"/>
        <pt x="328" y="901" on="0"/>
        <pt x="369" y="948" on="1"/>
        <pt x="463" y="948" on="1"/>
        <pt x="469" y="948" on="0"/>
        <pt x="471" y="938" on="0"/>
        <pt x="466" y="933" on="1"/>
        <pt x="442" y="911" on="0"/>
        <pt x="406" y="878" on="0"/>
        <pt x="372" y="847" on="0"/>
        <pt x="331" y="810" on="0"/>
        <pt x="302" y="783" on="1"/>
        <pt x="299" y="780" on="0"/>
        <pt x="290" y="775" on="0"/>
      </contour>
      <contour>
        <pt x="604" y="775" on="1"/>
        <pt x="537" y="775" on="1"/>
        <pt x="577" y="821" on="0"/>
        <pt x="648" y="901" on="0"/>
        <pt x="689" y="948" on="1"/>
        <pt x="783" y="948" on="1"/>
        <pt x="789" y="948" on="0"/>
        <pt x="791" y="938" on="0"/>
        <pt x="786" y="933" on="1"/>
        <pt x="762" y="911" on="0"/>
        <pt x="726" y="878" on="0"/>
        <pt x="692" y="847" on="0"/>
        <pt x="651" y="810" on="0"/>
        <pt x="622" y="783" on="1"/>
        <pt x="619" y="780" on="0"/>
        <pt x="610" y="775" on="0"/>
      </contour>
      <contour>
        <pt x="198" y="700" on="1"/>
        <pt x="271" y="700" on="1"/>
        <pt x="277" y="700" on="0"/>
        <pt x="278" y="697" on="1"/>
        <pt x="281" y="694" on="0"/>
        <pt x="279" y="689" on="1"/>
        <pt x="107" y="0" on="1"/>
        <pt x="34" y="0" on="1"/>
        <pt x="23" y="0" on="0"/>
        <pt x="25" y="11" on="1"/>
        <pt x="172" y="598" on="1"/>
        <pt x="179" y="624" on="0"/>
        <pt x="191" y="675" on="0"/>
      </contour>
      <contour>
        <pt x="268" y="-82" on="1"/>
        <pt x="316" y="-82" on="0"/>
        <pt x="373" y="-33" on="0"/>
        <pt x="386" y="19" on="1"/>
        <pt x="537" y="623" on="1"/>
        <pt x="376" y="623" on="1"/>
        <pt x="365" y="623" on="0"/>
        <pt x="368" y="634" on="1"/>
        <pt x="373" y="652" on="0"/>
        <pt x="381" y="683" on="0"/>
        <pt x="385" y="700" on="1"/>
        <pt x="631" y="700" on="1"/>
        <pt x="642" y="700" on="0"/>
        <pt x="639" y="689" on="1"/>
        <pt x="473" y="24" on="1"/>
        <pt x="452" y="-58" on="0"/>
        <pt x="346" y="-162" on="0"/>
        <pt x="260" y="-162" on="1"/>
        <pt x="254" y="-162" on="1"/>
        <pt x="220" y="-162" on="0"/>
        <pt x="162" y="-145" on="0"/>
        <pt x="153" y="-133" on="1"/>
        <pt x="151" y="-129" on="0"/>
        <pt x="152" y="-125" on="1"/>
        <pt x="157" y="-108" on="0"/>
        <pt x="165" y="-75" on="0"/>
        <pt x="169" y="-57" on="1"/>
        <pt x="184" y="-57" on="1"/>
        <pt x="202" y="-71" on="0"/>
        <pt x="243" y="-82" on="0"/>
      </contour>
    </TTGlyph>
    <TTGlyph name="Iacute" xMin="19" yMin="0" xMax="641" yMax="947">
      <contour>
        <pt x="454" y="775" on="1"/>
        <pt x="387" y="775" on="1"/>
        <pt x="427" y="820" on="0"/>
        <pt x="498" y="901" on="0"/>
        <pt x="539" y="947" on="1"/>
        <pt x="633" y="947" on="1"/>
        <pt x="639" y="947" on="0"/>
        <pt x="641" y="938" on="0"/>
        <pt x="636" y="933" on="1"/>
        <pt x="612" y="911" on="0"/>
        <pt x="576" y="878" on="0"/>
        <pt x="542" y="847" on="0"/>
        <pt x="501" y="809" on="0"/>
        <pt x="472" y="782" on="1"/>
        <pt x="469" y="780" on="0"/>
        <pt x="460" y="775" on="0"/>
      </contour>
      <contour>
        <pt x="37" y="77" on="1"/>
        <pt x="211" y="77" on="1"/>
        <pt x="347" y="623" on="1"/>
        <pt x="184" y="623" on="1"/>
        <pt x="180" y="623" on="0"/>
        <pt x="177" y="626" on="1"/>
        <pt x="175" y="630" on="0"/>
        <pt x="176" y="634" on="1"/>
        <pt x="181" y="652" on="0"/>
        <pt x="188" y="683" on="0"/>
        <pt x="192" y="700" on="1"/>
        <pt x="614" y="700" on="1"/>
        <pt x="626" y="700" on="0"/>
        <pt x="622" y="689" on="1"/>
        <pt x="618" y="672" on="0"/>
        <pt x="611" y="641" on="0"/>
        <pt x="606" y="623" on="1"/>
        <pt x="432" y="623" on="1"/>
        <pt x="295" y="77" on="1"/>
        <pt x="458" y="77" on="1"/>
        <pt x="470" y="77" on="0"/>
        <pt x="466" y="66" on="1"/>
        <pt x="462" y="49" on="0"/>
        <pt x="455" y="17" on="0"/>
        <pt x="450" y="0" on="1"/>
        <pt x="28" y="0" on="1"/>
        <pt x="24" y="0" on="0"/>
        <pt x="21" y="3" on="1"/>
        <pt x="19" y="7" on="0"/>
        <pt x="20" y="11" on="1"/>
        <pt x="25" y="28" on="0"/>
        <pt x="33" y="59" on="0"/>
      </contour>
    </TTGlyph>
    <TTGlyph name="Ibreve" xMin="19" yMin="0" xMax="652" yMax="939">
      <contour>
        <pt x="354" y="939" on="1"/>
        <pt x="364" y="899" on="0"/>
        <pt x="408" y="868" on="0"/>
        <pt x="451" y="868" on="1"/>
        <pt x="494" y="868" on="0"/>
        <pt x="552" y="899" on="0"/>
        <pt x="583" y="939" on="1"/>
        <pt x="635" y="939" on="1"/>
        <pt x="652" y="939" on="0"/>
        <pt x="641" y="918" on="1"/>
        <pt x="614" y="866" on="0"/>
        <pt x="508" y="797" on="0"/>
        <pt x="446" y="797" on="1"/>
        <pt x="420" y="797" on="1"/>
        <pt x="358" y="797" on="0"/>
        <pt x="286" y="866" on="0"/>
        <pt x="285" y="918" on="1"/>
        <pt x="285" y="939" on="0"/>
        <pt x="302" y="939" on="1"/>
      </contour>
      <contour>
        <pt x="37" y="77" on="1"/>
        <pt x="211" y="77" on="1"/>
        <pt x="347" y="623" on="1"/>
        <pt x="184" y="623" on="1"/>
        <pt x="180" y="623" on="0"/>
        <pt x="177" y="626" on="1"/>
        <pt x="175" y="630" on="0"/>
        <pt x="176" y="634" on="1"/>
        <pt x="181" y="652" on="0"/>
        <pt x="188" y="683" on="0"/>
        <pt x="192" y="700" on="1"/>
        <pt x="614" y="700" on="1"/>
        <pt x="626" y="700" on="0"/>
        <pt x="622" y="689" on="1"/>
        <pt x="618" y="672" on="0"/>
        <pt x="611" y="641" on="0"/>
        <pt x="606" y="623" on="1"/>
        <pt x="432" y="623" on="1"/>
        <pt x="295" y="77" on="1"/>
        <pt x="458" y="77" on="1"/>
        <pt x="470" y="77" on="0"/>
        <pt x="466" y="66" on="1"/>
        <pt x="462" y="49" on="0"/>
        <pt x="455" y="17" on="0"/>
        <pt x="450" y="0" on="1"/>
        <pt x="28" y="0" on="1"/>
        <pt x="24" y="0" on="0"/>
        <pt x="21" y="3" on="1"/>
        <pt x="19" y="7" on="0"/>
        <pt x="20" y="11" on="1"/>
        <pt x="25" y="28" on="0"/>
        <pt x="33" y="59" on="0"/>
      </contour>
    </TTGlyph>
    <TTGlyph name="Icircumflex" xMin="19" yMin="0" xMax="653" yMax="945">
      <contour>
        <pt x="291" y="776" on="1"/>
        <pt x="223" y="776" on="1"/>
        <pt x="211" y="776" on="0"/>
        <pt x="213" y="783" on="1"/>
        <pt x="214" y="787" on="0"/>
        <pt x="224" y="796" on="0"/>
        <pt x="242" y="809" on="1"/>
        <pt x="257" y="820" on="0"/>
        <pt x="307" y="857" on="0"/>
        <pt x="364" y="899" on="0"/>
        <pt x="413" y="935" on="0"/>
        <pt x="426" y="945" on="1"/>
        <pt x="499" y="945" on="1"/>
        <pt x="507" y="945" on="0"/>
        <pt x="517" y="938" on="0"/>
        <pt x="528" y="925" on="1"/>
        <pt x="537" y="915" on="0"/>
        <pt x="581" y="862" on="0"/>
        <pt x="633" y="800" on="0"/>
        <pt x="653" y="776" on="1"/>
        <pt x="579" y="776" on="1"/>
        <pt x="568" y="776" on="0"/>
        <pt x="558" y="780" on="0"/>
        <pt x="551" y="786" on="1"/>
        <pt x="539" y="798" on="0"/>
        <pt x="486" y="850" on="0"/>
        <pt x="454" y="883" on="1"/>
        <pt x="406" y="851" on="0"/>
        <pt x="327" y="800" on="0"/>
      </contour>
      <contour>
        <pt x="37" y="77" on="1"/>
        <pt x="211" y="77" on="1"/>
        <pt x="347" y="623" on="1"/>
        <pt x="184" y="623" on="1"/>
        <pt x="180" y="623" on="0"/>
        <pt x="177" y="626" on="1"/>
        <pt x="175" y="630" on="0"/>
        <pt x="176" y="634" on="1"/>
        <pt x="181" y="652" on="0"/>
        <pt x="188" y="683" on="0"/>
        <pt x="192" y="700" on="1"/>
        <pt x="614" y="700" on="1"/>
        <pt x="626" y="700" on="0"/>
        <pt x="622" y="689" on="1"/>
        <pt x="618" y="672" on="0"/>
        <pt x="611" y="641" on="0"/>
        <pt x="606" y="623" on="1"/>
        <pt x="432" y="623" on="1"/>
        <pt x="295" y="77" on="1"/>
        <pt x="458" y="77" on="1"/>
        <pt x="470" y="77" on="0"/>
        <pt x="466" y="66" on="1"/>
        <pt x="462" y="49" on="0"/>
        <pt x="455" y="17" on="0"/>
        <pt x="450" y="0" on="1"/>
        <pt x="28" y="0" on="1"/>
        <pt x="24" y="0" on="0"/>
        <pt x="21" y="3" on="1"/>
        <pt x="19" y="7" on="0"/>
        <pt x="20" y="11" on="1"/>
        <pt x="25" y="28" on="0"/>
        <pt x="33" y="59" on="0"/>
      </contour>
    </TTGlyph>
    <TTGlyph name="Idieresis" xMin="19" yMin="0" xMax="626" yMax="903">
      <contour>
        <pt x="383" y="802" on="1"/>
        <pt x="290" y="802" on="1"/>
        <pt x="278" y="802" on="0"/>
        <pt x="282" y="813" on="1"/>
        <pt x="304" y="903" on="1"/>
        <pt x="397" y="903" on="1"/>
        <pt x="409" y="903" on="0"/>
        <pt x="405" y="892" on="1"/>
      </contour>
      <contour>
        <pt x="589" y="802" on="1"/>
        <pt x="496" y="802" on="1"/>
        <pt x="486" y="802" on="0"/>
        <pt x="488" y="813" on="1"/>
        <pt x="511" y="903" on="1"/>
        <pt x="603" y="903" on="1"/>
        <pt x="614" y="903" on="0"/>
        <pt x="612" y="892" on="1"/>
      </contour>
      <contour>
        <pt x="37" y="77" on="1"/>
        <pt x="211" y="77" on="1"/>
        <pt x="347" y="623" on="1"/>
        <pt x="184" y="623" on="1"/>
        <pt x="180" y="623" on="0"/>
        <pt x="177" y="626" on="1"/>
        <pt x="175" y="630" on="0"/>
        <pt x="176" y="634" on="1"/>
        <pt x="181" y="652" on="0"/>
        <pt x="188" y="683" on="0"/>
        <pt x="192" y="700" on="1"/>
        <pt x="614" y="700" on="1"/>
        <pt x="626" y="700" on="0"/>
        <pt x="622" y="689" on="1"/>
        <pt x="618" y="672" on="0"/>
        <pt x="611" y="641" on="0"/>
        <pt x="606" y="623" on="1"/>
        <pt x="432" y="623" on="1"/>
        <pt x="295" y="77" on="1"/>
        <pt x="458" y="77" on="1"/>
        <pt x="470" y="77" on="0"/>
        <pt x="466" y="66" on="1"/>
        <pt x="462" y="49" on="0"/>
        <pt x="455" y="17" on="0"/>
        <pt x="450" y="0" on="1"/>
        <pt x="28" y="0" on="1"/>
        <pt x="24" y="0" on="0"/>
        <pt x="21" y="3" on="1"/>
        <pt x="19" y="7" on="0"/>
        <pt x="20" y="11" on="1"/>
        <pt x="25" y="28" on="0"/>
        <pt x="33" y="59" on="0"/>
      </contour>
    </TTGlyph>
    <TTGlyph name="Idotaccent" xMin="19" yMin="0" xMax="626" yMax="903">
      <contour>
        <pt x="490" y="801" on="1"/>
        <pt x="389" y="801" on="1"/>
        <pt x="379" y="801" on="0"/>
        <pt x="381" y="812" on="1"/>
        <pt x="404" y="903" on="1"/>
        <pt x="504" y="903" on="1"/>
        <pt x="516" y="903" on="0"/>
        <pt x="512" y="892" on="1"/>
      </contour>
      <contour>
        <pt x="37" y="77" on="1"/>
        <pt x="211" y="77" on="1"/>
        <pt x="347" y="623" on="1"/>
        <pt x="184" y="623" on="1"/>
        <pt x="180" y="623" on="0"/>
        <pt x="177" y="626" on="1"/>
        <pt x="175" y="630" on="0"/>
        <pt x="176" y="634" on="1"/>
        <pt x="181" y="652" on="0"/>
        <pt x="188" y="683" on="0"/>
        <pt x="192" y="700" on="1"/>
        <pt x="614" y="700" on="1"/>
        <pt x="626" y="700" on="0"/>
        <pt x="622" y="689" on="1"/>
        <pt x="618" y="672" on="0"/>
        <pt x="611" y="641" on="0"/>
        <pt x="606" y="623" on="1"/>
        <pt x="432" y="623" on="1"/>
        <pt x="295" y="77" on="1"/>
        <pt x="458" y="77" on="1"/>
        <pt x="470" y="77" on="0"/>
        <pt x="466" y="66" on="1"/>
        <pt x="462" y="49" on="0"/>
        <pt x="455" y="17" on="0"/>
        <pt x="450" y="0" on="1"/>
        <pt x="28" y="0" on="1"/>
        <pt x="24" y="0" on="0"/>
        <pt x="21" y="3" on="1"/>
        <pt x="19" y="7" on="0"/>
        <pt x="20" y="11" on="1"/>
        <pt x="25" y="28" on="0"/>
        <pt x="33" y="59" on="0"/>
      </contour>
    </TTGlyph>
    <TTGlyph name="Idotbelow" xMin="19" yMin="-204" xMax="626" yMax="700">
      <contour>
        <pt x="37" y="77" on="1"/>
        <pt x="211" y="77" on="1"/>
        <pt x="347" y="623" on="1"/>
        <pt x="184" y="623" on="1"/>
        <pt x="180" y="623" on="0"/>
        <pt x="177" y="626" on="1"/>
        <pt x="175" y="630" on="0"/>
        <pt x="176" y="634" on="1"/>
        <pt x="181" y="652" on="0"/>
        <pt x="188" y="683" on="0"/>
        <pt x="192" y="700" on="1"/>
        <pt x="614" y="700" on="1"/>
        <pt x="626" y="700" on="0"/>
        <pt x="622" y="689" on="1"/>
        <pt x="618" y="672" on="0"/>
        <pt x="611" y="641" on="0"/>
        <pt x="606" y="623" on="1"/>
        <pt x="432" y="623" on="1"/>
        <pt x="295" y="77" on="1"/>
        <pt x="458" y="77" on="1"/>
        <pt x="470" y="77" on="0"/>
        <pt x="466" y="66" on="1"/>
        <pt x="462" y="49" on="0"/>
        <pt x="455" y="17" on="0"/>
        <pt x="450" y="0" on="1"/>
        <pt x="28" y="0" on="1"/>
        <pt x="24" y="0" on="0"/>
        <pt x="21" y="3" on="1"/>
        <pt x="19" y="7" on="0"/>
        <pt x="20" y="11" on="1"/>
        <pt x="25" y="28" on="0"/>
        <pt x="33" y="59" on="0"/>
      </contour>
      <contour>
        <pt x="238" y="-204" on="1"/>
        <pt x="138" y="-204" on="1"/>
        <pt x="126" y="-204" on="0"/>
        <pt x="130" y="-193" on="1"/>
        <pt x="153" y="-102" on="1"/>
        <pt x="253" y="-102" on="1"/>
        <pt x="265" y="-102" on="0"/>
        <pt x="261" y="-113" on="1"/>
      </contour>
    </TTGlyph>
    <TTGlyph name="Igrave" xMin="19" yMin="0" xMax="626" yMax="948">
      <contour>
        <pt x="468" y="776" on="1"/>
        <pt x="402" y="776" on="1"/>
        <pt x="391" y="776" on="0"/>
        <pt x="387" y="783" on="1"/>
        <pt x="366" y="819" on="0"/>
        <pt x="339" y="864" on="0"/>
        <pt x="316" y="904" on="0"/>
        <pt x="298" y="933" on="1"/>
        <pt x="295" y="938" on="0"/>
        <pt x="303" y="948" on="0"/>
        <pt x="309" y="948" on="1"/>
        <pt x="402" y="948" on="1"/>
        <pt x="420" y="902" on="0"/>
        <pt x="451" y="821" on="0"/>
      </contour>
      <contour>
        <pt x="37" y="77" on="1"/>
        <pt x="211" y="77" on="1"/>
        <pt x="347" y="623" on="1"/>
        <pt x="184" y="623" on="1"/>
        <pt x="180" y="623" on="0"/>
        <pt x="177" y="626" on="1"/>
        <pt x="175" y="630" on="0"/>
        <pt x="176" y="634" on="1"/>
        <pt x="181" y="652" on="0"/>
        <pt x="188" y="683" on="0"/>
        <pt x="192" y="700" on="1"/>
        <pt x="614" y="700" on="1"/>
        <pt x="626" y="700" on="0"/>
        <pt x="622" y="689" on="1"/>
        <pt x="618" y="672" on="0"/>
        <pt x="611" y="641" on="0"/>
        <pt x="606" y="623" on="1"/>
        <pt x="432" y="623" on="1"/>
        <pt x="295" y="77" on="1"/>
        <pt x="458" y="77" on="1"/>
        <pt x="470" y="77" on="0"/>
        <pt x="466" y="66" on="1"/>
        <pt x="462" y="49" on="0"/>
        <pt x="455" y="17" on="0"/>
        <pt x="450" y="0" on="1"/>
        <pt x="28" y="0" on="1"/>
        <pt x="24" y="0" on="0"/>
        <pt x="21" y="3" on="1"/>
        <pt x="19" y="7" on="0"/>
        <pt x="20" y="11" on="1"/>
        <pt x="25" y="28" on="0"/>
        <pt x="33" y="59" on="0"/>
      </contour>
    </TTGlyph>
    <TTGlyph name="Imacron" xMin="19" yMin="0" xMax="631" yMax="881">
      <contour>
        <pt x="278" y="881" on="1"/>
        <pt x="619" y="881" on="1"/>
        <pt x="631" y="881" on="0"/>
        <pt x="627" y="870" on="1"/>
        <pt x="623" y="854" on="0"/>
        <pt x="616" y="824" on="0"/>
        <pt x="612" y="808" on="1"/>
        <pt x="271" y="808" on="1"/>
        <pt x="259" y="808" on="0"/>
        <pt x="263" y="819" on="1"/>
        <pt x="267" y="835" on="0"/>
        <pt x="274" y="865" on="0"/>
      </contour>
      <contour>
        <pt x="37" y="77" on="1"/>
        <pt x="211" y="77" on="1"/>
        <pt x="347" y="623" on="1"/>
        <pt x="184" y="623" on="1"/>
        <pt x="180" y="623" on="0"/>
        <pt x="177" y="626" on="1"/>
        <pt x="175" y="630" on="0"/>
        <pt x="176" y="634" on="1"/>
        <pt x="181" y="652" on="0"/>
        <pt x="188" y="683" on="0"/>
        <pt x="192" y="700" on="1"/>
        <pt x="614" y="700" on="1"/>
        <pt x="626" y="700" on="0"/>
        <pt x="622" y="689" on="1"/>
        <pt x="618" y="672" on="0"/>
        <pt x="611" y="641" on="0"/>
        <pt x="606" y="623" on="1"/>
        <pt x="432" y="623" on="1"/>
        <pt x="295" y="77" on="1"/>
        <pt x="458" y="77" on="1"/>
        <pt x="470" y="77" on="0"/>
        <pt x="466" y="66" on="1"/>
        <pt x="462" y="49" on="0"/>
        <pt x="455" y="17" on="0"/>
        <pt x="450" y="0" on="1"/>
        <pt x="28" y="0" on="1"/>
        <pt x="24" y="0" on="0"/>
        <pt x="21" y="3" on="1"/>
        <pt x="19" y="7" on="0"/>
        <pt x="20" y="11" on="1"/>
        <pt x="25" y="28" on="0"/>
        <pt x="33" y="59" on="0"/>
      </contour>
    </TTGlyph>
    <TTGlyph name="Iogonek" xMin="19" yMin="-251" xMax="626" yMax="700">
      <contour>
        <pt x="37" y="77" on="1"/>
        <pt x="211" y="77" on="1"/>
        <pt x="347" y="623" on="1"/>
        <pt x="184" y="623" on="1"/>
        <pt x="180" y="623" on="0"/>
        <pt x="177" y="626" on="1"/>
        <pt x="175" y="630" on="0"/>
        <pt x="176" y="634" on="1"/>
        <pt x="181" y="652" on="0"/>
        <pt x="188" y="683" on="0"/>
        <pt x="192" y="700" on="1"/>
        <pt x="614" y="700" on="1"/>
        <pt x="626" y="700" on="0"/>
        <pt x="622" y="689" on="1"/>
        <pt x="618" y="672" on="0"/>
        <pt x="611" y="641" on="0"/>
        <pt x="606" y="623" on="1"/>
        <pt x="432" y="623" on="1"/>
        <pt x="295" y="77" on="1"/>
        <pt x="458" y="77" on="1"/>
        <pt x="470" y="77" on="0"/>
        <pt x="466" y="66" on="1"/>
        <pt x="462" y="49" on="0"/>
        <pt x="455" y="17" on="0"/>
        <pt x="450" y="0" on="1"/>
        <pt x="449" y="0" on="1"/>
        <pt x="449" y="-1" on="1"/>
        <pt x="448" y="-8" on="0"/>
        <pt x="435" y="-12" on="1"/>
        <pt x="359" y="-28" on="0"/>
        <pt x="289" y="-86" on="0"/>
        <pt x="281" y="-118" on="1"/>
        <pt x="274" y="-146" on="0"/>
        <pt x="300" y="-173" on="0"/>
        <pt x="325" y="-173" on="1"/>
        <pt x="362" y="-173" on="0"/>
        <pt x="393" y="-153" on="1"/>
        <pt x="407" y="-153" on="1"/>
        <pt x="405" y="-164" on="0"/>
        <pt x="398" y="-191" on="0"/>
        <pt x="391" y="-217" on="1"/>
        <pt x="388" y="-229" on="0"/>
        <pt x="337" y="-251" on="0"/>
        <pt x="302" y="-251" on="1"/>
        <pt x="241" y="-251" on="0"/>
        <pt x="187" y="-190" on="0"/>
        <pt x="200" y="-137" on="1"/>
        <pt x="212" y="-87" on="0"/>
        <pt x="282" y="-19" on="0"/>
        <pt x="324" y="0" on="1"/>
        <pt x="28" y="0" on="1"/>
        <pt x="24" y="0" on="0"/>
        <pt x="21" y="3" on="1"/>
        <pt x="19" y="7" on="0"/>
        <pt x="20" y="11" on="1"/>
        <pt x="25" y="28" on="0"/>
        <pt x="33" y="59" on="0"/>
      </contour>
    </TTGlyph>
    <TTGlyph name="Itilde" xMin="19" yMin="0" xMax="648" yMax="928">
      <contour>
        <pt x="543" y="866" on="1"/>
        <pt x="569" y="866" on="0"/>
        <pt x="609" y="888" on="0"/>
        <pt x="634" y="911" on="1"/>
        <pt x="648" y="911" on="1"/>
        <pt x="644" y="896" on="0"/>
        <pt x="635" y="859" on="0"/>
        <pt x="631" y="845" on="1"/>
        <pt x="630" y="840" on="0"/>
        <pt x="627" y="832" on="0"/>
        <pt x="620" y="827" on="1"/>
        <pt x="601" y="811" on="0"/>
        <pt x="555" y="790" on="0"/>
        <pt x="523" y="790" on="1"/>
        <pt x="495" y="790" on="0"/>
        <pt x="452" y="809" on="0"/>
        <pt x="415" y="833" on="0"/>
        <pt x="377" y="852" on="0"/>
        <pt x="354" y="852" on="1"/>
        <pt x="329" y="852" on="0"/>
        <pt x="288" y="831" on="0"/>
        <pt x="263" y="808" on="1"/>
        <pt x="249" y="808" on="1"/>
        <pt x="253" y="823" on="0"/>
        <pt x="262" y="860" on="0"/>
        <pt x="266" y="874" on="1"/>
        <pt x="267" y="878" on="0"/>
        <pt x="270" y="886" on="0"/>
        <pt x="277" y="891" on="1"/>
        <pt x="297" y="908" on="0"/>
        <pt x="343" y="928" on="0"/>
        <pt x="374" y="928" on="1"/>
        <pt x="402" y="928" on="0"/>
        <pt x="445" y="909" on="0"/>
        <pt x="483" y="885" on="0"/>
        <pt x="521" y="866" on="0"/>
      </contour>
      <contour>
        <pt x="37" y="77" on="1"/>
        <pt x="211" y="77" on="1"/>
        <pt x="347" y="623" on="1"/>
        <pt x="184" y="623" on="1"/>
        <pt x="180" y="623" on="0"/>
        <pt x="177" y="626" on="1"/>
        <pt x="175" y="630" on="0"/>
        <pt x="176" y="634" on="1"/>
        <pt x="181" y="652" on="0"/>
        <pt x="188" y="683" on="0"/>
        <pt x="192" y="700" on="1"/>
        <pt x="614" y="700" on="1"/>
        <pt x="626" y="700" on="0"/>
        <pt x="622" y="689" on="1"/>
        <pt x="618" y="672" on="0"/>
        <pt x="611" y="641" on="0"/>
        <pt x="606" y="623" on="1"/>
        <pt x="432" y="623" on="1"/>
        <pt x="295" y="77" on="1"/>
        <pt x="458" y="77" on="1"/>
        <pt x="470" y="77" on="0"/>
        <pt x="466" y="66" on="1"/>
        <pt x="462" y="49" on="0"/>
        <pt x="455" y="17" on="0"/>
        <pt x="450" y="0" on="1"/>
        <pt x="28" y="0" on="1"/>
        <pt x="24" y="0" on="0"/>
        <pt x="21" y="3" on="1"/>
        <pt x="19" y="7" on="0"/>
        <pt x="20" y="11" on="1"/>
        <pt x="25" y="28" on="0"/>
        <pt x="33" y="59" on="0"/>
      </contour>
    </TTGlyph>
    <TTGlyph name="J" xMin="43" yMin="-20" xMax="604" yMax="700">
      <contour>
        <pt x="215" y="56" on="1"/>
        <pt x="289" y="56" on="0"/>
        <pt x="375" y="131" on="0"/>
        <pt x="396" y="212" on="1"/>
        <pt x="500" y="626" on="1"/>
        <pt x="235" y="626" on="1"/>
        <pt x="230" y="626" on="0"/>
        <pt x="228" y="629" on="1"/>
        <pt x="225" y="632" on="0"/>
        <pt x="227" y="637" on="1"/>
        <pt x="231" y="654" on="0"/>
        <pt x="238" y="684" on="0"/>
        <pt x="242" y="700" on="1"/>
        <pt x="593" y="700" on="1"/>
        <pt x="604" y="700" on="0"/>
        <pt x="601" y="689" on="1"/>
        <pt x="482" y="215" on="1"/>
        <pt x="482" y="214" on="0"/>
        <pt x="482" y="213" on="1"/>
        <pt x="452" y="90" on="0"/>
        <pt x="319" y="-20" on="0"/>
        <pt x="210" y="-20" on="1"/>
        <pt x="203" y="-20" on="1"/>
        <pt x="141" y="-20" on="0"/>
        <pt x="58" y="10" on="0"/>
        <pt x="45" y="26" on="1"/>
        <pt x="43" y="31" on="0"/>
        <pt x="44" y="39" on="1"/>
        <pt x="48" y="55" on="0"/>
        <pt x="55" y="82" on="0"/>
        <pt x="59" y="98" on="1"/>
        <pt x="73" y="98" on="1"/>
        <pt x="105" y="76" on="0"/>
        <pt x="169" y="56" on="0"/>
      </contour>
    </TTGlyph>
    <TTGlyph name="Jcircumflex" xMin="41" yMin="-20" xMax="652" yMax="945">
      <contour>
        <pt x="290" y="776" on="1"/>
        <pt x="221" y="776" on="1"/>
        <pt x="209" y="776" on="0"/>
        <pt x="211" y="783" on="1"/>
        <pt x="213" y="787" on="0"/>
        <pt x="222" y="796" on="0"/>
        <pt x="241" y="809" on="1"/>
        <pt x="256" y="820" on="0"/>
        <pt x="306" y="857" on="0"/>
        <pt x="363" y="899" on="0"/>
        <pt x="412" y="935" on="0"/>
        <pt x="425" y="945" on="1"/>
        <pt x="498" y="945" on="1"/>
        <pt x="506" y="945" on="0"/>
        <pt x="515" y="938" on="0"/>
        <pt x="527" y="925" on="1"/>
        <pt x="535" y="915" on="0"/>
        <pt x="579" y="862" on="0"/>
        <pt x="632" y="800" on="0"/>
        <pt x="652" y="776" on="1"/>
        <pt x="577" y="776" on="1"/>
        <pt x="566" y="776" on="0"/>
        <pt x="556" y="780" on="0"/>
        <pt x="550" y="786" on="1"/>
        <pt x="537" y="798" on="0"/>
        <pt x="485" y="850" on="0"/>
        <pt x="452" y="882" on="1"/>
        <pt x="405" y="851" on="0"/>
        <pt x="325" y="800" on="0"/>
      </contour>
      <contour>
        <pt x="204" y="58" on="1"/>
        <pt x="284" y="58" on="0"/>
        <pt x="378" y="139" on="0"/>
        <pt x="398" y="217" on="1"/>
        <pt x="400" y="223" on="1"/>
        <pt x="500" y="623" on="1"/>
        <pt x="235" y="623" on="1"/>
        <pt x="230" y="623" on="0"/>
        <pt x="227" y="626" on="1"/>
        <pt x="226" y="628" on="0"/>
        <pt x="226" y="634" on="1"/>
        <pt x="231" y="652" on="0"/>
        <pt x="239" y="683" on="0"/>
        <pt x="243" y="700" on="1"/>
        <pt x="594" y="700" on="1"/>
        <pt x="605" y="700" on="0"/>
        <pt x="602" y="689" on="1"/>
        <pt x="487" y="230" on="1"/>
        <pt x="487" y="229" on="0"/>
        <pt x="487" y="228" on="1"/>
        <pt x="469" y="156" on="0"/>
        <pt x="391" y="44" on="0"/>
        <pt x="271" y="-20" on="0"/>
        <pt x="191" y="-20" on="1"/>
        <pt x="178" y="-20" on="1"/>
        <pt x="132" y="-20" on="0"/>
        <pt x="55" y="6" on="0"/>
        <pt x="43" y="22" on="1"/>
        <pt x="41" y="24" on="0"/>
        <pt x="42" y="30" on="1"/>
        <pt x="47" y="48" on="0"/>
        <pt x="55" y="80" on="0"/>
        <pt x="59" y="99" on="1"/>
        <pt x="74" y="99" on="1"/>
        <pt x="132" y="58" on="0"/>
      </contour>
    </TTGlyph>
    <TTGlyph name="K" xMin="16" yMin="-3" xMax="651" yMax="700">
      <contour>
        <pt x="192" y="700" on="1"/>
        <pt x="266" y="700" on="1"/>
        <pt x="271" y="700" on="0"/>
        <pt x="273" y="698" on="1"/>
        <pt x="276" y="695" on="0"/>
        <pt x="274" y="689" on="1"/>
        <pt x="179" y="307" on="1"/>
        <pt x="270" y="401" on="0"/>
        <pt x="467" y="605" on="0"/>
        <pt x="559" y="700" on="1"/>
        <pt x="642" y="700" on="1"/>
        <pt x="651" y="700" on="0"/>
        <pt x="649" y="694" on="1"/>
        <pt x="649" y="692" on="0"/>
        <pt x="642" y="682" on="0"/>
        <pt x="618" y="656" on="0"/>
        <pt x="590" y="628" on="1"/>
        <pt x="536" y="574" on="0"/>
        <pt x="402" y="438" on="0"/>
        <pt x="325" y="361" on="1"/>
        <pt x="429" y="111" on="1"/>
        <pt x="437" y="91" on="0"/>
        <pt x="459" y="77" on="0"/>
        <pt x="481" y="77" on="1"/>
        <pt x="516" y="77" on="1"/>
        <pt x="512" y="60" on="0"/>
        <pt x="503" y="25" on="0"/>
        <pt x="499" y="8" on="1"/>
        <pt x="496" y="-3" on="0"/>
        <pt x="485" y="-3" on="1"/>
        <pt x="457" y="-3" on="1"/>
        <pt x="418" y="-3" on="0"/>
        <pt x="377" y="24" on="0"/>
        <pt x="362" y="61" on="1"/>
        <pt x="262" y="298" on="1"/>
        <pt x="227" y="263" on="0"/>
        <pt x="163" y="198" on="0"/>
        <pt x="148" y="183" on="1"/>
        <pt x="102" y="0" on="1"/>
        <pt x="28" y="0" on="1"/>
        <pt x="16" y="0" on="0"/>
        <pt x="20" y="11" on="1"/>
        <pt x="166" y="598" on="1"/>
        <pt x="173" y="624" on="0"/>
        <pt x="186" y="675" on="0"/>
      </contour>
    </TTGlyph>
    <TTGlyph name="Kcommaaccent" xMin="18" yMin="-239" xMax="651" yMax="700">
      <contour>
        <pt x="192" y="700" on="1"/>
        <pt x="266" y="700" on="1"/>
        <pt x="272" y="700" on="0"/>
        <pt x="273" y="697" on="1"/>
        <pt x="276" y="694" on="0"/>
        <pt x="274" y="689" on="1"/>
        <pt x="179" y="307" on="1"/>
        <pt x="270" y="401" on="0"/>
        <pt x="467" y="605" on="0"/>
        <pt x="559" y="700" on="1"/>
        <pt x="643" y="700" on="1"/>
        <pt x="651" y="700" on="0"/>
        <pt x="649" y="693" on="1"/>
        <pt x="649" y="690" on="0"/>
        <pt x="642" y="681" on="0"/>
        <pt x="618" y="656" on="0"/>
        <pt x="590" y="628" on="1"/>
        <pt x="538" y="575" on="0"/>
        <pt x="405" y="443" on="0"/>
        <pt x="330" y="368" on="1"/>
        <pt x="438" y="111" on="1"/>
        <pt x="446" y="91" on="0"/>
        <pt x="466" y="78" on="0"/>
        <pt x="487" y="78" on="1"/>
        <pt x="516" y="78" on="1"/>
        <pt x="512" y="61" on="0"/>
        <pt x="504" y="25" on="0"/>
        <pt x="499" y="8" on="1"/>
        <pt x="496" y="-3" on="0"/>
        <pt x="485" y="-3" on="1"/>
        <pt x="455" y="-3" on="1"/>
        <pt x="413" y="-3" on="0"/>
        <pt x="375" y="24" on="0"/>
        <pt x="359" y="61" on="1"/>
        <pt x="259" y="298" on="1"/>
        <pt x="232" y="271" on="0"/>
        <pt x="177" y="216" on="0"/>
        <pt x="149" y="188" on="1"/>
        <pt x="102" y="0" on="1"/>
        <pt x="28" y="0" on="1"/>
        <pt x="18" y="0" on="0"/>
        <pt x="20" y="11" on="1"/>
        <pt x="167" y="598" on="1"/>
        <pt x="174" y="624" on="0"/>
        <pt x="186" y="675" on="0"/>
      </contour>
      <contour>
        <pt x="187" y="-239" on="1"/>
        <pt x="129" y="-239" on="1"/>
        <pt x="151" y="-189" on="0"/>
        <pt x="186" y="-112" on="0"/>
        <pt x="205" y="-67" on="1"/>
        <pt x="290" y="-67" on="1"/>
        <pt x="296" y="-67" on="0"/>
        <pt x="301" y="-75" on="0"/>
        <pt x="297" y="-81" on="1"/>
        <pt x="279" y="-110" on="0"/>
        <pt x="252" y="-154" on="0"/>
        <pt x="224" y="-198" on="0"/>
        <pt x="204" y="-229" on="1"/>
        <pt x="202" y="-233" on="0"/>
        <pt x="194" y="-239" on="0"/>
      </contour>
    </TTGlyph>
    <TTGlyph name="L" xMin="17" yMin="0" xMax="485" yMax="700">
      <contour>
        <pt x="35" y="74" on="1"/>
        <pt x="167" y="601" on="1"/>
        <pt x="174" y="626" on="0"/>
        <pt x="186" y="675" on="0"/>
        <pt x="192" y="700" on="1"/>
        <pt x="266" y="700" on="1"/>
        <pt x="272" y="700" on="0"/>
        <pt x="273" y="697" on="1"/>
        <pt x="276" y="694" on="0"/>
        <pt x="274" y="689" on="1"/>
        <pt x="120" y="74" on="1"/>
        <pt x="474" y="74" on="1"/>
        <pt x="485" y="74" on="0"/>
        <pt x="483" y="63" on="1"/>
        <pt x="478" y="47" on="0"/>
        <pt x="471" y="17" on="0"/>
        <pt x="467" y="0" on="1"/>
        <pt x="28" y="0" on="1"/>
        <pt x="17" y="0" on="0"/>
        <pt x="20" y="11" on="1"/>
      </contour>
    </TTGlyph>
    <TTGlyph name="Lacute" xMin="18" yMin="0" xMax="487" yMax="947">
      <contour>
        <pt x="280" y="775" on="1"/>
        <pt x="213" y="775" on="1"/>
        <pt x="253" y="820" on="0"/>
        <pt x="324" y="901" on="0"/>
        <pt x="365" y="947" on="1"/>
        <pt x="459" y="947" on="1"/>
        <pt x="465" y="947" on="0"/>
        <pt x="467" y="938" on="0"/>
        <pt x="462" y="933" on="1"/>
        <pt x="438" y="911" on="0"/>
        <pt x="402" y="878" on="0"/>
        <pt x="368" y="847" on="0"/>
        <pt x="327" y="809" on="0"/>
        <pt x="298" y="782" on="1"/>
        <pt x="295" y="780" on="0"/>
        <pt x="286" y="775" on="0"/>
      </contour>
      <contour>
        <pt x="37" y="77" on="1"/>
        <pt x="168" y="601" on="1"/>
        <pt x="192" y="700" on="1"/>
        <pt x="266" y="700" on="1"/>
        <pt x="272" y="700" on="0"/>
        <pt x="273" y="697" on="1"/>
        <pt x="276" y="694" on="0"/>
        <pt x="274" y="689" on="1"/>
        <pt x="121" y="77" on="1"/>
        <pt x="475" y="77" on="1"/>
        <pt x="487" y="77" on="0"/>
        <pt x="483" y="66" on="1"/>
        <pt x="479" y="48" on="0"/>
        <pt x="472" y="17" on="0"/>
        <pt x="467" y="0" on="1"/>
        <pt x="28" y="0" on="1"/>
        <pt x="18" y="0" on="0"/>
        <pt x="20" y="11" on="1"/>
        <pt x="37" y="76" on="1"/>
        <pt x="37" y="76" on="0"/>
      </contour>
    </TTGlyph>
    <TTGlyph name="Lcaron" xMin="18" yMin="0" xMax="586" yMax="700">
      <contour>
        <pt x="37" y="77" on="1"/>
        <pt x="168" y="601" on="1"/>
        <pt x="192" y="700" on="1"/>
        <pt x="266" y="700" on="1"/>
        <pt x="272" y="700" on="0"/>
        <pt x="273" y="697" on="1"/>
        <pt x="276" y="694" on="0"/>
        <pt x="274" y="689" on="1"/>
        <pt x="121" y="77" on="1"/>
        <pt x="475" y="77" on="1"/>
        <pt x="487" y="77" on="0"/>
        <pt x="483" y="66" on="1"/>
        <pt x="479" y="48" on="0"/>
        <pt x="472" y="17" on="0"/>
        <pt x="467" y="0" on="1"/>
        <pt x="28" y="0" on="1"/>
        <pt x="18" y="0" on="0"/>
        <pt x="20" y="11" on="1"/>
        <pt x="37" y="76" on="1"/>
        <pt x="37" y="76" on="0"/>
      </contour>
      <contour>
        <pt x="455" y="475" on="1"/>
        <pt x="408" y="475" on="1"/>
        <pt x="425" y="522" on="0"/>
        <pt x="448" y="587" on="0"/>
        <pt x="471" y="653" on="0"/>
        <pt x="487" y="700" on="1"/>
        <pt x="574" y="700" on="1"/>
        <pt x="583" y="700" on="0"/>
        <pt x="586" y="690" on="0"/>
        <pt x="582" y="684" on="1"/>
        <pt x="560" y="645" on="0"/>
        <pt x="527" y="585" on="0"/>
        <pt x="495" y="526" on="0"/>
        <pt x="473" y="486" on="1"/>
        <pt x="468" y="475" on="0"/>
      </contour>
    </TTGlyph>
    <TTGlyph name="Lcommaaccent" xMin="18" yMin="-239" xMax="487" yMax="700">
      <contour>
        <pt x="37" y="77" on="1"/>
        <pt x="168" y="601" on="1"/>
        <pt x="192" y="700" on="1"/>
        <pt x="266" y="700" on="1"/>
        <pt x="272" y="700" on="0"/>
        <pt x="273" y="697" on="1"/>
        <pt x="276" y="694" on="0"/>
        <pt x="274" y="689" on="1"/>
        <pt x="121" y="77" on="1"/>
        <pt x="475" y="77" on="1"/>
        <pt x="487" y="77" on="0"/>
        <pt x="483" y="66" on="1"/>
        <pt x="479" y="48" on="0"/>
        <pt x="472" y="17" on="0"/>
        <pt x="467" y="0" on="1"/>
        <pt x="28" y="0" on="1"/>
        <pt x="18" y="0" on="0"/>
        <pt x="20" y="11" on="1"/>
        <pt x="37" y="76" on="1"/>
        <pt x="37" y="76" on="0"/>
      </contour>
      <contour>
        <pt x="172" y="-239" on="1"/>
        <pt x="114" y="-239" on="1"/>
        <pt x="136" y="-189" on="0"/>
        <pt x="171" y="-112" on="0"/>
        <pt x="190" y="-67" on="1"/>
        <pt x="275" y="-67" on="1"/>
        <pt x="281" y="-67" on="0"/>
        <pt x="286" y="-75" on="0"/>
        <pt x="282" y="-81" on="1"/>
        <pt x="264" y="-110" on="0"/>
        <pt x="237" y="-154" on="0"/>
        <pt x="209" y="-198" on="0"/>
        <pt x="189" y="-229" on="1"/>
        <pt x="187" y="-233" on="0"/>
        <pt x="179" y="-239" on="0"/>
      </contour>
    </TTGlyph>
    <TTGlyph name="Ldot" xMin="18" yMin="0" xMax="494" yMax="700">
      <contour>
        <pt x="37" y="77" on="1"/>
        <pt x="168" y="601" on="1"/>
        <pt x="192" y="700" on="1"/>
        <pt x="266" y="700" on="1"/>
        <pt x="272" y="700" on="0"/>
        <pt x="273" y="697" on="1"/>
        <pt x="276" y="694" on="0"/>
        <pt x="274" y="689" on="1"/>
        <pt x="121" y="77" on="1"/>
        <pt x="475" y="77" on="1"/>
        <pt x="487" y="77" on="0"/>
        <pt x="483" y="66" on="1"/>
        <pt x="479" y="48" on="0"/>
        <pt x="472" y="17" on="0"/>
        <pt x="467" y="0" on="1"/>
        <pt x="28" y="0" on="1"/>
        <pt x="18" y="0" on="0"/>
        <pt x="20" y="11" on="1"/>
        <pt x="37" y="76" on="1"/>
        <pt x="37" y="76" on="0"/>
      </contour>
      <contour>
        <pt x="467" y="346" on="1"/>
        <pt x="367" y="346" on="1"/>
        <pt x="355" y="346" on="0"/>
        <pt x="359" y="357" on="1"/>
        <pt x="383" y="454" on="1"/>
        <pt x="483" y="454" on="1"/>
        <pt x="494" y="454" on="0"/>
        <pt x="492" y="443" on="1"/>
      </contour>
    </TTGlyph>
    <TTGlyph name="Lslash" xMin="31" yMin="0" xMax="487" yMax="700">
      <contour>
        <pt x="451" y="500" on="1"/>
        <pt x="449" y="490" on="0"/>
        <pt x="442" y="462" on="0"/>
        <pt x="434" y="430" on="1"/>
        <pt x="431" y="419" on="0"/>
        <pt x="421" y="414" on="1"/>
        <pt x="202" y="313" on="1"/>
        <pt x="143" y="77" on="1"/>
        <pt x="475" y="77" on="1"/>
        <pt x="487" y="77" on="0"/>
        <pt x="483" y="66" on="1"/>
        <pt x="479" y="48" on="0"/>
        <pt x="472" y="17" on="0"/>
        <pt x="467" y="0" on="1"/>
        <pt x="50" y="0" on="1"/>
        <pt x="39" y="0" on="0"/>
        <pt x="42" y="11" on="1"/>
        <pt x="54" y="60" on="1"/>
        <pt x="54" y="61" on="1"/>
        <pt x="108" y="279" on="1"/>
        <pt x="31" y="243" on="1"/>
        <pt x="33" y="252" on="0"/>
        <pt x="41" y="280" on="0"/>
        <pt x="48" y="311" on="1"/>
        <pt x="50" y="318" on="0"/>
        <pt x="54" y="325" on="0"/>
        <pt x="60" y="327" on="1"/>
        <pt x="128" y="358" on="1"/>
        <pt x="189" y="601" on="1"/>
        <pt x="195" y="626" on="0"/>
        <pt x="208" y="675" on="0"/>
        <pt x="214" y="700" on="1"/>
        <pt x="287" y="700" on="1"/>
        <pt x="292" y="700" on="0"/>
        <pt x="295" y="697" on="1"/>
        <pt x="296" y="695" on="0"/>
        <pt x="296" y="689" on="1"/>
        <pt x="222" y="392" on="1"/>
      </contour>
    </TTGlyph>
    <TTGlyph name="M" xMin="1" yMin="0" xMax="641" yMax="700">
      <contour>
        <pt x="81" y="0" on="1"/>
        <pt x="11" y="0" on="1"/>
        <pt x="6" y="0" on="0"/>
        <pt x="4" y="3" on="1"/>
        <pt x="1" y="6" on="0"/>
        <pt x="3" y="11" on="1"/>
        <pt x="150" y="600" on="1"/>
        <pt x="156" y="625" on="0"/>
        <pt x="169" y="675" on="0"/>
        <pt x="175" y="700" on="1"/>
        <pt x="248" y="700" on="1"/>
        <pt x="258" y="700" on="0"/>
        <pt x="261" y="688" on="1"/>
        <pt x="272" y="593" on="0"/>
        <pt x="295" y="403" on="0"/>
        <pt x="307" y="308" on="1"/>
        <pt x="368" y="405" on="0"/>
        <pt x="492" y="603" on="0"/>
        <pt x="553" y="700" on="1"/>
        <pt x="631" y="700" on="1"/>
        <pt x="637" y="700" on="0"/>
        <pt x="638" y="697" on="1"/>
        <pt x="641" y="694" on="0"/>
        <pt x="639" y="689" on="1"/>
        <pt x="493" y="101" on="1"/>
        <pt x="486" y="76" on="0"/>
        <pt x="474" y="26" on="0"/>
        <pt x="467" y="0" on="1"/>
        <pt x="397" y="0" on="1"/>
        <pt x="392" y="0" on="0"/>
        <pt x="390" y="3" on="1"/>
        <pt x="387" y="6" on="0"/>
        <pt x="389" y="11" on="1"/>
        <pt x="398" y="49" on="0"/>
        <pt x="417" y="124" on="0"/>
        <pt x="427" y="162" on="1"/>
        <pt x="435" y="195" on="0"/>
        <pt x="460" y="288" on="0"/>
        <pt x="489" y="395" on="0"/>
        <pt x="519" y="504" on="0"/>
        <pt x="533" y="552" on="1"/>
        <pt x="470" y="454" on="0"/>
        <pt x="345" y="259" on="0"/>
        <pt x="282" y="161" on="1"/>
        <pt x="271" y="161" on="1"/>
        <pt x="264" y="161" on="0"/>
        <pt x="261" y="168" on="1"/>
        <pt x="248" y="265" on="0"/>
        <pt x="223" y="460" on="0"/>
        <pt x="210" y="557" on="1"/>
        <pt x="195" y="490" on="0"/>
        <pt x="164" y="344" on="0"/>
        <pt x="134" y="211" on="0"/>
        <pt x="122" y="162" on="1"/>
        <pt x="112" y="122" on="0"/>
        <pt x="92" y="41" on="0"/>
      </contour>
    </TTGlyph>
    <TTGlyph name="N" xMin="7" yMin="0" xMax="634" yMax="700">
      <contour>
        <pt x="90" y="0" on="1"/>
        <pt x="19" y="0" on="1"/>
        <pt x="7" y="0" on="0"/>
        <pt x="11" y="11" on="1"/>
        <pt x="148" y="560" on="1"/>
        <pt x="157" y="595" on="0"/>
        <pt x="174" y="665" on="0"/>
        <pt x="183" y="700" on="1"/>
        <pt x="266" y="700" on="1"/>
        <pt x="279" y="700" on="0"/>
        <pt x="281" y="690" on="1"/>
        <pt x="313" y="551" on="0"/>
        <pt x="379" y="269" on="0"/>
        <pt x="412" y="130" on="1"/>
        <pt x="417" y="157" on="0"/>
        <pt x="418" y="161" on="1"/>
        <pt x="552" y="700" on="1"/>
        <pt x="622" y="700" on="1"/>
        <pt x="634" y="700" on="0"/>
        <pt x="630" y="689" on="1"/>
        <pt x="458" y="0" on="1"/>
        <pt x="378" y="0" on="1"/>
        <pt x="368" y="0" on="0"/>
        <pt x="367" y="7" on="1"/>
        <pt x="333" y="149" on="0"/>
        <pt x="265" y="435" on="0"/>
        <pt x="231" y="577" on="1"/>
        <pt x="227" y="558" on="0"/>
        <pt x="222" y="529" on="0"/>
        <pt x="221" y="525" on="1"/>
      </contour>
    </TTGlyph>
    <TTGlyph name="Nacute" xMin="8" yMin="0" xMax="641" yMax="947">
      <contour>
        <pt x="454" y="775" on="1"/>
        <pt x="387" y="775" on="1"/>
        <pt x="427" y="820" on="0"/>
        <pt x="498" y="901" on="0"/>
        <pt x="539" y="947" on="1"/>
        <pt x="633" y="947" on="1"/>
        <pt x="639" y="947" on="0"/>
        <pt x="641" y="937" on="0"/>
        <pt x="636" y="932" on="1"/>
        <pt x="612" y="910" on="0"/>
        <pt x="576" y="878" on="0"/>
        <pt x="542" y="847" on="0"/>
        <pt x="501" y="809" on="0"/>
        <pt x="472" y="782" on="1"/>
        <pt x="465" y="775" on="0"/>
      </contour>
      <contour>
        <pt x="90" y="0" on="1"/>
        <pt x="20" y="0" on="1"/>
        <pt x="8" y="0" on="0"/>
        <pt x="12" y="11" on="1"/>
        <pt x="149" y="560" on="1"/>
        <pt x="158" y="595" on="0"/>
        <pt x="175" y="665" on="0"/>
        <pt x="184" y="700" on="1"/>
        <pt x="273" y="700" on="1"/>
        <pt x="285" y="700" on="0"/>
        <pt x="287" y="690" on="1"/>
        <pt x="318" y="555" on="0"/>
        <pt x="382" y="282" on="0"/>
        <pt x="415" y="146" on="1"/>
        <pt x="417" y="159" on="0"/>
        <pt x="418" y="161" on="1"/>
        <pt x="552" y="700" on="1"/>
        <pt x="623" y="700" on="1"/>
        <pt x="633" y="700" on="0"/>
        <pt x="631" y="689" on="1"/>
        <pt x="459" y="0" on="1"/>
        <pt x="378" y="0" on="1"/>
        <pt x="369" y="0" on="0"/>
        <pt x="366" y="7" on="1"/>
        <pt x="332" y="149" on="0"/>
        <pt x="264" y="434" on="0"/>
        <pt x="231" y="576" on="1"/>
        <pt x="227" y="557" on="0"/>
        <pt x="222" y="529" on="0"/>
        <pt x="221" y="525" on="1"/>
      </contour>
    </TTGlyph>
    <TTGlyph name="Ncaron" xMin="8" yMin="0" xMax="686" yMax="945">
      <contour>
        <pt x="244" y="945" on="1"/>
        <pt x="318" y="945" on="1"/>
        <pt x="329" y="945" on="0"/>
        <pt x="340" y="941" on="0"/>
        <pt x="346" y="934" on="1"/>
        <pt x="359" y="922" on="0"/>
        <pt x="411" y="870" on="0"/>
        <pt x="444" y="838" on="1"/>
        <pt x="491" y="869" on="0"/>
        <pt x="570" y="921" on="0"/>
        <pt x="606" y="945" on="1"/>
        <pt x="674" y="945" on="1"/>
        <pt x="686" y="945" on="0"/>
        <pt x="684" y="937" on="1"/>
        <pt x="683" y="933" on="0"/>
        <pt x="674" y="925" on="0"/>
        <pt x="655" y="911" on="1"/>
        <pt x="640" y="900" on="0"/>
        <pt x="590" y="863" on="0"/>
        <pt x="533" y="821" on="0"/>
        <pt x="485" y="785" on="0"/>
        <pt x="471" y="775" on="1"/>
        <pt x="398" y="775" on="1"/>
        <pt x="391" y="775" on="0"/>
        <pt x="381" y="783" on="0"/>
        <pt x="369" y="796" on="1"/>
        <pt x="361" y="806" on="0"/>
        <pt x="317" y="858" on="0"/>
        <pt x="264" y="921" on="0"/>
      </contour>
      <contour>
        <pt x="90" y="0" on="1"/>
        <pt x="20" y="0" on="1"/>
        <pt x="8" y="0" on="0"/>
        <pt x="12" y="11" on="1"/>
        <pt x="149" y="560" on="1"/>
        <pt x="158" y="595" on="0"/>
        <pt x="175" y="665" on="0"/>
        <pt x="184" y="700" on="1"/>
        <pt x="273" y="700" on="1"/>
        <pt x="285" y="700" on="0"/>
        <pt x="287" y="690" on="1"/>
        <pt x="318" y="555" on="0"/>
        <pt x="382" y="282" on="0"/>
        <pt x="415" y="146" on="1"/>
        <pt x="417" y="159" on="0"/>
        <pt x="418" y="161" on="1"/>
        <pt x="552" y="700" on="1"/>
        <pt x="623" y="700" on="1"/>
        <pt x="633" y="700" on="0"/>
        <pt x="631" y="689" on="1"/>
        <pt x="459" y="0" on="1"/>
        <pt x="378" y="0" on="1"/>
        <pt x="369" y="0" on="0"/>
        <pt x="366" y="7" on="1"/>
        <pt x="332" y="149" on="0"/>
        <pt x="264" y="434" on="0"/>
        <pt x="231" y="576" on="1"/>
        <pt x="227" y="557" on="0"/>
        <pt x="222" y="529" on="0"/>
        <pt x="221" y="525" on="1"/>
      </contour>
    </TTGlyph>
    <TTGlyph name="Ncommaaccent" xMin="8" yMin="-239" xMax="633" yMax="700">
      <contour>
        <pt x="90" y="0" on="1"/>
        <pt x="20" y="0" on="1"/>
        <pt x="8" y="0" on="0"/>
        <pt x="12" y="11" on="1"/>
        <pt x="149" y="560" on="1"/>
        <pt x="158" y="595" on="0"/>
        <pt x="175" y="665" on="0"/>
        <pt x="184" y="700" on="1"/>
        <pt x="273" y="700" on="1"/>
        <pt x="285" y="700" on="0"/>
        <pt x="287" y="690" on="1"/>
        <pt x="318" y="555" on="0"/>
        <pt x="382" y="282" on="0"/>
        <pt x="415" y="146" on="1"/>
        <pt x="417" y="159" on="0"/>
        <pt x="418" y="161" on="1"/>
        <pt x="552" y="700" on="1"/>
        <pt x="623" y="700" on="1"/>
        <pt x="633" y="700" on="0"/>
        <pt x="631" y="689" on="1"/>
        <pt x="459" y="0" on="1"/>
        <pt x="378" y="0" on="1"/>
        <pt x="369" y="0" on="0"/>
        <pt x="366" y="7" on="1"/>
        <pt x="332" y="149" on="0"/>
        <pt x="264" y="434" on="0"/>
        <pt x="231" y="576" on="1"/>
        <pt x="227" y="557" on="0"/>
        <pt x="222" y="529" on="0"/>
        <pt x="221" y="525" on="1"/>
      </contour>
      <contour>
        <pt x="163" y="-239" on="1"/>
        <pt x="106" y="-239" on="1"/>
        <pt x="128" y="-189" on="0"/>
        <pt x="162" y="-112" on="0"/>
        <pt x="182" y="-67" on="1"/>
        <pt x="267" y="-67" on="1"/>
        <pt x="273" y="-67" on="0"/>
        <pt x="278" y="-75" on="0"/>
        <pt x="274" y="-81" on="1"/>
        <pt x="256" y="-110" on="0"/>
        <pt x="228" y="-154" on="0"/>
        <pt x="200" y="-198" on="0"/>
        <pt x="181" y="-229" on="1"/>
        <pt x="179" y="-233" on="0"/>
        <pt x="170" y="-239" on="0"/>
      </contour>
    </TTGlyph>
    <TTGlyph name="Nhookleft" xMin="-151" yMin="-159" xMax="633" yMax="700">
      <contour>
        <pt x="90" y="0" on="1"/>
        <pt x="90" y="0" on="1"/>
        <pt x="89" y="-4" on="1"/>
        <pt x="73" y="-71" on="0"/>
        <pt x="-15" y="-159" on="0"/>
        <pt x="-81" y="-159" on="1"/>
        <pt x="-88" y="-159" on="1"/>
        <pt x="-109" y="-159" on="0"/>
        <pt x="-143" y="-145" on="0"/>
        <pt x="-149" y="-137" on="1"/>
        <pt x="-151" y="-135" on="0"/>
        <pt x="-150" y="-129" on="1"/>
        <pt x="-146" y="-112" on="0"/>
        <pt x="-138" y="-81" on="0"/>
        <pt x="-134" y="-64" on="1"/>
        <pt x="-119" y="-64" on="1"/>
        <pt x="-108" y="-72" on="0"/>
        <pt x="-87" y="-81" on="0"/>
        <pt x="-73" y="-81" on="1"/>
        <pt x="-43" y="-81" on="0"/>
        <pt x="-2" y="-43" on="0"/>
        <pt x="10" y="5" on="1"/>
        <pt x="13" y="16" on="1"/>
        <pt x="13" y="16" on="1"/>
        <pt x="149" y="560" on="1"/>
        <pt x="158" y="595" on="0"/>
        <pt x="175" y="665" on="0"/>
        <pt x="184" y="700" on="1"/>
        <pt x="273" y="700" on="1"/>
        <pt x="285" y="700" on="0"/>
        <pt x="287" y="690" on="1"/>
        <pt x="318" y="555" on="0"/>
        <pt x="382" y="282" on="0"/>
        <pt x="415" y="146" on="1"/>
        <pt x="417" y="159" on="0"/>
        <pt x="418" y="161" on="1"/>
        <pt x="552" y="700" on="1"/>
        <pt x="623" y="700" on="1"/>
        <pt x="633" y="700" on="0"/>
        <pt x="631" y="689" on="1"/>
        <pt x="459" y="0" on="1"/>
        <pt x="378" y="0" on="1"/>
        <pt x="369" y="0" on="0"/>
        <pt x="366" y="7" on="1"/>
        <pt x="332" y="149" on="0"/>
        <pt x="264" y="434" on="0"/>
        <pt x="231" y="576" on="1"/>
        <pt x="227" y="557" on="0"/>
        <pt x="222" y="529" on="0"/>
        <pt x="221" y="525" on="1"/>
      </contour>
    </TTGlyph>
    <TTGlyph name="Ntilde" xMin="8" yMin="0" xMax="648" yMax="928">
      <contour>
        <pt x="543" y="866" on="1"/>
        <pt x="569" y="866" on="0"/>
        <pt x="609" y="888" on="0"/>
        <pt x="634" y="910" on="1"/>
        <pt x="648" y="910" on="1"/>
        <pt x="644" y="895" on="0"/>
        <pt x="635" y="859" on="0"/>
        <pt x="631" y="845" on="1"/>
        <pt x="630" y="840" on="0"/>
        <pt x="627" y="832" on="0"/>
        <pt x="620" y="827" on="1"/>
        <pt x="600" y="811" on="0"/>
        <pt x="554" y="790" on="0"/>
        <pt x="523" y="790" on="1"/>
        <pt x="495" y="790" on="0"/>
        <pt x="452" y="809" on="0"/>
        <pt x="415" y="833" on="0"/>
        <pt x="377" y="852" on="0"/>
        <pt x="354" y="852" on="1"/>
        <pt x="329" y="852" on="0"/>
        <pt x="288" y="831" on="0"/>
        <pt x="263" y="808" on="1"/>
        <pt x="249" y="808" on="1"/>
        <pt x="253" y="823" on="0"/>
        <pt x="262" y="860" on="0"/>
        <pt x="266" y="874" on="1"/>
        <pt x="267" y="878" on="0"/>
        <pt x="270" y="886" on="0"/>
        <pt x="277" y="891" on="1"/>
        <pt x="297" y="908" on="0"/>
        <pt x="343" y="928" on="0"/>
        <pt x="374" y="928" on="1"/>
        <pt x="402" y="928" on="0"/>
        <pt x="445" y="909" on="0"/>
        <pt x="482" y="885" on="0"/>
        <pt x="520" y="866" on="0"/>
      </contour>
      <contour>
        <pt x="90" y="0" on="1"/>
        <pt x="20" y="0" on="1"/>
        <pt x="8" y="0" on="0"/>
        <pt x="12" y="11" on="1"/>
        <pt x="149" y="560" on="1"/>
        <pt x="158" y="595" on="0"/>
        <pt x="175" y="665" on="0"/>
        <pt x="184" y="700" on="1"/>
        <pt x="273" y="700" on="1"/>
        <pt x="285" y="700" on="0"/>
        <pt x="287" y="690" on="1"/>
        <pt x="318" y="555" on="0"/>
        <pt x="382" y="282" on="0"/>
        <pt x="415" y="146" on="1"/>
        <pt x="417" y="159" on="0"/>
        <pt x="418" y="161" on="1"/>
        <pt x="552" y="700" on="1"/>
        <pt x="623" y="700" on="1"/>
        <pt x="633" y="700" on="0"/>
        <pt x="631" y="689" on="1"/>
        <pt x="459" y="0" on="1"/>
        <pt x="378" y="0" on="1"/>
        <pt x="369" y="0" on="0"/>
        <pt x="366" y="7" on="1"/>
        <pt x="332" y="149" on="0"/>
        <pt x="264" y="434" on="0"/>
        <pt x="231" y="576" on="1"/>
        <pt x="227" y="557" on="0"/>
        <pt x="222" y="529" on="0"/>
        <pt x="221" y="525" on="1"/>
      </contour>
    </TTGlyph>
    <TTGlyph name="O" xMin="35" yMin="-20" xMax="609" yMax="720">
      <contour>
        <pt x="526" y="225" on="1"/>
        <pt x="504" y="133" on="0"/>
        <pt x="423" y="26" on="0"/>
        <pt x="312" y="-20" on="0"/>
        <pt x="244" y="-20" on="1"/>
        <pt x="174" y="-20" on="0"/>
        <pt x="74" y="39" on="0"/>
        <pt x="35" y="150" on="0"/>
        <pt x="54" y="227" on="1"/>
        <pt x="117" y="480" on="1"/>
        <pt x="149" y="606" on="0"/>
        <pt x="287" y="720" on="0"/>
        <pt x="395" y="720" on="1"/>
        <pt x="465" y="720" on="0"/>
        <pt x="567" y="665" on="0"/>
        <pt x="609" y="557" on="0"/>
        <pt x="589" y="478" on="1"/>
      </contour>
      <contour>
        <pt x="135" y="229" on="1"/>
        <pt x="124" y="182" on="0"/>
        <pt x="134" y="102" on="0"/>
        <pt x="194" y="54" on="0"/>
        <pt x="258" y="54" on="1"/>
        <pt x="338" y="54" on="0"/>
        <pt x="426" y="149" on="0"/>
        <pt x="446" y="228" on="1"/>
        <pt x="508" y="475" on="1"/>
        <pt x="521" y="525" on="0"/>
        <pt x="508" y="602" on="0"/>
        <pt x="445" y="646" on="0"/>
        <pt x="382" y="646" on="1"/>
        <pt x="304" y="646" on="0"/>
        <pt x="217" y="553" on="0"/>
        <pt x="197" y="476" on="1"/>
      </contour>
    </TTGlyph>
    <TTGlyph name="OE" xMin="24" yMin="-7" xMax="674" yMax="707">
      <contour>
        <pt x="364" y="707" on="1"/>
        <pt x="394" y="707" on="0"/>
        <pt x="415" y="700" on="1"/>
        <pt x="664" y="700" on="1"/>
        <pt x="670" y="700" on="0"/>
        <pt x="671" y="697" on="1"/>
        <pt x="674" y="694" on="0"/>
        <pt x="672" y="689" on="1"/>
        <pt x="668" y="673" on="0"/>
        <pt x="661" y="641" on="0"/>
        <pt x="656" y="624" on="1"/>
        <pt x="461" y="624" on="1"/>
        <pt x="403" y="391" on="1"/>
        <pt x="560" y="391" on="1"/>
        <pt x="571" y="391" on="0"/>
        <pt x="568" y="380" on="1"/>
        <pt x="564" y="363" on="0"/>
        <pt x="557" y="334" on="0"/>
        <pt x="552" y="317" on="1"/>
        <pt x="384" y="317" on="1"/>
        <pt x="324" y="76" on="1"/>
        <pt x="508" y="76" on="1"/>
        <pt x="520" y="76" on="0"/>
        <pt x="516" y="65" on="1"/>
        <pt x="512" y="48" on="0"/>
        <pt x="504" y="17" on="0"/>
        <pt x="500" y="0" on="1"/>
        <pt x="246" y="0" on="1"/>
        <pt x="221" y="-7" on="0"/>
        <pt x="186" y="-7" on="1"/>
        <pt x="129" y="-7" on="0"/>
        <pt x="51" y="45" on="0"/>
        <pt x="24" y="149" on="0"/>
        <pt x="43" y="227" on="1"/>
        <pt x="104" y="473" on="1"/>
        <pt x="125" y="554" on="0"/>
        <pt x="208" y="657" on="0"/>
        <pt x="313" y="707" on="0"/>
      </contour>
      <contour>
        <pt x="120" y="225" on="1"/>
        <pt x="101" y="152" on="0"/>
        <pt x="148" y="68" on="0"/>
        <pt x="214" y="68" on="1"/>
        <pt x="231" y="68" on="0"/>
        <pt x="246" y="71" on="1"/>
        <pt x="386" y="629" on="1"/>
        <pt x="371" y="632" on="0"/>
        <pt x="352" y="632" on="1"/>
        <pt x="291" y="632" on="0"/>
        <pt x="201" y="547" on="0"/>
        <pt x="181" y="470" on="1"/>
      </contour>
    </TTGlyph>
    <TTGlyph name="Oacute" xMin="22" yMin="-20" xMax="641" yMax="947">
      <contour>
        <pt x="454" y="775" on="1"/>
        <pt x="387" y="775" on="1"/>
        <pt x="427" y="820" on="0"/>
        <pt x="498" y="901" on="0"/>
        <pt x="539" y="947" on="1"/>
        <pt x="633" y="947" on="1"/>
        <pt x="639" y="947" on="0"/>
        <pt x="641" y="938" on="0"/>
        <pt x="636" y="933" on="1"/>
        <pt x="612" y="911" on="0"/>
        <pt x="576" y="878" on="0"/>
        <pt x="542" y="847" on="0"/>
        <pt x="501" y="809" on="0"/>
        <pt x="472" y="782" on="1"/>
        <pt x="469" y="780" on="0"/>
        <pt x="460" y="775" on="0"/>
      </contour>
      <contour>
        <pt x="528" y="230" on="1"/>
        <pt x="507" y="147" on="0"/>
        <pt x="416" y="36" on="0"/>
        <pt x="296" y="-20" on="0"/>
        <pt x="230" y="-20" on="1"/>
        <pt x="119" y="-20" on="0"/>
        <pt x="22" y="101" on="0"/>
        <pt x="52" y="219" on="1"/>
        <pt x="114" y="470" on="1"/>
        <pt x="135" y="553" on="0"/>
        <pt x="226" y="664" on="0"/>
        <pt x="347" y="720" on="0"/>
        <pt x="412" y="720" on="1"/>
        <pt x="523" y="720" on="0"/>
        <pt x="620" y="600" on="0"/>
        <pt x="591" y="481" on="1"/>
      </contour>
      <contour>
        <pt x="134" y="223" on="1"/>
        <pt x="124" y="181" on="0"/>
        <pt x="129" y="105" on="0"/>
        <pt x="184" y="57" on="0"/>
        <pt x="248" y="57" on="1"/>
        <pt x="328" y="57" on="0"/>
        <pt x="427" y="152" on="0"/>
        <pt x="447" y="231" on="1"/>
        <pt x="508" y="477" on="1"/>
        <pt x="519" y="519" on="0"/>
        <pt x="513" y="595" on="0"/>
        <pt x="458" y="643" on="0"/>
        <pt x="394" y="643" on="1"/>
        <pt x="315" y="643" on="0"/>
        <pt x="216" y="549" on="0"/>
        <pt x="196" y="469" on="1"/>
      </contour>
    </TTGlyph>
    <TTGlyph name="Obreve" xMin="22" yMin="-20" xMax="652" yMax="939">
      <contour>
        <pt x="354" y="939" on="1"/>
        <pt x="364" y="899" on="0"/>
        <pt x="408" y="868" on="0"/>
        <pt x="451" y="868" on="1"/>
        <pt x="494" y="868" on="0"/>
        <pt x="552" y="899" on="0"/>
        <pt x="583" y="939" on="1"/>
        <pt x="635" y="939" on="1"/>
        <pt x="652" y="939" on="0"/>
        <pt x="641" y="918" on="1"/>
        <pt x="614" y="866" on="0"/>
        <pt x="508" y="797" on="0"/>
        <pt x="446" y="797" on="1"/>
        <pt x="420" y="797" on="1"/>
        <pt x="358" y="797" on="0"/>
        <pt x="286" y="866" on="0"/>
        <pt x="285" y="918" on="1"/>
        <pt x="285" y="939" on="0"/>
        <pt x="302" y="939" on="1"/>
      </contour>
      <contour>
        <pt x="528" y="230" on="1"/>
        <pt x="507" y="147" on="0"/>
        <pt x="416" y="36" on="0"/>
        <pt x="296" y="-20" on="0"/>
        <pt x="230" y="-20" on="1"/>
        <pt x="119" y="-20" on="0"/>
        <pt x="22" y="101" on="0"/>
        <pt x="52" y="219" on="1"/>
        <pt x="114" y="470" on="1"/>
        <pt x="135" y="553" on="0"/>
        <pt x="226" y="664" on="0"/>
        <pt x="347" y="720" on="0"/>
        <pt x="412" y="720" on="1"/>
        <pt x="523" y="720" on="0"/>
        <pt x="620" y="600" on="0"/>
        <pt x="591" y="481" on="1"/>
      </contour>
      <contour>
        <pt x="134" y="223" on="1"/>
        <pt x="124" y="181" on="0"/>
        <pt x="129" y="105" on="0"/>
        <pt x="184" y="57" on="0"/>
        <pt x="248" y="57" on="1"/>
        <pt x="328" y="57" on="0"/>
        <pt x="427" y="152" on="0"/>
        <pt x="447" y="231" on="1"/>
        <pt x="508" y="477" on="1"/>
        <pt x="519" y="519" on="0"/>
        <pt x="513" y="595" on="0"/>
        <pt x="458" y="643" on="0"/>
        <pt x="394" y="643" on="1"/>
        <pt x="315" y="643" on="0"/>
        <pt x="216" y="549" on="0"/>
        <pt x="196" y="469" on="1"/>
      </contour>
    </TTGlyph>
    <TTGlyph name="Ocircumflex" xMin="22" yMin="-20" xMax="653" yMax="945">
      <contour>
        <pt x="291" y="776" on="1"/>
        <pt x="223" y="776" on="1"/>
        <pt x="211" y="776" on="0"/>
        <pt x="213" y="783" on="1"/>
        <pt x="214" y="787" on="0"/>
        <pt x="224" y="796" on="0"/>
        <pt x="242" y="809" on="1"/>
        <pt x="257" y="820" on="0"/>
        <pt x="307" y="857" on="0"/>
        <pt x="364" y="899" on="0"/>
        <pt x="413" y="935" on="0"/>
        <pt x="426" y="945" on="1"/>
        <pt x="499" y="945" on="1"/>
        <pt x="507" y="945" on="0"/>
        <pt x="517" y="938" on="0"/>
        <pt x="528" y="925" on="1"/>
        <pt x="537" y="915" on="0"/>
        <pt x="581" y="862" on="0"/>
        <pt x="633" y="800" on="0"/>
        <pt x="653" y="776" on="1"/>
        <pt x="579" y="776" on="1"/>
        <pt x="568" y="776" on="0"/>
        <pt x="558" y="780" on="0"/>
        <pt x="551" y="786" on="1"/>
        <pt x="539" y="798" on="0"/>
        <pt x="486" y="850" on="0"/>
        <pt x="454" y="883" on="1"/>
        <pt x="406" y="851" on="0"/>
        <pt x="327" y="800" on="0"/>
      </contour>
      <contour>
        <pt x="528" y="230" on="1"/>
        <pt x="507" y="147" on="0"/>
        <pt x="416" y="36" on="0"/>
        <pt x="296" y="-20" on="0"/>
        <pt x="230" y="-20" on="1"/>
        <pt x="119" y="-20" on="0"/>
        <pt x="22" y="101" on="0"/>
        <pt x="52" y="219" on="1"/>
        <pt x="114" y="470" on="1"/>
        <pt x="135" y="553" on="0"/>
        <pt x="226" y="664" on="0"/>
        <pt x="347" y="720" on="0"/>
        <pt x="412" y="720" on="1"/>
        <pt x="523" y="720" on="0"/>
        <pt x="620" y="600" on="0"/>
        <pt x="591" y="481" on="1"/>
      </contour>
      <contour>
        <pt x="134" y="223" on="1"/>
        <pt x="124" y="181" on="0"/>
        <pt x="129" y="105" on="0"/>
        <pt x="184" y="57" on="0"/>
        <pt x="248" y="57" on="1"/>
        <pt x="328" y="57" on="0"/>
        <pt x="427" y="152" on="0"/>
        <pt x="447" y="231" on="1"/>
        <pt x="508" y="477" on="1"/>
        <pt x="519" y="519" on="0"/>
        <pt x="513" y="595" on="0"/>
        <pt x="458" y="643" on="0"/>
        <pt x="394" y="643" on="1"/>
        <pt x="315" y="643" on="0"/>
        <pt x="216" y="549" on="0"/>
        <pt x="196" y="469" on="1"/>
      </contour>
    </TTGlyph>
    <TTGlyph name="Odieresis" xMin="22" yMin="-20" xMax="620" yMax="903">
      <contour>
        <pt x="383" y="802" on="1"/>
        <pt x="290" y="802" on="1"/>
        <pt x="278" y="802" on="0"/>
        <pt x="282" y="813" on="1"/>
        <pt x="304" y="903" on="1"/>
        <pt x="397" y="903" on="1"/>
        <pt x="409" y="903" on="0"/>
        <pt x="405" y="892" on="1"/>
      </contour>
      <contour>
        <pt x="589" y="802" on="1"/>
        <pt x="496" y="802" on="1"/>
        <pt x="486" y="802" on="0"/>
        <pt x="488" y="813" on="1"/>
        <pt x="511" y="903" on="1"/>
        <pt x="603" y="903" on="1"/>
        <pt x="614" y="903" on="0"/>
        <pt x="612" y="892" on="1"/>
      </contour>
      <contour>
        <pt x="528" y="230" on="1"/>
        <pt x="507" y="147" on="0"/>
        <pt x="416" y="36" on="0"/>
        <pt x="296" y="-20" on="0"/>
        <pt x="230" y="-20" on="1"/>
        <pt x="119" y="-20" on="0"/>
        <pt x="22" y="101" on="0"/>
        <pt x="52" y="219" on="1"/>
        <pt x="114" y="470" on="1"/>
        <pt x="135" y="553" on="0"/>
        <pt x="226" y="664" on="0"/>
        <pt x="347" y="720" on="0"/>
        <pt x="412" y="720" on="1"/>
        <pt x="523" y="720" on="0"/>
        <pt x="620" y="600" on="0"/>
        <pt x="591" y="481" on="1"/>
      </contour>
      <contour>
        <pt x="134" y="223" on="1"/>
        <pt x="124" y="181" on="0"/>
        <pt x="129" y="105" on="0"/>
        <pt x="184" y="57" on="0"/>
        <pt x="248" y="57" on="1"/>
        <pt x="328" y="57" on="0"/>
        <pt x="427" y="152" on="0"/>
        <pt x="447" y="231" on="1"/>
        <pt x="508" y="477" on="1"/>
        <pt x="519" y="519" on="0"/>
        <pt x="513" y="595" on="0"/>
        <pt x="458" y="643" on="0"/>
        <pt x="394" y="643" on="1"/>
        <pt x="315" y="643" on="0"/>
        <pt x="216" y="549" on="0"/>
        <pt x="196" y="469" on="1"/>
      </contour>
    </TTGlyph>
    <TTGlyph name="Odotbelow" xMin="22" yMin="-204" xMax="620" yMax="720">
      <contour>
        <pt x="528" y="230" on="1"/>
        <pt x="507" y="147" on="0"/>
        <pt x="416" y="36" on="0"/>
        <pt x="296" y="-20" on="0"/>
        <pt x="230" y="-20" on="1"/>
        <pt x="119" y="-20" on="0"/>
        <pt x="22" y="101" on="0"/>
        <pt x="52" y="219" on="1"/>
        <pt x="114" y="470" on="1"/>
        <pt x="135" y="553" on="0"/>
        <pt x="226" y="664" on="0"/>
        <pt x="347" y="720" on="0"/>
        <pt x="412" y="720" on="1"/>
        <pt x="523" y="720" on="0"/>
        <pt x="620" y="600" on="0"/>
        <pt x="591" y="481" on="1"/>
      </contour>
      <contour>
        <pt x="134" y="223" on="1"/>
        <pt x="124" y="181" on="0"/>
        <pt x="129" y="105" on="0"/>
        <pt x="184" y="57" on="0"/>
        <pt x="248" y="57" on="1"/>
        <pt x="328" y="57" on="0"/>
        <pt x="427" y="152" on="0"/>
        <pt x="447" y="231" on="1"/>
        <pt x="508" y="477" on="1"/>
        <pt x="519" y="519" on="0"/>
        <pt x="513" y="595" on="0"/>
        <pt x="458" y="643" on="0"/>
        <pt x="394" y="643" on="1"/>
        <pt x="315" y="643" on="0"/>
        <pt x="216" y="549" on="0"/>
        <pt x="196" y="469" on="1"/>
      </contour>
      <contour>
        <pt x="238" y="-204" on="1"/>
        <pt x="138" y="-204" on="1"/>
        <pt x="126" y="-204" on="0"/>
        <pt x="130" y="-193" on="1"/>
        <pt x="153" y="-102" on="1"/>
        <pt x="253" y="-102" on="1"/>
        <pt x="265" y="-102" on="0"/>
        <pt x="261" y="-113" on="1"/>
      </contour>
    </TTGlyph>
    <TTGlyph name="Ograve" xMin="22" yMin="-20" xMax="620" yMax="948">
      <contour>
        <pt x="468" y="776" on="1"/>
        <pt x="402" y="776" on="1"/>
        <pt x="391" y="776" on="0"/>
        <pt x="387" y="783" on="1"/>
        <pt x="366" y="819" on="0"/>
        <pt x="339" y="864" on="0"/>
        <pt x="316" y="904" on="0"/>
        <pt x="298" y="933" on="1"/>
        <pt x="295" y="938" on="0"/>
        <pt x="303" y="948" on="0"/>
        <pt x="309" y="948" on="1"/>
        <pt x="402" y="948" on="1"/>
        <pt x="420" y="902" on="0"/>
        <pt x="451" y="821" on="0"/>
      </contour>
      <contour>
        <pt x="528" y="230" on="1"/>
        <pt x="507" y="147" on="0"/>
        <pt x="416" y="36" on="0"/>
        <pt x="296" y="-20" on="0"/>
        <pt x="230" y="-20" on="1"/>
        <pt x="119" y="-20" on="0"/>
        <pt x="22" y="101" on="0"/>
        <pt x="52" y="219" on="1"/>
        <pt x="114" y="470" on="1"/>
        <pt x="135" y="553" on="0"/>
        <pt x="226" y="664" on="0"/>
        <pt x="347" y="720" on="0"/>
        <pt x="412" y="720" on="1"/>
        <pt x="523" y="720" on="0"/>
        <pt x="620" y="600" on="0"/>
        <pt x="591" y="481" on="1"/>
      </contour>
      <contour>
        <pt x="134" y="223" on="1"/>
        <pt x="124" y="181" on="0"/>
        <pt x="129" y="105" on="0"/>
        <pt x="184" y="57" on="0"/>
        <pt x="248" y="57" on="1"/>
        <pt x="328" y="57" on="0"/>
        <pt x="427" y="152" on="0"/>
        <pt x="447" y="231" on="1"/>
        <pt x="508" y="477" on="1"/>
        <pt x="519" y="519" on="0"/>
        <pt x="513" y="595" on="0"/>
        <pt x="458" y="643" on="0"/>
        <pt x="394" y="643" on="1"/>
        <pt x="315" y="643" on="0"/>
        <pt x="216" y="549" on="0"/>
        <pt x="196" y="469" on="1"/>
      </contour>
    </TTGlyph>
    <TTGlyph name="Ohungarumlaut" xMin="22" yMin="-20" xMax="783" yMax="951">
      <contour>
        <pt x="359" y="778" on="1"/>
        <pt x="293" y="778" on="1"/>
        <pt x="333" y="823" on="0"/>
        <pt x="404" y="904" on="0"/>
        <pt x="445" y="951" on="1"/>
        <pt x="538" y="951" on="1"/>
        <pt x="544" y="951" on="0"/>
        <pt x="547" y="941" on="0"/>
        <pt x="541" y="936" on="1"/>
        <pt x="517" y="914" on="0"/>
        <pt x="482" y="881" on="0"/>
        <pt x="448" y="850" on="0"/>
        <pt x="407" y="813" on="0"/>
        <pt x="378" y="786" on="1"/>
        <pt x="370" y="778" on="0"/>
      </contour>
      <contour>
        <pt x="595" y="778" on="1"/>
        <pt x="529" y="778" on="1"/>
        <pt x="569" y="823" on="0"/>
        <pt x="640" y="904" on="0"/>
        <pt x="681" y="951" on="1"/>
        <pt x="774" y="951" on="1"/>
        <pt x="780" y="951" on="0"/>
        <pt x="783" y="941" on="0"/>
        <pt x="777" y="936" on="1"/>
        <pt x="753" y="914" on="0"/>
        <pt x="718" y="881" on="0"/>
        <pt x="684" y="850" on="0"/>
        <pt x="643" y="813" on="0"/>
        <pt x="614" y="786" on="1"/>
        <pt x="606" y="778" on="0"/>
      </contour>
      <contour>
        <pt x="528" y="230" on="1"/>
        <pt x="507" y="147" on="0"/>
        <pt x="416" y="36" on="0"/>
        <pt x="296" y="-20" on="0"/>
        <pt x="230" y="-20" on="1"/>
        <pt x="119" y="-20" on="0"/>
        <pt x="22" y="101" on="0"/>
        <pt x="52" y="219" on="1"/>
        <pt x="114" y="470" on="1"/>
        <pt x="135" y="553" on="0"/>
        <pt x="226" y="664" on="0"/>
        <pt x="347" y="720" on="0"/>
        <pt x="412" y="720" on="1"/>
        <pt x="523" y="720" on="0"/>
        <pt x="620" y="600" on="0"/>
        <pt x="591" y="481" on="1"/>
      </contour>
      <contour>
        <pt x="134" y="223" on="1"/>
        <pt x="124" y="181" on="0"/>
        <pt x="129" y="105" on="0"/>
        <pt x="184" y="57" on="0"/>
        <pt x="248" y="57" on="1"/>
        <pt x="328" y="57" on="0"/>
        <pt x="427" y="152" on="0"/>
        <pt x="447" y="231" on="1"/>
        <pt x="508" y="477" on="1"/>
        <pt x="519" y="519" on="0"/>
        <pt x="513" y="595" on="0"/>
        <pt x="458" y="643" on="0"/>
        <pt x="394" y="643" on="1"/>
        <pt x="315" y="643" on="0"/>
        <pt x="216" y="549" on="0"/>
        <pt x="196" y="469" on="1"/>
      </contour>
    </TTGlyph>
    <TTGlyph name="Omacron" xMin="22" yMin="-20" xMax="631" yMax="881">
      <contour>
        <pt x="278" y="881" on="1"/>
        <pt x="619" y="881" on="1"/>
        <pt x="631" y="881" on="0"/>
        <pt x="627" y="870" on="1"/>
        <pt x="623" y="854" on="0"/>
        <pt x="616" y="824" on="0"/>
        <pt x="612" y="808" on="1"/>
        <pt x="271" y="808" on="1"/>
        <pt x="259" y="808" on="0"/>
        <pt x="263" y="819" on="1"/>
        <pt x="267" y="835" on="0"/>
        <pt x="274" y="865" on="0"/>
      </contour>
      <contour>
        <pt x="528" y="230" on="1"/>
        <pt x="507" y="147" on="0"/>
        <pt x="416" y="36" on="0"/>
        <pt x="296" y="-20" on="0"/>
        <pt x="230" y="-20" on="1"/>
        <pt x="119" y="-20" on="0"/>
        <pt x="22" y="101" on="0"/>
        <pt x="52" y="219" on="1"/>
        <pt x="114" y="470" on="1"/>
        <pt x="135" y="553" on="0"/>
        <pt x="226" y="664" on="0"/>
        <pt x="347" y="720" on="0"/>
        <pt x="412" y="720" on="1"/>
        <pt x="523" y="720" on="0"/>
        <pt x="620" y="600" on="0"/>
        <pt x="591" y="481" on="1"/>
      </contour>
      <contour>
        <pt x="134" y="223" on="1"/>
        <pt x="124" y="181" on="0"/>
        <pt x="129" y="105" on="0"/>
        <pt x="184" y="57" on="0"/>
        <pt x="248" y="57" on="1"/>
        <pt x="328" y="57" on="0"/>
        <pt x="427" y="152" on="0"/>
        <pt x="447" y="231" on="1"/>
        <pt x="508" y="477" on="1"/>
        <pt x="519" y="519" on="0"/>
        <pt x="513" y="595" on="0"/>
        <pt x="458" y="643" on="0"/>
        <pt x="394" y="643" on="1"/>
        <pt x="315" y="643" on="0"/>
        <pt x="216" y="549" on="0"/>
        <pt x="196" y="469" on="1"/>
      </contour>
    </TTGlyph>
    <TTGlyph name="Oogonek" xMin="26" yMin="-241" xMax="620" yMax="720">
      <contour>
        <pt x="90" y="-127" on="1"/>
        <pt x="99" y="-91" on="0"/>
        <pt x="142" y="-35" on="0"/>
        <pt x="170" y="-15" on="1"/>
        <pt x="91" y="0" on="0"/>
        <pt x="26" y="118" on="0"/>
        <pt x="52" y="219" on="1"/>
        <pt x="114" y="470" on="1"/>
        <pt x="135" y="553" on="0"/>
        <pt x="226" y="664" on="0"/>
        <pt x="347" y="720" on="0"/>
        <pt x="412" y="720" on="1"/>
        <pt x="523" y="720" on="0"/>
        <pt x="620" y="600" on="0"/>
        <pt x="591" y="481" on="1"/>
        <pt x="528" y="230" on="1"/>
        <pt x="509" y="156" on="0"/>
        <pt x="432" y="51" on="0"/>
        <pt x="329" y="-9" on="0"/>
        <pt x="271" y="-17" on="1"/>
        <pt x="224" y="-34" on="0"/>
        <pt x="178" y="-82" on="0"/>
        <pt x="171" y="-108" on="1"/>
        <pt x="164" y="-136" on="0"/>
        <pt x="191" y="-163" on="0"/>
        <pt x="216" y="-163" on="1"/>
        <pt x="252" y="-163" on="0"/>
        <pt x="283" y="-143" on="1"/>
        <pt x="298" y="-143" on="1"/>
        <pt x="295" y="-154" on="0"/>
        <pt x="288" y="-181" on="0"/>
        <pt x="282" y="-207" on="1"/>
        <pt x="279" y="-219" on="0"/>
        <pt x="227" y="-241" on="0"/>
        <pt x="192" y="-241" on="1"/>
        <pt x="131" y="-241" on="0"/>
        <pt x="77" y="-180" on="0"/>
      </contour>
      <contour>
        <pt x="134" y="223" on="1"/>
        <pt x="124" y="181" on="0"/>
        <pt x="129" y="105" on="0"/>
        <pt x="184" y="57" on="0"/>
        <pt x="248" y="57" on="1"/>
        <pt x="328" y="57" on="0"/>
        <pt x="427" y="152" on="0"/>
        <pt x="447" y="231" on="1"/>
        <pt x="508" y="477" on="1"/>
        <pt x="519" y="519" on="0"/>
        <pt x="513" y="595" on="0"/>
        <pt x="458" y="643" on="0"/>
        <pt x="394" y="643" on="1"/>
        <pt x="315" y="643" on="0"/>
        <pt x="216" y="549" on="0"/>
        <pt x="196" y="469" on="1"/>
      </contour>
    </TTGlyph>
    <TTGlyph name="Oslash" xMin="-27" yMin="-76" xMax="666" yMax="776">
      <contour>
        <pt x="666" y="776" on="1"/>
        <pt x="622" y="716" on="0"/>
        <pt x="576" y="654" on="1"/>
        <pt x="618" y="592" on="0"/>
        <pt x="591" y="481" on="1"/>
        <pt x="528" y="230" on="1"/>
        <pt x="507" y="147" on="0"/>
        <pt x="416" y="36" on="0"/>
        <pt x="296" y="-20" on="0"/>
        <pt x="230" y="-20" on="1"/>
        <pt x="227" y="-20" on="0"/>
        <pt x="225" y="-20" on="1"/>
        <pt x="225" y="-20" on="0"/>
        <pt x="225" y="-20" on="1"/>
        <pt x="154" y="-19" on="0"/>
        <pt x="109" y="7" on="1"/>
        <pt x="97" y="-10" on="0"/>
        <pt x="72" y="-45" on="0"/>
        <pt x="58" y="-64" on="1"/>
        <pt x="51" y="-73" on="0"/>
        <pt x="45" y="-76" on="0"/>
        <pt x="38" y="-76" on="1"/>
        <pt x="-27" y="-76" on="1"/>
        <pt x="-4" y="-44" on="0"/>
        <pt x="45" y="24" on="0"/>
        <pt x="64" y="49" on="1"/>
        <pt x="25" y="111" on="0"/>
        <pt x="52" y="219" on="1"/>
        <pt x="114" y="470" on="1"/>
        <pt x="135" y="553" on="0"/>
        <pt x="226" y="664" on="0"/>
        <pt x="346" y="720" on="0"/>
        <pt x="412" y="720" on="1"/>
        <pt x="415" y="720" on="0"/>
        <pt x="417" y="720" on="1"/>
        <pt x="417" y="720" on="0"/>
        <pt x="417" y="720" on="1"/>
        <pt x="486" y="719" on="0"/>
        <pt x="530" y="695" on="1"/>
        <pt x="557" y="733" on="0"/>
        <pt x="574" y="757" on="1"/>
        <pt x="584" y="770" on="0"/>
        <pt x="593" y="776" on="0"/>
        <pt x="603" y="776" on="1"/>
      </contour>
      <contour>
        <pt x="132" y="221" on="1"/>
        <pt x="126" y="197" on="0"/>
        <pt x="121" y="150" on="0"/>
        <pt x="125" y="129" on="1"/>
        <pt x="167" y="187" on="0"/>
        <pt x="260" y="317" on="0"/>
        <pt x="354" y="449" on="0"/>
        <pt x="443" y="574" on="0"/>
        <pt x="481" y="627" on="1"/>
        <pt x="467" y="636" on="0"/>
        <pt x="424" y="647" on="0"/>
        <pt x="395" y="647" on="1"/>
        <pt x="316" y="647" on="0"/>
        <pt x="214" y="551" on="0"/>
        <pt x="194" y="471" on="1"/>
      </contour>
      <contour>
        <pt x="510" y="479" on="1"/>
        <pt x="516" y="504" on="0"/>
        <pt x="521" y="551" on="0"/>
        <pt x="516" y="572" on="1"/>
        <pt x="451" y="482" on="0"/>
        <pt x="332" y="320" on="0"/>
        <pt x="236" y="188" on="0"/>
        <pt x="169" y="96" on="0"/>
        <pt x="156" y="77" on="1"/>
        <pt x="170" y="66" on="0"/>
        <pt x="215" y="53" on="0"/>
        <pt x="247" y="53" on="1"/>
        <pt x="327" y="53" on="0"/>
        <pt x="428" y="149" on="0"/>
        <pt x="448" y="229" on="1"/>
      </contour>
    </TTGlyph>
    <TTGlyph name="Oslashacute" xMin="-27" yMin="-76" xMax="666" yMax="947">
      <contour>
        <pt x="453" y="775" on="1"/>
        <pt x="387" y="775" on="1"/>
        <pt x="427" y="820" on="0"/>
        <pt x="498" y="901" on="0"/>
        <pt x="539" y="947" on="1"/>
        <pt x="632" y="947" on="1"/>
        <pt x="638" y="947" on="0"/>
        <pt x="641" y="938" on="0"/>
        <pt x="635" y="933" on="1"/>
        <pt x="611" y="911" on="0"/>
        <pt x="576" y="878" on="0"/>
        <pt x="542" y="847" on="0"/>
        <pt x="501" y="809" on="0"/>
        <pt x="472" y="782" on="1"/>
        <pt x="469" y="780" on="0"/>
        <pt x="459" y="775" on="0"/>
      </contour>
      <contour>
        <pt x="666" y="776" on="1"/>
        <pt x="622" y="716" on="0"/>
        <pt x="576" y="654" on="1"/>
        <pt x="618" y="592" on="0"/>
        <pt x="591" y="481" on="1"/>
        <pt x="528" y="230" on="1"/>
        <pt x="507" y="147" on="0"/>
        <pt x="416" y="36" on="0"/>
        <pt x="296" y="-20" on="0"/>
        <pt x="230" y="-20" on="1"/>
        <pt x="227" y="-20" on="0"/>
        <pt x="225" y="-20" on="1"/>
        <pt x="225" y="-20" on="0"/>
        <pt x="225" y="-20" on="1"/>
        <pt x="154" y="-19" on="0"/>
        <pt x="109" y="7" on="1"/>
        <pt x="97" y="-10" on="0"/>
        <pt x="72" y="-45" on="0"/>
        <pt x="58" y="-64" on="1"/>
        <pt x="51" y="-73" on="0"/>
        <pt x="45" y="-76" on="0"/>
        <pt x="38" y="-76" on="1"/>
        <pt x="-27" y="-76" on="1"/>
        <pt x="-4" y="-44" on="0"/>
        <pt x="45" y="24" on="0"/>
        <pt x="64" y="49" on="1"/>
        <pt x="25" y="111" on="0"/>
        <pt x="52" y="219" on="1"/>
        <pt x="114" y="470" on="1"/>
        <pt x="135" y="553" on="0"/>
        <pt x="226" y="664" on="0"/>
        <pt x="346" y="720" on="0"/>
        <pt x="412" y="720" on="1"/>
        <pt x="415" y="720" on="0"/>
        <pt x="417" y="720" on="1"/>
        <pt x="417" y="720" on="0"/>
        <pt x="417" y="720" on="1"/>
        <pt x="486" y="719" on="0"/>
        <pt x="530" y="695" on="1"/>
        <pt x="557" y="733" on="0"/>
        <pt x="574" y="757" on="1"/>
        <pt x="584" y="770" on="0"/>
        <pt x="593" y="776" on="0"/>
        <pt x="603" y="776" on="1"/>
      </contour>
      <contour>
        <pt x="132" y="221" on="1"/>
        <pt x="126" y="197" on="0"/>
        <pt x="121" y="150" on="0"/>
        <pt x="125" y="129" on="1"/>
        <pt x="167" y="187" on="0"/>
        <pt x="260" y="317" on="0"/>
        <pt x="354" y="449" on="0"/>
        <pt x="443" y="574" on="0"/>
        <pt x="481" y="627" on="1"/>
        <pt x="467" y="636" on="0"/>
        <pt x="424" y="647" on="0"/>
        <pt x="395" y="647" on="1"/>
        <pt x="316" y="647" on="0"/>
        <pt x="214" y="551" on="0"/>
        <pt x="194" y="471" on="1"/>
      </contour>
      <contour>
        <pt x="510" y="479" on="1"/>
        <pt x="516" y="504" on="0"/>
        <pt x="521" y="551" on="0"/>
        <pt x="516" y="572" on="1"/>
        <pt x="451" y="482" on="0"/>
        <pt x="332" y="320" on="0"/>
        <pt x="236" y="188" on="0"/>
        <pt x="169" y="96" on="0"/>
        <pt x="156" y="77" on="1"/>
        <pt x="170" y="66" on="0"/>
        <pt x="215" y="53" on="0"/>
        <pt x="247" y="53" on="1"/>
        <pt x="327" y="53" on="0"/>
        <pt x="428" y="149" on="0"/>
        <pt x="448" y="229" on="1"/>
      </contour>
    </TTGlyph>
    <TTGlyph name="Otilde" xMin="22" yMin="-20" xMax="648" yMax="928">
      <contour>
        <pt x="543" y="866" on="1"/>
        <pt x="569" y="866" on="0"/>
        <pt x="609" y="888" on="0"/>
        <pt x="634" y="911" on="1"/>
        <pt x="648" y="911" on="1"/>
        <pt x="644" y="896" on="0"/>
        <pt x="635" y="859" on="0"/>
        <pt x="631" y="845" on="1"/>
        <pt x="630" y="840" on="0"/>
        <pt x="627" y="832" on="0"/>
        <pt x="620" y="827" on="1"/>
        <pt x="601" y="811" on="0"/>
        <pt x="555" y="790" on="0"/>
        <pt x="523" y="790" on="1"/>
        <pt x="495" y="790" on="0"/>
        <pt x="452" y="809" on="0"/>
        <pt x="415" y="833" on="0"/>
        <pt x="377" y="852" on="0"/>
        <pt x="354" y="852" on="1"/>
        <pt x="329" y="852" on="0"/>
        <pt x="288" y="831" on="0"/>
        <pt x="263" y="808" on="1"/>
        <pt x="249" y="808" on="1"/>
        <pt x="253" y="823" on="0"/>
        <pt x="262" y="860" on="0"/>
        <pt x="266" y="874" on="1"/>
        <pt x="267" y="878" on="0"/>
        <pt x="270" y="886" on="0"/>
        <pt x="277" y="891" on="1"/>
        <pt x="297" y="908" on="0"/>
        <pt x="343" y="928" on="0"/>
        <pt x="374" y="928" on="1"/>
        <pt x="402" y="928" on="0"/>
        <pt x="445" y="909" on="0"/>
        <pt x="483" y="885" on="0"/>
        <pt x="521" y="866" on="0"/>
      </contour>
      <contour>
        <pt x="528" y="230" on="1"/>
        <pt x="507" y="147" on="0"/>
        <pt x="416" y="36" on="0"/>
        <pt x="296" y="-20" on="0"/>
        <pt x="230" y="-20" on="1"/>
        <pt x="119" y="-20" on="0"/>
        <pt x="22" y="101" on="0"/>
        <pt x="52" y="219" on="1"/>
        <pt x="114" y="470" on="1"/>
        <pt x="135" y="553" on="0"/>
        <pt x="226" y="664" on="0"/>
        <pt x="347" y="720" on="0"/>
        <pt x="412" y="720" on="1"/>
        <pt x="523" y="720" on="0"/>
        <pt x="620" y="600" on="0"/>
        <pt x="591" y="481" on="1"/>
      </contour>
      <contour>
        <pt x="134" y="223" on="1"/>
        <pt x="124" y="181" on="0"/>
        <pt x="129" y="105" on="0"/>
        <pt x="184" y="57" on="0"/>
        <pt x="248" y="57" on="1"/>
        <pt x="328" y="57" on="0"/>
        <pt x="427" y="152" on="0"/>
        <pt x="447" y="231" on="1"/>
        <pt x="508" y="477" on="1"/>
        <pt x="519" y="519" on="0"/>
        <pt x="513" y="595" on="0"/>
        <pt x="458" y="643" on="0"/>
        <pt x="394" y="643" on="1"/>
        <pt x="315" y="643" on="0"/>
        <pt x="216" y="549" on="0"/>
        <pt x="196" y="469" on="1"/>
      </contour>
    </TTGlyph>
</ttFont>
